<svg width="192" height="192" viewBox="0 0 192 192" fill="none" xmlns="http://www.w3.org/2000/svg">
<g id="New Illustrations">
<path id="Vector" d="M46.0857 29.2257C48.7593 30.0523 55.9141 29.3553 63.7122 29.2257C64.5129 29.2123 64.5129 27.9095 63.7122 27.9239C51.1362 28.1409 57.4223 28.4241 48.3897 28.4241C47.6567 28.3421 46.919 28.31 46.1817 28.3281C45.5855 28.3204 45.4809 29.0385 46.0857 29.2257Z" fill="#231F20"/>
<path id="Vector_2" d="M63.0115 34.5333C63.1709 34.5333 63.3237 34.4699 63.4364 34.3572C63.5491 34.2445 63.6124 34.0917 63.6124 33.9323C63.6124 33.7729 63.5491 33.6201 63.4364 33.5074C63.3237 33.3947 63.1709 33.3313 63.0115 33.3313C44.3635 33.3313 46.9228 33.2977 46.6867 33.3313C46.5784 33.3382 46.476 33.3831 46.3976 33.4582C46.3192 33.5333 46.2699 33.6336 46.2584 33.7416C46.247 33.8495 46.274 33.958 46.3348 34.0479C46.3956 34.1378 46.4862 34.2033 46.5907 34.2328C52.0478 34.7652 57.5385 34.8657 63.0115 34.5333Z" fill="#231F20"/>
<path id="Vector_3" d="M46.2864 38.2383C46.1919 38.2544 46.1061 38.3034 46.0443 38.3767C45.9824 38.4499 45.9485 38.5427 45.9485 38.6386C45.9485 38.7345 45.9824 38.8273 46.0443 38.9005C46.1061 38.9738 46.1919 39.0228 46.2864 39.0389C48.1431 39.6581 61.4026 40.0949 64.2125 39.3394C64.3579 39.2858 64.4803 39.1836 64.559 39.0502C64.6377 38.9167 64.6679 38.7601 64.6444 38.6069C64.6209 38.4538 64.5452 38.3135 64.4301 38.2097C64.315 38.106 64.1676 38.0452 64.0128 38.0376C63.9159 38.0261 46.3824 38.2076 46.2864 38.2383Z" fill="#231F20"/>
<path id="Vector_4" d="M53.2964 42.9449C51.0884 42.9449 48.89 42.9449 46.7876 43.1456C46.1867 43.2416 46.1867 44.046 46.7876 44.046C48.9908 44.2467 51.194 44.1468 53.2964 44.1468C53.9982 44.1468 53.9982 42.8451 53.2964 42.9449Z" fill="#231F20"/>
<path id="Vector_5" d="M11.1359 83.2059C15.8486 85.9784 22.8028 86.6226 28.1606 86.2098C30.7542 90.4522 34.7611 93.6439 39.4761 95.2232C40.174 95.4363 40.5782 94.5224 40.1778 94.0213C38.0668 91.7187 36.8577 88.7315 36.7727 85.6088C38.6764 85.2028 40.5502 84.6675 42.381 84.0065C49.6079 80.6187 53.9183 71.9777 49.9919 64.5781C42.694 50.8251 17.0044 52.8008 8.43064 62.5755C7.07212 64.0285 6.05217 65.7642 5.44401 67.6581C4.83585 69.552 4.65457 71.5571 4.9132 73.5293C5.17182 75.5016 5.86393 77.3921 6.93982 79.0652C8.01572 80.7382 9.44871 82.1523 11.1359 83.2059ZM17.0438 68.7848C17.6797 68.6409 18.3463 68.7346 18.9179 69.0481C19.4896 69.3616 19.9269 69.8733 20.1474 70.4869C21.1324 72.9973 17.7695 75.2696 15.8418 73.291C15.4913 72.9645 15.2361 72.5487 15.1037 72.0883C14.9712 71.6278 14.9665 71.14 15.09 70.6771C15.2134 70.2141 15.4605 69.7935 15.8046 69.4602C16.1488 69.1269 16.5771 68.8934 17.0438 68.7848ZM30.4626 70.387C30.5887 70.7548 30.6362 71.1449 30.6019 71.5322C30.5675 71.9194 30.4523 72.2952 30.2635 72.635C30.0747 72.9749 29.8166 73.2713 29.5059 73.505C29.1952 73.7387 28.8389 73.9046 28.4601 73.9918C28.0366 74.0618 27.6025 74.0298 27.1939 73.8986C26.7852 73.7673 26.4138 73.5405 26.1103 73.237C25.8067 72.9335 25.58 72.562 25.4487 72.1534C25.3174 71.7447 25.2855 71.3107 25.3554 70.8872C25.4624 70.3188 25.7509 69.8005 26.1775 69.4101C26.6041 69.0196 27.1459 68.7781 27.7215 68.7217C28.297 68.6653 28.8754 68.7972 29.3696 69.0975C29.8639 69.3977 30.2474 69.8502 30.4626 70.387ZM40.8786 70.483C41.0027 70.851 41.0486 71.2408 41.0133 71.6275C40.9781 72.0142 40.8624 72.3893 40.6738 72.7287C40.4852 73.0682 40.2278 73.3645 39.9181 73.5987C39.6083 73.8329 39.2531 73.9998 38.8751 74.0888C38.452 74.1566 38.0189 74.1231 37.6113 73.991C37.2036 73.859 36.8331 73.6321 36.5301 73.3291C36.2271 73.0262 36.0003 72.6556 35.8683 72.248C35.7362 71.8404 35.7027 71.4072 35.7705 70.9842C35.8548 70.3988 36.133 69.8586 36.5607 69.4502C36.9884 69.0417 37.5408 68.7885 38.1294 68.7312C38.7181 68.6739 39.3089 68.8158 39.8073 69.1341C40.3058 69.4524 40.683 69.9287 40.8786 70.4869V70.483Z" fill="#088542"/>
<path id="Vector_6" d="M14.9404 46.7529C15.9494 47.2006 17.041 47.4319 18.1449 47.4319C19.2487 47.4319 20.3403 47.2006 21.3494 46.7529C21.8228 46.5112 22.2622 46.2077 22.6559 45.8505C22.8492 45.6482 22.957 45.3791 22.957 45.0993C22.957 44.8195 22.8492 44.5505 22.6559 44.3481C22.0559 43.7472 21.4607 44.1561 20.9538 44.5488C18.8937 46.1443 13.6502 45.1776 11.4402 40.944C8.90871 36.0941 12.1065 29.616 17.0486 28.4246C21.4041 27.3763 25.1596 30.3571 25.1596 36.3369C25.1596 41.7004 21.455 40.2787 21.455 34.5341C21.455 34.0733 18.479 31.0089 15.9465 33.6326C14.013 35.639 13.894 39.7968 16.3468 41.2435C16.7406 41.4465 17.171 41.5687 17.6127 41.6029C18.0545 41.6372 18.4986 41.5827 18.9189 41.4429C19.3393 41.303 19.7275 41.0804 20.0606 40.7884C20.3938 40.4963 20.6651 40.1405 20.8588 39.7421C22.005 42.0355 24.0729 42.2381 25.2652 41.0438C27.3551 38.9529 27.9945 31.5513 23.7628 28.0243C20.6006 25.3891 15.357 25.4928 11.6447 29.3261C6.03063 35.1149 7.61463 43.7885 14.9404 46.7529ZM19.5484 37.3392C19.4524 38.4413 19.0473 39.6432 17.7455 39.5472C14.4873 39.5472 17.7378 31.6214 19.4476 35.0409C19.6203 35.7942 19.6542 36.5728 19.5474 37.3382L19.5484 37.3392Z" fill="#088542"/>
<path id="Vector_7" d="M119.595 29.5257C123.2 30.3273 127.328 29.6898 130.611 31.7337C133.938 33.8006 134.739 38.1455 134.316 41.8482C133.932 45.2553 132.414 48.4588 131.011 51.5625C122.842 48.983 115.447 59.9625 120.196 67.0857C120.1 67.1154 111.38 70.2278 110.98 70.8911C110.915 71.0284 110.879 71.1776 110.874 71.3294C110.869 71.4813 110.896 71.6325 110.952 71.7735C111.009 71.9146 111.094 72.0425 111.202 72.1492C111.31 72.2558 111.439 72.339 111.581 72.3935C112.893 73.0751 114.689 72.8169 116.087 72.5942C118.673 72.1814 121.857 71.3308 123.699 69.4895C134.003 72.5202 140.625 57.2466 132.812 52.3641C134.915 47.9577 137.125 43.1481 136.417 38.1436C136.169 36.0698 135.374 34.0993 134.113 32.4345C131.768 29.4633 128.202 28.7865 124.699 28.629C123.134 28.5114 121.564 28.4793 119.995 28.533C119.194 28.6242 118.994 29.4258 119.595 29.5257ZM132.613 55.3641C132.755 55.5065 132.84 55.6953 132.852 55.8956C132.865 56.0959 132.805 56.294 132.682 56.453C132.56 56.6121 132.384 56.7213 132.187 56.7605C131.99 56.7996 131.786 56.766 131.612 56.6658C127.915 54.8169 125.348 56.8751 123.5 60.5711C123.2 61.0722 122.489 60.6671 122.599 60.1708C123.463 56.2146 126.334 54.0614 129.409 54.0614C130.576 54.1945 131.684 54.6451 132.613 55.3641Z" fill="#231F20"/>
<path id="Vector_8" d="M112.584 40.1412C112.865 42.7044 116.838 49.0462 121.397 52.3592C122.094 52.866 123.2 51.9588 123.701 51.5576C126.955 49.2795 128.822 51.0065 128.507 44.347C128.375 41.5448 128.232 38.5169 126.304 36.3358C124.426 34.2104 121.394 32.6187 118.493 33.331C118.091 33.427 115.275 27.5345 113.386 25.4196C108.847 20.3403 101.966 18.8004 95.3587 20.3124C84.0383 22.9006 85.8412 32.131 87.7439 35.635C88.6789 37.2337 89.9364 38.6202 91.4365 39.7064C92.9365 40.7926 94.6463 41.5547 96.4569 41.9441C100.814 43.0078 108.088 42.4865 112.584 40.1412ZM109.58 26.922C109.988 27.618 109.179 28.5243 108.478 28.0232C105.473 26.1204 102.468 24.4011 98.8636 24.5182C96.1593 24.6056 92.6543 25.3198 91.2527 28.0232C91.2067 28.0955 91.1469 28.1581 91.0767 28.2074C91.0065 28.2566 90.9273 28.2915 90.8436 28.3102C90.7599 28.3288 90.6733 28.3308 90.5888 28.3159C90.5044 28.3011 90.4237 28.2698 90.3513 28.2238C90.2789 28.1778 90.2163 28.118 90.1671 28.0478C90.1179 27.9776 90.0829 27.8983 90.0643 27.8146C90.0456 27.7309 90.0437 27.6444 90.0585 27.5599C90.0733 27.4754 90.1046 27.3947 90.1507 27.3224C93.1363 20.0264 106.23 21.2014 109.58 26.922ZM91.2527 31.1278C91.2388 31.5171 91.3436 31.9015 91.5532 32.2299C91.9564 33.2369 91.6387 34.0884 90.5519 33.8321C89.4143 33.5633 88.967 31.6241 89.951 30.7275C90.6239 30.1112 91.2527 30.5278 91.2527 31.1278Z" fill="#231F20"/>
<path id="Vector_9" d="M100.967 158.017C103.671 157.115 106.577 156.188 109.479 156.415C110.602 156.488 111.698 156.793 112.698 157.31C113.697 157.827 114.579 158.545 115.288 159.419C115.779 160.028 116.791 159.219 116.39 158.518C115.24 156.826 113.483 155.642 111.483 155.213C107.818 154.338 104.283 155.525 100.667 156.815C99.9658 157.214 100.266 158.316 100.967 158.017Z" fill="#231F20"/>
<path id="Vector_10" d="M96.7614 154.11C102.315 149.31 109.407 146.7 115.289 151.006C115.984 151.515 116.891 150.406 116.191 149.804C113.931 147.99 111.069 147.096 108.179 147.3C103.289 147.465 99.2747 150.029 95.8609 153.309C95.3492 153.799 96.1691 154.622 96.7614 154.11Z" fill="#231F20"/>
<path id="Vector_11" d="M111.783 144.496C112.889 144.865 113.021 143.573 112.484 143.394C109.284 141.779 105.598 141.407 102.139 142.351C98.6804 143.294 95.694 145.486 93.7566 148.502C93.6769 148.648 93.6585 148.82 93.7054 148.98C93.7523 149.139 93.8607 149.274 94.0067 149.353C94.1527 149.433 94.3244 149.452 94.484 149.405C94.6436 149.358 94.778 149.249 94.8577 149.103C96.6817 146.462 99.3812 144.55 102.479 143.707C105.576 142.864 108.872 143.143 111.783 144.496Z" fill="#231F20"/>
<path id="Vector_12" d="M98.1629 52.8609C98.7638 53.0606 99.1642 52.6603 99.4646 52.1592C99.7477 51.7111 99.8873 51.1873 99.865 50.6577C99.769 49.956 99.265 49.355 98.5632 49.6555C97.4621 50.0568 96.864 52.5604 98.1629 52.8609Z" fill="#231F20"/>
<path id="Vector_13" d="M111.883 52.6595C111.787 51.9587 111.286 51.3664 110.582 51.6582C109.585 52.071 108.879 54.5622 110.18 54.8627C111.192 55.1996 111.883 53.7404 111.883 52.6595Z" fill="#231F20"/>
<path id="Vector_14" d="M101.968 44.6467C101.435 44.2952 100.8 44.1336 100.164 44.1881C99.5275 44.2426 98.9285 44.5101 98.4633 44.9472C98.3695 45.0597 98.3181 45.2016 98.3181 45.348C98.3181 45.4945 98.3695 45.6363 98.4633 45.7488C98.8636 46.2499 99.765 45.6528 100.266 45.7488C100.967 45.8448 101.868 46.9507 102.474 46.2499C102.97 45.5482 102.563 44.9578 101.968 44.6467Z" fill="#231F20"/>
<path id="Vector_15" d="M104.573 50.1555C104.772 49.7552 104.072 49.4547 103.871 49.855C103.371 50.8563 100.165 57.2662 101.968 57.6665C102.953 57.9047 103.96 58.0389 104.973 58.0668C105.091 58.0679 105.206 58.0306 105.301 57.9607C105.396 57.8907 105.465 57.7919 105.499 57.679C105.533 57.5661 105.529 57.4453 105.489 57.3346C105.448 57.224 105.373 57.1296 105.274 57.0656C104.573 56.3648 103.471 56.6652 102.569 56.6652C103.063 54.4454 103.733 52.2686 104.573 50.1555Z" fill="#231F20"/>
<path id="Vector_16" d="M99.4646 64.2761C99.5654 64.2761 101.367 63.9756 102.169 63.7759C102.388 64.895 102.907 65.9334 103.671 66.7798C104.49 67.8684 105.674 68.9878 106.976 68.8831C109.78 68.8831 110.703 65.2755 110.481 63.0742C110.389 62.1718 109.98 61.9731 109.079 61.9731C105.886 61.9328 102.708 62.4061 99.6653 63.3747C99.0182 63.5907 98.7552 64.2761 99.4646 64.2761ZM109.179 63.3747C109.179 65.4867 108.476 68.1948 106.575 67.5814C105.806 67.2347 105.131 66.708 104.608 66.0456C104.085 65.3833 103.729 64.6048 103.571 63.7759C105.432 63.5453 107.304 63.4114 109.179 63.3747Z" fill="#231F20"/>
<path id="Vector_17" d="M88.0483 167.529C89.6317 167.577 91.2143 167.409 92.7523 167.029C97.1769 166.111 108.88 161.817 109.577 162.421C110.382 163.118 110.389 164.725 110.177 165.626C109.985 166.43 109.171 166.514 108.575 166.728C105.949 167.669 94.6608 171.358 91.6502 172.135C90.4891 172.529 89.2716 172.732 88.0454 172.736C86.544 172.624 28.5523 165.248 27.5558 165.025C27.3457 164.979 27.126 165.016 26.9432 165.13C26.7605 165.243 26.6291 165.423 26.577 165.632C26.5249 165.841 26.5562 166.061 26.6642 166.247C26.7722 166.433 26.9484 166.57 27.1555 166.628C29.3549 167.047 84.5395 174.038 86.543 174.139C87.4717 174.271 88.4117 174.303 89.3472 174.235C90.0451 174.108 106.554 169.26 109.577 167.926C110.29 167.716 110.943 167.338 111.48 166.824C111.98 166.123 111.68 162.517 111.279 161.717C111.027 161.277 110.625 160.944 110.146 160.779C109.668 160.613 109.146 160.626 108.676 160.815C108.072 161.007 90.2486 166.724 88.8461 166.023C87.4445 160.314 80.6486 131.97 79.1318 124.762C77.4451 116.747 75.1305 115.318 71.6208 114.847C70.0205 114.633 61.4054 113.745 51.2909 112.845C51.8658 110 52.8094 107.242 54.0979 104.641C60.4637 91.05 73.8307 84.1783 88.6493 81.8071C89.8466 88.2271 91.3848 94.5788 93.2573 100.835C93.303 100.949 93.3772 101.048 93.4725 101.125C93.5679 101.202 93.6814 101.252 93.802 101.272C93.9226 101.293 94.0464 101.281 94.1615 101.24C94.2766 101.199 94.3791 101.128 94.4592 101.036C95.2608 99.7341 103.172 87.8157 103.675 87.1159C103.675 87.2167 109.183 102.138 109.884 103.34C109.93 103.413 109.989 103.476 110.06 103.525C110.13 103.575 110.209 103.61 110.293 103.629C110.376 103.648 110.463 103.649 110.548 103.634C110.632 103.619 110.713 103.587 110.785 103.541C117.86 98.6445 133.406 83.9114 133.619 83.9114C144.365 87.2177 155.027 92.3901 162.261 100.936C172.074 112.535 174.247 128.309 171.477 141.597C167.445 160.901 154.764 166.433 137.527 166.433C131.015 166.443 124.525 165.67 118.198 164.129C118.118 164.107 118.035 164.101 117.953 164.111C117.871 164.122 117.792 164.149 117.721 164.19C117.649 164.232 117.587 164.288 117.537 164.354C117.487 164.42 117.452 164.495 117.431 164.575C117.411 164.655 117.408 164.739 117.42 164.821C117.433 164.902 117.462 164.981 117.505 165.051C117.549 165.121 117.606 165.182 117.673 165.23C117.741 165.278 117.817 165.312 117.898 165.33C120.138 166.107 122.455 166.645 124.81 166.933C146.89 170.349 165.431 167.054 171.979 145.601C174.64 136.884 174.495 126.556 172.58 118.462C168.649 101.877 157.056 91.2007 141.426 85.2084C135.791 83.1145 129.997 81.4734 124.101 80.3009C124.197 79.1997 124.702 74.2922 125.003 72.9905C125.016 72.9311 125.018 72.8696 125.008 72.8096C124.997 72.7496 124.975 72.6921 124.943 72.6406C124.91 72.5891 124.868 72.5446 124.818 72.5095C124.769 72.4745 124.712 72.4496 124.653 72.4364C124.593 72.4231 124.532 72.4218 124.472 72.4324C124.412 72.443 124.355 72.4654 124.303 72.4983C124.252 72.5311 124.208 72.5738 124.173 72.6238C124.138 72.6739 124.114 72.7303 124.101 72.7898C123.452 75.2223 122.983 77.6994 122.7 80.201C120.396 80.9018 105.574 84.7082 104.172 85.0087C103.972 85.1047 100.567 81.4029 99.4675 80.4007C99.5683 79.8996 99.5683 75.0929 99.5683 74.1914C100.87 74.2874 102.074 74.2663 103.273 74.3921C104.076 74.4756 104.279 73.0701 103.474 72.8897C99.9293 72.0919 96.6489 73.4205 93.4589 70.6817C92.7813 69.9477 92.4213 68.9756 92.4576 67.9773C92.7292 59.8211 94.3536 51.7665 97.2643 44.1425C97.4563 43.6394 96.5664 43.242 96.3629 43.7421C94.2178 48.8196 92.6713 54.1296 91.7549 59.5649C91.271 62.2789 90.9698 65.0223 90.8534 67.7767C90.7743 69.0257 91.1279 70.2638 91.8547 71.2826C93.4742 73.3351 95.8579 74.0004 98.4643 74.1866C98.3683 75.0881 98.1638 79.3946 98.1638 79.7949C92.9005 79.7351 87.6507 80.3419 82.5398 81.6007C72.9187 83.9114 65.76 87.8589 59.904 93.7207C54.693 98.9289 51.1091 105.54 49.5888 112.749C37.6713 111.648 24.1545 110.409 18.2419 109.845C7.03199 108.774 6.52991 112.048 7.72703 116.054C8.92415 120.06 24.8553 160.321 24.8553 160.321C24.8553 160.321 86.3453 167.329 88.0483 167.529ZM123.1 81.4029C126.071 81.9559 129.012 82.6579 131.913 83.5063C124.261 90.2004 118.861 95.8481 110.481 102.13C109.936 101.042 104.886 87.7745 104.573 86.2068C104.669 86.1828 122.701 81.4029 123.1 81.4029ZM102.87 85.8093C102.87 86.2193 102.112 85.962 93.8563 99.2292C92.0478 93.4779 90.5765 87.6261 89.4499 81.7034C92.2541 81.3031 95.1581 81.1025 98.063 80.9018C98.1446 80.9431 102.805 85.7441 102.87 85.8093ZM37.4736 118.457C41.0784 118.858 64.5129 119.959 67.5216 120.761C68.2439 120.922 68.9225 121.239 69.5105 121.688C70.0985 122.138 70.5817 122.71 70.9267 123.365C72.0893 125.589 74.3318 135.582 74.6323 138.187C74.6196 138.344 74.5512 138.491 74.4394 138.602C74.3276 138.713 74.1797 138.781 74.0225 138.792C73.8654 138.804 73.7092 138.759 73.5823 138.666C73.4554 138.572 73.3661 138.436 73.3306 138.283C72.9293 137.382 69.9254 124.363 69.024 123.361C68.0297 122.462 66.7568 121.931 65.4182 121.858C56.1062 120.441 46.6905 120.457 37.3776 119.155C36.9725 119.259 36.9725 118.457 37.4736 118.457ZM21.7507 133.079C22.3344 134.488 30.0576 152.209 30.3629 153.609C30.4162 153.802 30.3965 154.008 30.3075 154.188C30.2185 154.367 30.0665 154.508 29.8805 154.582C29.6945 154.656 29.4877 154.66 29.2995 154.591C29.1113 154.522 28.955 154.387 28.8605 154.21C28.4429 153.418 22.8835 138.74 20.8493 133.282C20.6611 132.773 21.5443 132.577 21.7507 133.079Z" fill="#231F20"/>
<path id="Vector_18" d="M138.624 132.078C137.803 134.096 136.581 135.927 135.032 137.459C133.483 138.991 131.639 140.193 129.612 140.991C127.141 141.879 124.524 142.287 121.9 142.192C121.299 142.192 121.101 143.179 121.804 143.294C124.228 143.62 126.694 143.413 129.029 142.686C131.364 141.959 133.513 140.731 135.324 139.088C139.035 135.755 140.7 131.32 141.132 126.37C141.46 123.173 141.46 119.952 141.132 116.755C141.049 116.052 140.017 116.054 140.031 116.755C140.108 121.278 140.181 128.138 138.624 132.078Z" fill="#231F20"/>
<path id="Vector_19" d="M112.584 47.7526C113.512 47.6614 113.359 48.7779 113.786 49.255C113.871 49.3853 113.993 49.4868 114.137 49.5461C114.28 49.6054 114.438 49.6197 114.59 49.5871C114.742 49.5546 114.881 49.4767 114.988 49.3637C115.094 49.2508 115.164 49.1081 115.188 48.9545C115.476 47.8496 114.088 46.4441 113.085 46.1504C112.385 45.9459 110.877 46.2464 110.781 47.2525C110.784 48.1165 111.729 47.8381 112.584 47.7526Z" fill="#231F20"/>
<path id="Vector_20" d="M100.583 91.7266C99.3465 93.588 97.9478 95.699 96.7919 97.453C97.0273 99.6434 97.6618 101.772 98.6639 103.734L88.9497 130.975L94.0569 142.495L104.573 133.783L104.072 104.039C105.693 102.858 107.056 101.358 108.078 99.6322C108.389 99.0446 105.6 92.8018 105.373 92.1211C103.772 92.4522 102.109 92.3153 100.583 91.7266ZM101.168 101.531C100.667 102.032 98.0543 100.028 98.6639 96.324C98.7599 95.723 99.7651 95.9227 99.7651 96.42C99.3647 99.3278 101.664 100.93 101.168 101.531Z" fill="#088542"/>
<path id="Vector_21" d="M75.53 40.944C75.53 40.0426 73.13 38.0391 68.618 32.9319C68.618 20.1859 69.0231 20.7043 68.1168 20.6141C62.1303 20.4375 48.4704 19.6839 41.8781 21.5146C41.7428 21.5146 41.4874 21.7219 41.4778 22.1155C41.3818 26.2253 41.2772 30.3283 41.3818 34.5341C41.3818 34.5341 36.3898 40.2499 36.074 40.7434C35.8612 41.07 35.7564 41.4551 35.7744 41.8445C35.7744 43.6119 35.4288 53.2291 35.3799 55.2384C35.8618 55.3216 36.3396 55.4176 36.8132 55.5264C36.6058 53.5517 36.7671 44.1226 36.6749 42.649C36.8756 42.8496 47.8916 53.665 48.1949 53.8656C47.9664 54.0941 48.9869 53.1399 43.6368 58.1338C44.0356 58.3661 44.4237 58.6119 44.8013 58.8711C53.5373 50.8647 55.8538 49.0109 56.0064 48.8583C57.1085 50.0602 73.9335 65.6832 74.234 65.9837C66.5223 66.4839 58.8106 66.8842 51.098 66.6845C51.2782 67.1717 51.4125 67.6747 51.4992 68.1869C59.586 68.3258 67.6746 68.0583 75.7344 67.3853C76.1357 67.3853 76.536 67.0848 76.4362 66.6845C76.3306 59.9712 75.6298 42.8467 75.53 40.944ZM55.5005 47.5536C54.8045 48.0624 49.4909 53.1619 49.1904 53.0611C47.689 52.1597 42.7815 47.6535 42.8813 47.1523C43.082 45.5501 42.3812 24.3187 42.481 22.6167C43.8826 22.3162 50.2925 21.7402 51.9946 21.7152C55.4007 21.6653 65.6151 21.9159 67.3172 22.0157C67.3172 22.1117 66.9764 40.9776 67.8183 46.4515C67.9143 46.8519 61.7079 52.5619 61.609 52.4602C57.3524 48.1037 56.3079 46.9613 55.5005 47.5536ZM62.4125 53.1619C64.7616 51.3456 70.3431 45.4339 73.9325 42.4455C74.6295 53.2637 74.7332 59.2992 74.7332 64.3997C72.4656 62.1763 75.1229 64.7184 62.4106 53.1619H62.4125Z" fill="#231F20"/>
</g>
</svg>
