<svg width="192" height="192" viewBox="0 0 192 192" fill="none" xmlns="http://www.w3.org/2000/svg">
<path d="M157.842 28.2134C156.854 29.4782 162.729 33.9168 162.964 44.3846C163.132 51.851 158.633 59.0083 148.155 62.6194C145.546 63.5174 146.094 66.131 154.635 65.9765C168.883 65.7197 175.407 57.5141 175.42 48.5482C175.442 33.6422 159.814 25.6901 157.842 28.2134ZM151.626 64.0219C152.313 63.349 168.881 58.1938 165.071 40.1184C164.161 35.8027 161.47 31.0195 161.32 30.9408C161.421 30.8515 161.421 30.937 161.428 31.0061C162.095 30.9293 162.59 31.3834 163.062 31.6848C179.946 42.516 173.908 65.7456 151.627 64.021L151.626 64.0219Z" fill="#088542"/>
<path d="M179.856 81.7967C181.325 84.7755 181.318 85.0525 181.963 85.1456L185.094 85.6007C185.267 85.6255 185.43 85.6983 185.563 85.8108C185.697 85.9233 185.796 86.071 185.85 86.2371C185.904 86.4033 185.91 86.5812 185.868 86.7507C185.826 86.9202 185.737 87.0745 185.612 87.1962C183.233 89.5136 182.967 89.5909 183.077 90.2336L183.612 93.3517C183.642 93.5238 183.623 93.7008 183.557 93.8626C183.491 94.0244 183.382 94.1646 183.24 94.2673C183.099 94.3699 182.932 94.431 182.758 94.4435C182.583 94.456 182.409 94.4195 182.255 94.3381C179.314 92.7915 179.16 92.5626 178.582 92.8655L175.781 94.3381C175.627 94.4195 175.452 94.456 175.278 94.4435C175.104 94.431 174.937 94.3699 174.795 94.2673C174.654 94.1646 174.544 94.0244 174.479 93.8626C174.413 93.7008 174.394 93.5238 174.423 93.3517C174.984 90.0786 175.155 89.8592 174.69 89.4047L172.424 87.1967C172.299 87.075 172.21 86.9207 172.168 86.7511C172.126 86.5816 172.132 86.4037 172.186 86.2376C172.24 86.0715 172.34 85.9238 172.473 85.8113C172.607 85.6988 172.769 85.626 172.942 85.6011C176.231 85.1259 176.49 85.2181 176.777 84.6339L178.178 81.7967C178.256 81.6399 178.375 81.5079 178.523 81.4157C178.672 81.3234 178.843 81.2746 179.017 81.2747C179.192 81.2748 179.363 81.3238 179.512 81.4162C179.66 81.5087 179.779 81.6408 179.856 81.7976V81.7967Z" fill="#088542"/>
<path d="M124.745 44.5986C126.213 47.5775 126.207 47.8545 126.851 47.9476L129.983 48.4026C130.156 48.4275 130.318 48.5003 130.452 48.6128C130.585 48.7253 130.685 48.873 130.739 49.0391C130.793 49.2052 130.799 49.3831 130.757 49.5527C130.715 49.7222 130.626 49.8765 130.501 49.9982C128.122 52.3156 127.856 52.3929 127.966 53.0356L128.501 56.1537C128.531 56.3258 128.512 56.5028 128.446 56.6646C128.38 56.8264 128.27 56.9666 128.129 57.0693C127.988 57.1719 127.82 57.2329 127.646 57.2455C127.472 57.258 127.298 57.2215 127.143 57.1401C124.202 55.5935 124.048 55.3646 123.471 55.6674L120.67 57.1401C120.515 57.2215 120.341 57.258 120.167 57.2455C119.993 57.2329 119.825 57.1719 119.684 57.0693C119.543 56.9666 119.433 56.8264 119.367 56.6646C119.302 56.5028 119.282 56.3258 119.312 56.1537C119.873 52.8806 120.044 52.6612 119.578 52.2066L117.313 49.9986C117.188 49.877 117.099 49.7226 117.057 49.5531C117.015 49.3836 117.021 49.2057 117.075 49.0396C117.129 48.8735 117.228 48.7258 117.362 48.6133C117.495 48.5008 117.658 48.428 117.831 48.4031C121.119 47.9279 121.378 48.0201 121.666 47.4359L123.067 44.5986C123.144 44.4419 123.263 44.3098 123.412 44.2175C123.56 44.1251 123.731 44.0762 123.906 44.0762C124.081 44.0762 124.252 44.1251 124.4 44.2175C124.548 44.3098 124.668 44.4419 124.745 44.5986Z" fill="#088542"/>
<path d="M52.6997 83.2781C54.1685 86.257 54.1618 86.5339 54.8065 86.6271L57.938 87.0821C58.1108 87.107 58.2733 87.1798 58.4069 87.2923C58.5405 87.4048 58.6398 87.5525 58.6938 87.7186C58.7477 87.8847 58.754 88.0626 58.7119 88.2321C58.6699 88.4016 58.5812 88.5559 58.4559 88.6776C56.077 90.9951 55.8111 91.0723 55.921 91.7151L56.4572 94.8331C56.4869 95.0054 56.4678 95.1826 56.402 95.3445C56.3362 95.5065 56.2263 95.6467 56.0849 95.7494C55.9434 95.8521 55.776 95.9131 55.6016 95.9255C55.4272 95.9379 55.2529 95.9012 55.0983 95.8195C52.1583 94.273 52.0033 94.044 51.4258 94.3469L48.625 95.8195C48.4705 95.9009 48.2962 95.9374 48.122 95.9249C47.9478 95.9124 47.7806 95.8514 47.6393 95.7487C47.4979 95.6461 47.3882 95.5059 47.3224 95.3441C47.2566 95.1823 47.2375 95.0053 47.2671 94.8331C47.8282 91.56 47.9986 91.3406 47.5335 90.8861L45.2679 88.6781C45.1426 88.5564 45.0539 88.4021 45.0119 88.2326C44.9698 88.0631 44.9761 87.8852 45.03 87.7191C45.084 87.5529 45.1833 87.4053 45.3169 87.2928C45.4505 87.1803 45.613 87.1074 45.7858 87.0826C49.0743 86.6074 49.3335 86.6995 49.621 86.1154L51.0221 83.2781C51.0992 83.1214 51.2187 82.9894 51.3671 82.8971C51.5154 82.8049 51.6866 82.756 51.8612 82.7561C52.0359 82.7562 52.2071 82.8052 52.3553 82.8977C52.5035 82.9901 52.6228 83.1222 52.6997 83.2791V83.2781Z" fill="#088542"/>
<path d="M36.1841 136.123C37.6529 139.101 37.6462 139.378 38.2908 139.472L41.4224 139.927C41.5952 139.951 41.7577 140.024 41.8912 140.137C42.0248 140.249 42.1242 140.397 42.1781 140.563C42.2321 140.729 42.2384 140.907 42.1963 141.077C42.1543 141.246 42.0656 141.4 41.9403 141.522C39.5614 143.84 39.2955 143.917 39.4054 144.56L39.9406 147.678C39.9702 147.85 39.9511 148.027 39.8853 148.189C39.8195 148.35 39.7098 148.491 39.5684 148.593C39.4271 148.696 39.2599 148.757 39.0857 148.769C38.9115 148.782 38.7372 148.745 38.5827 148.664C35.6417 147.117 35.4876 146.888 34.9102 147.191L32.1094 148.664C31.9549 148.745 31.7806 148.782 31.6064 148.769C31.4322 148.757 31.2649 148.696 31.1236 148.593C30.9823 148.491 30.8726 148.35 30.8068 148.189C30.741 148.027 30.7219 147.85 30.7515 147.678C31.3126 144.404 31.483 144.185 31.0179 143.731L28.7523 141.523C28.627 141.401 28.5383 141.247 28.4962 141.077C28.4542 140.908 28.4605 140.73 28.5144 140.564C28.5683 140.397 28.6677 140.25 28.8013 140.137C28.9349 140.025 29.0973 139.952 29.2702 139.927C32.5587 139.452 32.8179 139.544 33.1054 138.96L34.5065 136.123C34.5835 135.966 34.703 135.834 34.8512 135.741C34.9995 135.649 35.1706 135.6 35.3453 135.6C35.52 135.6 35.6912 135.649 35.8394 135.741C35.9877 135.834 36.1071 135.966 36.1841 136.123Z" fill="#088542"/>
<path d="M180.814 120.111C176.482 116.423 172.937 119.222 173.286 117.551C174.65 111.016 167.68 106.769 160.527 107.953C158.875 108.227 158.158 109.493 157.593 108.617C155.09 104.739 151.443 103.73 147.134 104.568C143.983 105.181 142.949 106.527 142.359 107.39C143.052 114.256 143.141 121.295 142.823 128.05L151.431 128.074C183.317 128.13 182.993 128.878 183.305 125.404C183.508 123.138 182.423 121.48 180.815 120.112L180.814 120.111H180.814ZM167.877 120.317C167.194 119.446 166.432 117.37 163.102 116.993C157.381 116.348 162.324 115.078 165.209 115.606C167.318 115.991 168.833 117.688 169.18 119.708C169.316 120.502 168.45 121.049 167.877 120.317Z" fill="#088542"/>
<path d="M161.97 81.7024C158.855 79.0499 156.307 81.0635 156.559 79.8621C157.54 75.1663 152.529 72.1111 147.386 72.9635C146.199 73.1608 145.682 74.0704 145.276 73.4426C143.477 70.6552 140.855 69.928 137.757 70.5314C133.892 71.284 134.457 73.5707 133.481 73.0423C132.163 72.3271 130.813 72.0443 129.557 72.1058C133.442 76.5127 136.196 81.8599 138.154 87.4226L140.846 87.4283C163.768 87.4687 163.535 88.0067 163.759 85.5093C163.905 83.8807 163.125 82.6864 161.969 81.7029L161.97 81.7024ZM152.668 81.8507C152.178 81.2243 151.631 79.7335 149.237 79.4613C145.124 78.9957 148.677 78.0842 150.752 78.4634C152.267 78.7403 153.356 79.9591 153.606 81.413C153.703 81.9818 153.081 82.3763 152.668 81.8507Z" fill="#088542"/>
<path d="M83.3737 65.2086C83.1723 65.0282 82.9653 64.8542 82.753 64.6868C75.2002 58.742 72.723 62.4001 72.1686 60.0539C70.9858 55.0523 64.7655 52.2256 58.9882 55.36C57.6322 56.0963 58.4175 52.9134 53.0415 51.8675C48.7321 51.0294 45.0841 52.0388 42.5818 55.9172C42.0169 56.7932 41.2978 55.5265 39.6476 55.2534C32.4941 54.0697 25.525 58.3167 26.8887 64.8515C27.2382 66.5252 23.6943 63.7235 19.3618 67.4113C17.7529 68.7798 16.669 70.4392 16.8721 72.7048C17.1831 76.178 16.8596 75.4283 48.745 75.3726C59.2518 75.3544 66.8305 75.3092 72.2981 75.2156C75.2847 71.0742 78.9428 67.6383 83.3737 65.2105V65.2086ZM37.0729 64.2952C33.7402 64.6715 32.9809 66.7465 32.2983 67.6192C31.7237 68.3526 30.8593 67.803 30.9951 67.01C31.3417 64.9878 32.8585 63.2924 34.9661 62.9075C37.8514 62.3809 42.7935 63.6496 37.0729 64.2952ZM65.0386 62.7342C64.8317 63.0472 61.6469 61.4579 59.1812 63.7878C57.5597 65.319 57.1119 60.9064 61.8087 60.892C64.0321 60.8852 65.3545 62.2547 65.0386 62.7342Z" fill="#088542"/>
<path d="M146.895 139.756C145.994 137.909 143.136 137.354 141.141 137.492C139.528 137.603 140.153 138.222 140.684 128.67C142.156 102.191 137.078 68.8368 111.114 63.9398C110.444 63.8136 110.306 63.5817 110.292 62.9428C110.165 57.5985 107.277 50.8982 102.208 50.6702C96.5223 50.4134 93.4781 56.9174 93.6187 62.6611C93.6869 65.4288 89.6007 62.6284 80.6251 69.3268C70.104 77.1792 65.1725 92.9203 63.5664 108.735C63.8746 109.284 64.1304 109.87 64.3267 110.485C64.9637 110.496 65.6194 110.564 66.2842 110.686C68.1063 89.7096 75.5775 67.7188 96.6317 66.071C102.42 65.6169 111.915 65.9865 117.6 68.7955C137.426 78.5947 139.547 114.462 137.852 136.705C137.804 137.34 137.623 137.457 137.037 137.452C66.1522 136.919 66.2175 138.488 66.1483 137.065C65.9923 133.886 65.8791 131.192 65.8018 128.884C64.9839 128.903 64.1127 128.918 63.1839 128.933C63.3523 131.688 63.6063 134.319 63.9298 136.772C64.08 137.912 63.2232 137.168 61.2898 137.466C59.6779 137.714 58.0426 137.985 57.1978 139.677C55.9138 142.252 55.4376 144.93 56.2181 147.752C57.4584 152.235 60.9715 152.768 66.0624 152.781C93.1234 152.848 93.7954 151.568 93.6029 153.005C91.5557 168.287 115.104 167.846 111.957 152.485C118.822 152.485 137.395 153.482 142.745 152.502C148.6 151.43 149.437 144.964 146.895 139.756H146.895ZM107.58 63.4512C101.814 62.7158 97.9181 63.4416 96.1507 63.5299C95.4144 63.5664 95.6559 63.1555 95.6746 62.8185C96.4349 49.4611 107.1 49.2244 108.235 62.2756C108.235 63.1137 108.409 63.5568 107.579 63.4516L107.58 63.4512ZM107.091 161.371C102.973 164.248 95.8968 162.293 95.4279 155.148C95.3827 154.467 95.4864 153.775 95.4855 153.087C95.4835 151.609 96.6634 152.767 109.31 152.478C111.159 152.436 111.439 158.333 107.092 161.371H107.091ZM145.241 148.678C144.248 151.146 138.996 150.6 105.289 150.106C61.5149 149.463 59.1706 153.106 58.1381 145.748C57.9072 144.1 58.2567 142.541 59.016 141.039C59.4653 140.151 60.1642 139.869 61.0421 139.736C62.0938 139.576 142.833 139.799 142.856 139.801C146.321 140.16 146.569 145.376 145.241 148.679V148.678Z" fill="#231F20"/>
<path d="M113.468 111.199C113.106 110.239 114.008 109.695 114.682 110.239C117.812 112.762 122.894 111.497 123.999 109.748C124.737 108.579 126.073 109.06 125.756 110.537C124.794 115.003 115.107 115.547 113.469 111.199L113.468 111.2V111.199Z" fill="#231F20"/>
<path d="M84.541 114.96C80.4768 114.874 78.5213 112.527 78.3931 110.907C78.3144 109.915 79.2903 109.42 80.0323 110.228C82.3546 112.754 86.6731 113.137 89.413 111.049C91.6296 109.359 91.6488 115.112 84.5405 114.961L84.541 114.96Z" fill="#231F20"/>
<path d="M118.483 94.4438C123.3 94.753 124.504 97.3368 123.653 98.1547C123.304 98.4907 122.997 98.1106 122.693 97.9747C118.555 96.1306 116.175 97.427 115.826 96.0979C115.53 94.9699 117.28 94.4386 118.483 94.4443V94.4438Z" fill="#231F20"/>
<path d="M84.5629 94.1374C85.7158 94.1086 87.4338 94.7216 87.14 95.7958C86.7531 97.2075 84.1818 95.6917 79.9006 97.8584C78.4261 98.6053 78.3013 94.2954 84.5634 94.137L84.5629 94.1374Z" fill="#231F20"/>
<path d="M109.917 124.889C109.891 127.083 107.675 127.308 106.978 125.566C105.908 122.889 109.398 120.376 109.917 124.889Z" fill="#231F20"/>
<path d="M39.037 126.984C7.15059 127.04 7.47459 127.79 7.16307 124.316C6.96003 122.051 8.04483 120.392 9.65283 119.023C13.9848 115.335 17.5291 118.136 17.1807 116.463C15.817 109.927 22.7866 105.68 29.9396 106.865C31.5893 107.138 32.3088 108.405 32.8738 107.53C35.376 103.651 39.0235 102.642 43.3335 103.48C48.7095 104.526 47.9242 107.709 49.2802 106.972C55.0575 103.838 61.2778 106.666 62.4605 111.666C63.0149 114.012 65.4922 110.355 73.045 116.299C74.376 117.347 78.4959 121.08 76.7415 125.304C76.2005 126.607 72.24 126.925 39.0379 126.983L39.037 126.984ZM25.2581 114.521C23.1514 114.906 21.6336 116.601 21.2871 118.623C21.1512 119.416 22.0157 119.966 22.5903 119.232C23.2728 118.36 24.0331 116.285 27.3648 115.908C33.0855 115.263 28.1434 113.993 25.2581 114.521ZM52.1007 112.505C47.4039 112.521 47.8517 116.933 49.4731 115.401C51.9389 113.071 55.1247 114.661 55.3306 114.348C55.6464 113.868 54.324 112.498 52.1007 112.505Z" fill="#088542"/>
</svg>
