<?xml version="1.0" standalone="no"?>
<!DOCTYPE svg PUBLIC "-//W3C//DTD SVG 20010904//EN"
 "http://www.w3.org/TR/2001/REC-SVG-20010904/DTD/svg10.dtd">
<svg version="1.0" xmlns="http://www.w3.org/2000/svg"
 width="192.000000pt" height="192.000000pt" viewBox="0 0 192.000000 192.000000"
 preserveAspectRatio="xMidYMid meet">

<g transform="translate(0.000000,192.000000) scale(0.100000,-0.100000)"
fill="#000000" stroke="none">
<path d="M1002 1705 c-52 -37 -66 -109 -32 -174 19 -38 41 -231 27 -231 -4 0
-15 17 -26 38 -22 43 -57 77 -89 87 -29 9 -199 -13 -232 -30 -15 -8 -54 -59
-90 -117 -50 -79 -65 -112 -66 -143 -1 -55 91 -349 128 -407 33 -52 88 -105
145 -141 34 -20 54 -28 138 -52 11 -3 37 -27 58 -53 80 -100 76 -97 93 -80 13
13 10 21 -32 71 -36 45 -44 60 -35 71 17 20 -6 33 -63 35 -95 3 -217 83 -273
178 -26 45 -113 302 -113 335 0 19 28 38 58 38 30 0 56 -29 98 -110 43 -82 52
-87 141 -89 49 -1 52 0 63 32 6 17 13 59 16 92 5 56 3 65 -36 138 -33 62 -45
77 -58 71 -10 -3 -38 -9 -63 -11 -38 -4 -51 -11 -70 -37 -12 -17 -29 -35 -37
-40 -12 -7 -112 -15 -112 -9 0 1 28 45 61 98 39 60 69 97 83 100 11 2 57 9
101 15 101 13 108 8 182 -120 65 -112 58 -104 77 -97 13 5 14 11 5 34 -7 15
-12 89 -13 163 -2 116 -5 142 -24 185 -15 32 -21 59 -17 77 7 28 38 58 62 58
7 0 29 -35 49 -77 48 -101 59 -231 33 -368 -9 -49 -15 -93 -12 -97 8 -14 32
-8 37 10 20 69 34 188 29 249 -10 125 27 213 91 213 52 -1 52 -4 -8 -244 -31
-124 -56 -228 -56 -231 0 -3 9 -5 19 -5 19 0 28 26 77 223 15 62 19 67 43 67
14 0 32 -4 40 -9 17 -11 16 -16 -53 -194 -33 -85 -46 -134 -46 -170 -1 -29 -7
-88 -16 -132 -8 -44 -17 -93 -20 -110 -5 -25 3 -42 48 -101 46 -62 56 -70 70
-60 15 11 11 19 -33 79 l-49 67 15 63 c8 34 18 105 23 157 7 77 19 121 62 235
30 77 53 148 52 158 -2 28 -21 46 -64 59 -36 10 -39 14 -34 37 21 85 19 107
-9 129 -44 35 -96 30 -141 -13 -42 -40 -35 -45 -84 50 -22 44 -29 50 -60 53
-20 1 -45 -4 -58 -13z m-167 -525 c10 -22 24 -45 32 -51 16 -14 17 -70 2 -122
-9 -33 -14 -38 -32 -33 -12 3 -33 6 -48 6 -19 0 -30 9 -47 43 -11 23 -31 59
-43 79 l-22 36 28 34 c18 22 40 35 64 39 20 3 39 7 42 8 3 0 14 -17 24 -39z"/>
</g>
</svg>
