<svg width="24" height="24" viewBox="0 0 24 24" fill="none" xmlns="http://www.w3.org/2000/svg">
<mask id="mask0_140_18119" style="mask-type:alpha" maskUnits="userSpaceOnUse" x="0" y="0" width="24" height="24">
<rect width="24" height="24" fill="#D9D9D9"/>
</mask>
<g mask="url(#mask0_140_18119)">
<path d="M15 17C13.7833 17 12.7208 16.6208 11.8125 15.8625C10.9042 15.1042 10.3333 14.15 10.1 13H4V11H10.1C10.1833 10.6167 10.2958 10.2583 10.4375 9.925C10.5792 9.59167 10.7667 9.28333 11 9H6V7H15C16.3833 7 17.5625 7.4875 18.5375 8.4625C19.5125 9.4375 20 10.6167 20 12C20 13.3833 19.5125 14.5625 18.5375 15.5375C17.5625 16.5125 16.3833 17 15 17ZM15 15C15.8333 15 16.5417 14.7083 17.125 14.125C17.7083 13.5417 18 12.8333 18 12C18 11.1667 17.7083 10.4583 17.125 9.875C16.5417 9.29167 15.8333 9 15 9C14.1667 9 13.4583 9.29167 12.875 9.875C12.2917 10.4583 12 11.1667 12 12C12 12.8333 12.2917 13.5417 12.875 14.125C13.4583 14.7083 14.1667 15 15 15ZM7 17V15H10V17H7Z" fill="#1C1B1F"/>
</g>
</svg>
