<svg width="192" height="193" viewBox="0 0 192 193" fill="none" xmlns="http://www.w3.org/2000/svg">
<path d="M5.06869 111.527C4.67029 112.199 4.69045 112.743 5.29237 112.838C7.16437 113.126 30.4204 112.669 34.1308 112.615C35.0562 112.615 35.0975 111.709 34.6713 110.831C31.5897 104.416 25.9794 94.5496 21.357 89.2648C21.0796 88.947 20.5458 88.778 20.0053 89.5009C14.5722 96.5245 9.58361 103.881 5.06869 111.527ZM21.8773 107.755C22.1106 109.579 19.1202 109.662 19.6338 107.675C19.6833 107.407 19.8274 107.166 20.0397 106.996C20.252 106.826 20.5184 106.737 20.7904 106.747C21.0623 106.757 21.3217 106.864 21.5213 107.049C21.7208 107.234 21.8472 107.485 21.8773 107.755ZM21.3637 103.464C21.3637 105.14 19.6943 105.87 19.7317 102.538C19.7317 100.936 19.7317 99.3342 19.8133 97.7377C19.8805 96.387 20.7186 96.387 21.0229 96.8536C21.5394 97.658 21.3599 102.186 21.3637 103.464ZM6.36661 111.663C10.3813 105.282 16.9036 95.8676 20.9173 90.555C25.5004 97.6235 29.5573 103.525 33.2725 111.209C24.6556 111.344 14.9903 111.567 6.36661 111.663Z" fill="#088542"/>
<path d="M162.198 37.6968C157.636 45.4488 152.134 54.8232 148.323 62.866C147.944 63.6561 148.187 64.1563 148.796 64.2177C150.428 64.4097 176.776 62.9198 180.561 62.724C181.473 62.676 181.574 61.7035 180.898 60.5745C176.189 52.5563 170.818 44.9458 164.841 37.8225C163.872 36.7032 163.232 35.94 162.198 37.6968ZM166.368 58.2964C166.398 58.5077 166.374 58.723 166.3 58.9228C166.225 59.1225 166.101 59.3002 165.939 59.4396C165.778 59.579 165.584 59.6755 165.375 59.7203C165.166 59.7651 164.95 59.7568 164.745 59.6961C163.394 59.3918 164.232 57.9518 164.265 57.851C164.59 56.8862 166.23 57.2702 166.368 58.2964ZM164.914 45.3883C165.21 46.8552 165.766 52.4107 165.814 53.9246C165.862 55.4385 164.225 55.6478 164.043 54.4584C163.745 52.4308 163.293 47.3409 163.603 45.4488C163.635 45.3022 163.714 45.1701 163.828 45.0732C163.942 44.9763 164.086 44.92 164.235 44.9131C164.385 44.9061 164.533 44.949 164.656 45.035C164.779 45.121 164.87 45.2452 164.914 45.3883ZM149.431 63.0139C153.878 54.3739 158.927 46.2868 163.434 38.1969C170.43 46.5172 173.971 52.1169 179.696 61.3924C170.314 61.8859 160.015 62.7105 149.431 63.0139Z" fill="#088542"/>
<path d="M175.512 73.8945C156.379 73.907 159.461 95.9477 174.16 97.0977C190.787 98.3947 191.814 73.8849 175.512 73.8945ZM183.007 80.9774C182.911 81.4161 179.229 85.0728 175.83 90.9873C175.722 91.1818 175.542 91.3257 175.329 91.3874C175.115 91.4491 174.886 91.4237 174.691 91.3166C174.519 91.2206 169.906 87.1742 168.24 85.6344C167.7 85.1342 168.396 84.0254 169.044 84.5323C171.031 86.0798 172.944 87.7224 174.89 89.3246C176.838 86.0867 179.078 83.0339 181.582 80.2046C181.711 80.0748 181.879 79.9903 182.06 79.9638C182.241 79.9374 182.425 79.9705 182.586 80.058C182.747 80.1456 182.875 80.283 182.95 80.4495C183.026 80.6159 183.046 80.8026 183.007 80.9813V80.9774Z" fill="#088542"/>
<path d="M152.966 145.686C137.941 146.449 136.961 171.781 154.804 170.875C172.646 169.97 171.484 144.744 152.966 145.686ZM160.082 163.853C159.218 163.853 155.169 160.169 154.257 159.379C153.141 160.494 150.553 163.219 149.526 163.948C149.395 164.038 149.236 164.077 149.078 164.06C148.92 164.042 148.774 163.969 148.666 163.852C148.558 163.736 148.495 163.585 148.489 163.426C148.483 163.267 148.535 163.112 148.634 162.988C150.025 161.345 151.505 159.779 153.067 158.297C151.836 157.21 149.268 155.074 148.505 153.864C148.121 153.262 148.945 152.735 149.458 153.019C151.117 154.304 152.71 155.674 154.23 157.121C154.973 156.372 158.447 152.675 159.257 152.255C159.846 151.951 160.447 152.735 160.184 153.269C159.826 153.979 156.129 157.493 155.453 158.197C157.084 159.427 158.647 160.745 160.137 162.143C160.744 162.837 161.42 163.851 160.082 163.851V163.853Z" fill="#088542"/>
<path d="M118.383 28.4103C118.64 34.1895 120.687 39.1499 128.371 39.603C129.945 39.7365 131.529 39.538 133.021 39.0204C134.512 38.5028 135.879 37.6777 137.031 36.5983C138.184 35.519 139.097 34.2096 139.712 32.755C140.326 31.3003 140.628 29.7328 140.598 28.154C140.536 22.274 137.591 17.498 129.784 17.1918C122.304 16.8999 118.095 21.9294 118.383 28.4103ZM133.298 33.3236L129.504 29.3569C127.915 30.8171 126.375 32.3377 124.733 33.7431C124.594 33.8324 124.428 33.8709 124.264 33.8521C124.1 33.8332 123.947 33.7583 123.832 33.6398C123.716 33.5213 123.646 33.3667 123.631 33.202C123.617 33.0373 123.66 32.8727 123.753 32.7361C124.496 31.7694 127.321 29.1678 128.389 28.1473C127.717 27.4167 124.598 24.3755 124.334 23.4836C124.287 23.3281 124.334 21.6923 126.446 23.8014C127.502 24.8574 128.534 25.9441 129.581 27.0116C130.608 25.9453 131.688 24.9324 132.819 23.9771C133.798 23.234 134.719 24.4033 133.623 25.4641C132.663 26.3895 131.697 27.2958 130.73 28.2078L134.542 32.1687C134.697 32.3342 134.78 32.5545 134.773 32.7812C134.765 33.0079 134.668 33.2223 134.503 33.3774C134.337 33.5324 134.117 33.6154 133.89 33.608C133.664 33.6006 133.449 33.5035 133.294 33.338L133.298 33.3236Z" fill="#088542"/>
<path d="M50.135 48.0657C49.8777 42.2942 46.4179 36.9297 37.1923 36.9297C30.1497 36.9297 26.0563 41.7959 26.3788 48.7569C26.7014 55.7178 31.3708 59.53 37.9699 59.8478C39.5695 59.9864 41.1803 59.7798 42.6932 59.2421C44.2061 58.7044 45.586 57.848 46.7393 56.731C47.8927 55.6139 48.7927 54.2622 49.3786 52.7672C49.9644 51.2723 50.2224 49.669 50.135 48.0657ZM44.375 44.5982C42.7564 46.1159 41.1782 47.6798 39.575 49.2215C40.5215 50.3226 41.3932 51.4986 42.4137 52.5326C44.2454 54.4113 42.7785 55.5873 41.9951 54.6618C40.7849 53.2353 39.5727 51.8068 38.3587 50.3764C37.0188 51.7485 35.5922 53.033 34.0876 54.2222C33.5673 54.5735 32.8636 53.8305 33.2294 53.3303C34.4948 51.8483 35.849 50.4445 37.2844 49.1265C36.2841 47.937 33.2294 44.4426 32.5939 43.3665C32.1407 42.5822 33.1948 42.082 33.7017 42.5687C35.3644 44.1777 36.9599 46.1918 38.4806 47.9754C40.0483 46.4548 41.6025 44.9034 43.2115 43.4202C44.5795 42.1521 44.9971 44.0164 44.3769 44.5991L44.375 44.5982Z" fill="#088542"/>
<path d="M60.698 82.125C53.8522 82.125 50.7025 87.2476 51.4119 93.8034C52.1213 100.359 55.4669 102.59 61.4353 102.59C67.4036 102.59 71.1313 99.2514 71.066 93.1276C71.0007 87.0037 66.842 82.125 60.698 82.125ZM64.634 96.6018C63.962 96.3992 61.9306 93.574 61.2068 92.7695C59.8551 93.9656 58.5716 95.1964 57.1997 96.3445C56.5911 96.8514 55.6637 95.9125 56.233 95.3375C57.481 94.0472 58.825 92.8415 60.1258 91.6002C59.1506 90.6961 58.2654 89.6995 57.4829 88.6242C57.4157 88.4418 57.4829 86.9279 59.3895 88.6242C60.0615 89.2252 60.6663 89.8808 61.3095 90.5029L63.3908 88.5762C63.9793 88.0357 65.5028 87.2245 65.3242 88.5762C65.2426 89.2482 63.2017 90.9215 62.3837 91.6789C62.9453 92.3144 65.4557 95.0581 65.425 95.9231C65.4277 96.0231 65.408 96.1224 65.3673 96.2137C65.3267 96.3051 65.2662 96.3863 65.1902 96.4513C65.1143 96.5164 65.0247 96.5636 64.9282 96.5897C64.8316 96.6157 64.7304 96.6198 64.6321 96.6018H64.634Z" fill="#088542"/>
<path d="M91.8145 90.5802C89.6449 90.5802 87.0836 90.3709 85.9277 92.6077C85.658 93.1146 86.4817 93.514 86.7917 93.0676C87.9207 91.473 91.0973 91.8714 92.9492 91.8714C95.3052 91.9428 97.6633 91.8787 100.012 91.6794C100.116 91.66 100.21 91.6047 100.278 91.5232C100.346 91.4417 100.383 91.339 100.383 91.233C100.383 91.127 100.346 91.0243 100.278 90.9428C100.21 90.8613 100.116 90.806 100.012 90.7866C99.3946 90.4737 92.5124 90.5802 91.8145 90.5802ZM87.1441 86.9245C87.2187 86.836 87.3229 86.7774 87.4374 86.7596C87.5519 86.7418 87.6689 86.766 87.7669 86.8278C87.865 86.8896 87.9373 86.9847 87.9707 87.0956C88.0041 87.2066 87.9962 87.3258 87.9485 87.4314C87.4326 88.6051 86.7843 89.716 86.0161 90.7425C84.1373 93.6762 81.6701 97.2378 79.0541 99.4343C78.6356 99.7857 78.0673 99.13 78.4196 98.7623C80.074 96.9567 81.624 95.0583 83.0621 93.0762C84.0154 91.7092 86.7485 87.2202 87.1441 86.9245ZM89.1716 100.157C87.9754 99.6973 88.6781 102.144 84.7047 104.361C84.5997 104.424 84.5209 104.523 84.4829 104.639C84.4449 104.755 84.4502 104.882 84.4979 104.994C84.5456 105.107 84.6324 105.199 84.7424 105.253C84.8523 105.307 84.9781 105.319 85.0964 105.287C86.0945 104.884 87.0009 104.283 87.7615 103.521C88.5221 102.759 89.1212 101.852 89.5229 100.853C89.553 100.718 89.5342 100.576 89.4699 100.453C89.4056 100.33 89.3 100.234 89.1716 100.181V100.157ZM97.2413 96.6628C97.3565 97.2714 97.7213 98.8938 96.8708 98.9005C96.1537 98.9005 96.2477 97.6833 96.1988 97.2781C96.1755 96.5852 95.9527 95.9136 95.5571 95.3442C95.1615 94.7747 94.61 94.3316 93.9687 94.0679C92.5945 93.686 91.1551 93.5984 89.7447 93.8106C89.6397 93.8101 89.5385 93.7714 89.4599 93.7018C89.3813 93.6323 89.3307 93.5365 89.3174 93.4324C89.3042 93.3282 89.3292 93.2228 89.3878 93.1358C89.4465 93.0487 89.5347 92.9859 89.6362 92.9591C91.2948 92.5005 93.0552 92.5717 94.6714 93.1626C95.3507 93.4978 95.9403 93.9902 96.3911 94.599C96.8419 95.2077 97.1409 95.9152 97.2634 96.6628H97.2413ZM94.9575 96.6695C95.3738 97.5578 95.4754 98.5613 95.2455 99.5149C95.0362 100.867 94.2999 100.61 94.178 100.34C93.7661 99.394 94.6983 98.914 93.8602 97.1293C92.9684 95.2237 91.2682 95.5146 89.4673 95.5818C89.3528 95.5797 89.2428 95.5368 89.1572 95.4607C89.0716 95.3846 89.016 95.2804 89.0004 95.167C88.9849 95.0535 89.0105 94.9382 89.0725 94.842C89.1345 94.7457 89.2289 94.6747 89.3386 94.642C91.6993 94.1418 93.8506 94.3242 94.9575 96.6695ZM92.8455 98.9677C92.1293 96.5956 91.6493 97.0477 88.7905 97.1562C88.6578 97.1562 88.5306 97.2089 88.4368 97.3027C88.343 97.3965 88.2903 97.5237 88.2903 97.6564C88.2903 97.789 88.343 97.9162 88.4368 98.01C88.5306 98.1038 88.6578 98.1565 88.7905 98.1565C89.6163 98.0646 90.4508 98.0853 91.2711 98.218C91.6225 98.3188 92.0007 100.124 91.7847 100.921C91.6266 101.343 91.358 101.714 91.0071 101.996C90.2391 102.764 92.2551 103.307 92.9338 101.4C93.1657 100.601 93.1358 99.7487 92.8484 98.9677H92.8455Z" fill="#231F20"/>
<path d="M94.7346 101.349C94.0626 101.253 94.0626 102.363 93.8898 103.377C93.7938 103.999 93.5721 104.803 93.8898 105.141C94.5618 105.813 94.8901 104.586 95.0178 103.413C95.0793 102.906 95.4172 101.459 94.7068 101.386L94.7346 101.349ZM104.392 105.351C104.296 103.701 104.217 90.2248 105.244 90.0155C106.122 89.7756 106.893 89.2429 107.427 88.5054C107.962 87.768 108.229 86.8702 108.183 85.9605C108.251 82.6418 106.291 83.5883 105.926 84.2709C105.041 85.9202 102.758 79.7694 102.758 76.3365C96.2226 75.1845 87.9916 74.0114 85.1903 67.0504C83.7369 63.4475 92.2665 61.4949 105.033 71.9838C112.826 68.3954 110.44 76.0389 107.655 82.5342C110.312 83.2773 110.156 89.9003 105.979 91.2117C105.452 96.2536 105.547 100.593 105.392 105.297C105.392 106.08 104.418 106.202 104.378 105.384L104.392 105.351ZM90.3071 74.7074C89.3279 77.0526 88.3343 86.069 88.4965 88.8126C88.4965 89.2725 89.2799 89.3397 89.3135 88.8664C89.5573 85.0485 90.2869 78.4024 91.341 74.9099C91.4898 74.403 90.5375 74.2379 90.3417 74.7074H90.3071ZM102.121 94.3874C101.449 93.844 101.195 94.7925 99.9993 95.6354C99.1074 96.2574 97.9717 96.5349 98.1753 97.1157C98.4633 97.852 99.6757 97.251 100.73 96.4802C101.148 96.1864 102.888 95.0056 102.121 94.3874Z" fill="#231F20"/>
<path d="M107.561 105.626C104.698 107.691 101.386 109.049 97.8969 109.587C95.6812 109.918 95.6198 109.425 94.4227 107.68C94.0051 107.059 93.599 106.424 93.1747 105.795C93.1127 105.683 93.0087 105.6 92.8857 105.565C92.7626 105.529 92.6306 105.544 92.5185 105.606C92.4065 105.668 92.3237 105.772 92.2883 105.895C92.2529 106.018 92.2679 106.15 92.3299 106.262C92.9066 107.581 93.6566 108.818 94.56 109.938C93.3338 111.085 92.2036 112.331 91.1808 113.662C90.3235 111.835 89.7167 109.9 89.3769 107.911L90.5289 107.458C90.666 107.409 90.7783 107.308 90.841 107.177C90.9038 107.046 90.9119 106.895 90.8635 106.758C90.8151 106.621 90.7143 106.509 90.5831 106.446C90.4519 106.383 90.3012 106.375 90.1641 106.424C88.3056 107.005 86.4537 107.776 84.6288 108.452C85.3008 106.244 85.1501 106.032 84.0614 105.43C80.0064 103.2 78.2764 101.788 76.5532 99.3476C76.175 98.8206 75.6 99.5972 75.9312 100.125C77.7696 103.051 79.8374 104.917 83.8521 106.836C83.3452 108.404 82.8451 109.981 82.3516 111.566C78.4521 110.56 76.7011 109.621 73.9305 106.512C73.8537 106.422 73.7459 106.364 73.6284 106.349C73.5108 106.335 73.3921 106.365 73.2957 106.434C73.1992 106.502 73.1321 106.605 73.1074 106.721C73.0828 106.836 73.1024 106.957 73.1625 107.059C74.1704 108.548 75.4679 109.819 76.9776 110.795C78.4872 111.772 80.1781 112.435 81.9494 112.743C79.5974 120.238 76.9344 127.957 74.9884 135.519C74.8656 136.005 75.6604 136.287 75.8332 135.807C78.9417 127.455 81.5433 118.323 84.1996 109.76C85.625 109.397 87.0142 108.904 88.3497 108.287C88.492 110.287 89.0198 112.24 89.904 114.038C91.1212 116.546 91.8028 113.87 95.3107 110.834C95.9827 111.916 98.4787 116.627 99.5692 116.781C102.161 117.14 109.146 111.227 110.897 109.144C114.353 111.172 121.712 115.349 123.915 118.755C127.605 124.432 132.923 167.538 116.603 167.478C105.275 167.431 93.5692 160.834 83.519 156.258C83.8377 152.324 84.8826 148.484 86.6006 144.93C86.8512 144.354 86.1273 144.119 85.8028 144.613C83.7904 148.021 82.6808 151.887 82.5792 155.845C80.8489 155.073 79.078 154.396 77.2742 153.817C77.5037 150.119 79.3017 143.794 81.2102 141.786C92.2918 143.442 103.186 146.172 113.739 149.938C114.192 150.1 114.456 149.301 114.058 149.059C112.497 148.285 110.868 147.658 109.191 147.186C108.746 140.292 109.15 133.368 110.393 126.572C110.408 126.519 110.413 126.463 110.406 126.409C110.4 126.354 110.382 126.301 110.355 126.252C110.328 126.204 110.292 126.162 110.249 126.127C110.205 126.093 110.156 126.068 110.102 126.053C110.049 126.038 109.994 126.034 109.939 126.04C109.884 126.047 109.831 126.064 109.782 126.091C109.734 126.118 109.692 126.154 109.658 126.197C109.623 126.241 109.598 126.291 109.583 126.344C108.171 129.8 107.982 142.693 108.32 146.896C105.386 145.93 82.2307 139.807 80.6092 140.944C78.4732 142.418 76.1932 149.642 76.27 153.785C76.27 154.678 76.8576 154.766 77.5545 155.056C86.8128 158.929 104.555 168.451 116.077 168.777C116.254 170.418 116.423 174.135 116.578 175.346C116.652 175.934 117.504 175.738 117.476 175.154C117.395 173.234 117.524 170.606 117.322 168.775C133.38 168.247 129.352 126.046 125.432 118.842C122.675 113.78 111.786 108.434 111.523 108.186C111.26 107.939 108.144 105.239 107.562 105.658L107.561 105.626ZM74.5123 100.456C74.9184 99.841 75.6144 100.456 75.2294 101.128C70.3564 108.772 54.3523 134.786 58.9756 143.91C59.8197 145.469 61.1009 146.747 62.6619 147.588C64.2228 148.428 65.9954 148.794 67.7616 148.641C67.893 148.635 68.0217 148.68 68.1209 148.766C68.2202 148.853 68.2824 148.974 68.2948 149.105C68.3071 149.236 68.2686 149.367 68.1872 149.47C68.1058 149.573 67.9878 149.641 67.8576 149.66C65.8128 149.991 63.7159 149.645 61.8859 148.675C60.0559 147.704 58.593 146.163 57.72 144.284C52.9353 134.423 69.2092 108.518 74.5488 100.455L74.5123 100.456ZM72.096 154.734C72.0884 154.635 72.0467 154.542 71.9781 154.471C71.9095 154.4 71.8182 154.354 71.7199 154.343C71.6216 154.332 71.5224 154.355 71.4393 154.409C71.3562 154.462 71.2945 154.543 71.2646 154.638C70.4131 157.518 70.751 167.022 71.758 169.851C71.9337 170.331 72.7248 170.263 72.6633 169.722C72.0911 164.748 71.9014 159.737 72.096 154.734ZM90.24 164.871C90.3955 165.176 90.144 167.487 90.4896 171.502C90.5299 171.995 89.8176 172.022 89.6582 171.575C89.4019 170.684 88.8681 165.771 89.4556 164.817C89.4998 164.752 89.5599 164.699 89.6302 164.663C89.7006 164.628 89.7788 164.611 89.8575 164.615C89.9361 164.618 90.0126 164.642 90.0795 164.683C90.1465 164.725 90.2017 164.782 90.24 164.851V164.871ZM93.768 114.42C93.8889 113.946 94.775 113.878 94.6934 114.42C93.4972 123.137 92.8886 132.295 92.0918 140.291C92.0304 140.878 91.1654 140.724 91.1923 140.149C91.4294 135.566 92.6121 118.982 93.768 114.399V114.42ZM109.955 108.337C106.027 112.257 103.817 113.932 99.9705 115.67C98.9491 114.109 97.943 112.541 96.9148 110.987C100.294 110.987 105.29 108.756 107.966 106.877L109.955 108.337Z" fill="#231F20"/>
<path d="M94.9709 88.2283C94.4262 88.2162 93.8873 88.1137 93.3763 87.925C93.8832 86.9179 94.3968 85.8974 94.9037 84.8971C94.9324 84.8102 94.9315 84.7163 94.901 84.63C94.8706 84.5437 94.8123 84.4699 94.7354 84.4204C94.6584 84.3708 94.5672 84.3482 94.476 84.3561C94.3848 84.364 94.2989 84.4021 94.2317 84.4642C93.6365 85.6162 93.0489 86.7682 92.4403 87.9106C91.9536 88.837 94.5216 89.1144 94.9545 89.1278C95.0661 89.1185 95.1703 89.0681 95.2469 88.9864C95.3234 88.9047 95.367 88.7974 95.369 88.6854C95.371 88.5735 95.3314 88.4647 95.2579 88.3803C95.1843 88.2958 95.0821 88.2417 94.9709 88.2283ZM93.6192 77.4149C89.4691 78.3749 90.8553 79.7669 91.5917 79.476C92.3062 79.1808 93.0416 78.9392 93.792 78.7531C94.6838 78.5611 94.2653 77.2594 93.6096 77.4014L93.6192 77.4149ZM96.3225 79.9022C96.2004 79.9855 96.1085 80.1061 96.0607 80.246C96.0129 80.3859 96.0118 80.5375 96.0574 80.6781C96.1031 80.8187 96.193 80.9407 96.3139 81.0258C96.4347 81.1109 96.5799 81.1546 96.7277 81.1502C97.7542 80.9219 98.8099 80.8535 99.8573 80.9477C100.635 81.0158 100.384 79.9675 99.8573 79.8466C99.6067 79.8418 97.8585 78.8078 96.3225 79.9022ZM92.5104 82.3896C93.1766 83.6856 91.7875 85.2216 91.4093 84.2818C90.9494 83.1326 92.0304 81.4536 92.5104 82.3896ZM98.6544 83.5176C98.4989 82.5106 96.9043 83.5176 97.5024 85.2888C97.8403 86.2075 98.9424 85.1534 98.6851 83.5109L98.6544 83.5176Z" fill="#231F20"/>
<path d="M75.1824 152.106C74.0304 151.078 71.9308 151.477 70.5993 152.394C70.1808 150.366 70.0454 143.37 72.2313 142.073C73.3132 141.401 74.6784 141.743 75.6105 141.628C76.0838 141.574 76.3411 140.811 75.8025 140.621C75.131 140.395 74.4209 140.305 73.7141 140.357C73.0073 140.409 72.318 140.602 71.687 140.925C68.9088 142.48 68.6793 149.63 69.479 152.597C69.4959 152.814 69.5735 153.022 69.7031 153.198C69.8327 153.373 70.009 153.509 70.2119 153.589C70.4148 153.669 70.6361 153.69 70.8506 153.651C71.0651 153.611 71.2641 153.512 71.4249 153.365C72.7363 152.48 73.7366 152.838 74.8041 152.838C75.142 152.838 75.4761 152.379 75.1488 152.116L75.1824 152.106ZM78.9264 138.325C80.5795 139.855 79.2508 140.495 78.4195 139.562C76.7433 137.683 76.6348 138.088 74.2291 139.143C73.8979 139.285 72.5395 138.643 75.1824 137.568C76.8585 136.885 77.4912 136.996 78.9264 138.325Z" fill="#231F20"/>
<path d="M168.632 109.277C168.707 108.202 174.104 100.491 175.249 100.445C176.394 100.399 182.545 107.717 182.291 108.636C182.176 109.055 179.358 109.366 176.317 109.515C176.509 113.57 177.587 128.087 177.391 130.52C177.303 131.547 169.321 130.317 153.641 130.649C153.763 133.548 154.196 139.941 154.115 142.138C154.124 142.229 154.115 142.32 154.088 142.407C154.061 142.494 154.017 142.575 153.958 142.645C153.899 142.715 153.827 142.772 153.746 142.813C153.664 142.854 153.576 142.878 153.485 142.884C153.394 142.89 153.302 142.877 153.216 142.847C153.13 142.817 153.051 142.77 152.984 142.709C152.917 142.647 152.862 142.573 152.824 142.49C152.786 142.407 152.765 142.317 152.763 142.226C152.032 137.198 150.871 89.4013 151.256 84.9949C147.038 84.8461 130.629 85.1034 128.504 84.4948C127.625 84.2519 127.537 53.6625 127.598 50.2429C106.329 49.9117 85.1214 49.4183 63.6961 49.4653C63.7441 51.8788 64.4641 70.4893 63.8881 71.6135C63.5156 72.3364 41.5844 71.5117 38.9828 71.5252C39.0538 78.8071 39.1258 86.0884 39.1988 93.369C40.4084 93.2471 47.9348 92.8352 48.8775 93.0042C49.5495 93.1252 49.4986 94.234 48.8775 94.2743C45.6596 94.5047 42.4292 94.5181 39.2122 94.6391C39.1719 99.5053 39.1383 146.139 38.6247 146.68C38.1111 147.22 23.2964 146.727 14.571 147.024C12.4702 148.881 10.2229 150.565 7.85097 152.06C7.33737 152.252 6.95241 141.116 7.17897 140.636C7.49001 139.868 13.1127 144.157 14.7082 145.766C18.8036 145.509 33.3822 145.259 37.4842 145.637C37.6532 120.921 37.8759 96.2999 37.633 71.5703L21.7508 71.9428C21.7508 75.4497 21.602 84.8375 21.3111 86.2228C21.2865 86.3378 21.2216 86.4402 21.1282 86.5116C21.0347 86.5829 20.9188 86.6186 20.8014 86.6121C20.684 86.6056 20.5728 86.5574 20.4877 86.4762C20.4027 86.3949 20.3495 86.286 20.3377 86.169C20.162 84.6618 20.3377 74.9092 20.3377 71.9764C20.3377 71.0164 20.8177 70.6717 21.1354 70.6247C25.7242 70.2464 32.8273 70.1581 37.6263 70.1111C37.6263 67.7389 37.586 65.2583 37.5783 62.5818C37.5783 61.7908 38.7543 61.9098 38.7822 62.6903C38.8782 65.7181 38.9444 67.928 39.0049 70.1245C46.953 70.0663 54.9009 70.2103 62.8484 70.5565C62.8014 68.7249 62.3146 49.9098 62.4231 48.9297C62.4836 48.4026 62.7812 48.1933 63.3831 48.1866C84.4014 47.9159 106.637 48.1866 127.663 48.8586C127.634 46.6966 127.756 44.5352 128.028 42.3901C128.048 42.2568 128.117 42.1357 128.222 42.0502C128.326 41.9646 128.458 41.9205 128.593 41.9263C128.728 41.9321 128.856 41.9875 128.952 42.0817C129.049 42.176 129.107 42.3025 129.116 42.4372C129.239 44.5916 129.239 46.7512 129.116 48.9057C136.442 49.1485 142.904 49.4461 151.419 49.7908C152.318 49.8311 152.419 51.2375 151.515 51.1962L129.024 50.3092C128.875 60.9268 128.909 73.7274 129.748 83.3332C131.538 83.2045 150.793 83.0903 152.212 83.7594C152.82 84.0474 153.503 126.074 153.564 129.433C156.361 129.183 171.304 129.433 176.055 129.467L174.742 109.591C171.592 109.677 168.61 109.602 168.632 109.277Z" fill="#231F20"/>
</svg>
