<svg width="192" height="193" viewBox="0 0 192 193" fill="none" xmlns="http://www.w3.org/2000/svg">
<path d="M138.38 26.8661C134.053 21.6633 128.075 18.0983 121.44 16.764C114.946 15.4363 107.004 15.3154 101.099 18.6591C101.009 18.7084 100.932 18.7771 100.873 18.8602C100.813 18.9432 100.773 19.0385 100.756 19.1391C87.2073 25.0968 77.6966 48.8223 91.1769 66.1349C92.159 65.7816 93.0268 65.6443 94.0876 65.3016C93.2774 62.9727 93.4588 60.5083 92.6044 58.1899C91.918 56.3295 91.4649 54.3663 91.702 53.3496C91.8864 52.5624 93.6883 52.8255 94.3737 53.2584C95.9318 54.2424 96.2841 56.844 96.8159 58.8523C96.7939 58.3042 97.7865 57.6043 98.3462 57.5967C98.6236 57.6107 98.8938 57.6892 99.1356 57.8258C99.3774 57.9624 99.584 58.1535 99.7391 58.3839C100.032 58.694 100.254 59.0642 100.389 59.4687C100.366 59.2358 100.414 59.0014 100.525 58.7959C100.637 58.5905 100.809 58.4235 101.017 58.3167C101.265 58.1473 101.556 58.0538 101.857 58.0476C102.157 58.0415 102.452 58.123 102.707 58.2821C103.436 58.5931 103.551 58.6939 104.111 59.5378C104.031 58.7621 104.476 58.7506 105.252 58.8533C105.987 58.9865 106.641 59.3995 107.076 60.0053C109.935 63.3787 108.775 72.0696 107.168 76.0776C113.248 77.3062 119.561 76.5786 125.202 73.9991C130.843 71.4196 135.523 67.1205 138.571 61.7179C144.649 51.2674 146.426 36.7992 138.38 26.8661ZM129.054 32.3381C127.908 34.7909 126.016 36.7675 124.35 38.8911C113.412 52.8274 116.42 56.3631 113.118 58.525C112.888 58.6604 112.62 58.716 112.356 58.683C112.092 58.65 111.846 58.5303 111.657 58.3426C105.451 50.8373 100.765 46.7467 99.6019 44.9026C99.5253 44.767 99.4952 44.6102 99.5163 44.4559C99.5373 44.3017 99.6083 44.1586 99.7184 44.0485C99.8285 43.9385 99.9716 43.8675 100.126 43.8464C100.28 43.8254 100.437 43.8554 100.572 43.932C103.356 45.4565 110.428 53.2767 112.501 55.6671C113.123 54.301 113.461 48.7685 122.889 36.8779C124.354 34.8121 126.12 32.9768 128.128 31.4328C128.736 31.0123 129.304 31.7976 129.054 32.3343V32.3381Z" fill="#088542"/>
<path d="M60.3563 91.8531C59.8091 91.4816 59.0123 91.5008 58.9163 92.4233C58.8203 93.3459 60.0913 94.472 60.8113 93.8845C61.5313 93.2969 60.9035 92.2237 60.3563 91.8531Z" fill="#231F20"/>
<path d="M95.5951 60.3348C95.2783 58.4619 95.0594 55.3217 93.2661 54.2273C93.004 54.067 92.5615 54.2724 92.6613 54.6113C92.956 55.6251 93.5253 56.5188 93.8133 57.5451C94.48 60.4222 94.9531 63.3407 95.2293 66.2811C94.031 66.0384 92.7853 66.2529 91.7371 66.8824C90.689 67.5118 89.9142 68.5106 89.5653 69.6824C89.4539 70.2647 89.4772 70.8647 89.6335 71.4366C89.7897 72.0085 90.0748 72.5371 90.4667 72.9819C91.5198 74.4389 92.6922 75.8058 93.9717 77.0686C94.1637 77.252 94.5602 77.06 94.3941 76.795C92.2053 73.29 90.5541 72.3521 90.4437 70.676C90.4312 70.0809 90.5854 69.4942 90.8887 68.9821C91.192 68.47 91.6324 68.0528 92.1602 67.7777C93.1749 67.2161 94.1925 67.3438 95.2648 67.1268C95.2763 67.6177 95.2725 68.1086 95.2533 68.5995C95.2519 68.6711 95.2779 68.7405 95.326 68.7936C95.3741 68.8467 95.4405 68.8794 95.5119 68.8852C95.5833 68.8909 95.6542 68.8692 95.7101 68.8245C95.7661 68.7798 95.8028 68.7155 95.813 68.6446C96.2416 65.8842 96.1677 63.069 95.5951 60.3348Z" fill="#231F20"/>
<path d="M97.7412 60.918C97.779 60.7983 97.8516 60.6925 97.9499 60.6144C98.0481 60.5363 98.1675 60.4893 98.2927 60.4795C98.4178 60.4697 98.5431 60.4975 98.6523 60.5594C98.7615 60.6213 98.8498 60.7144 98.9057 60.8268C99.3293 61.6725 99.6953 62.5458 100.001 63.4409C100.273 64.4009 100.193 65.7449 100.846 66.5234C100.884 66.5696 100.933 66.6062 100.988 66.6301C101.043 66.6541 101.103 66.6648 101.163 66.6615C101.223 66.6581 101.281 66.6407 101.333 66.6108C101.385 66.5808 101.429 66.5391 101.462 66.4889C102.01 65.6479 101.647 64.399 101.394 63.5129C101.093 62.4399 100.644 61.4143 100.059 60.4659C99.6679 59.839 99.1227 59.1334 98.2884 59.2179C97.9325 59.2856 97.6134 59.4806 97.3908 59.7664C97.1682 60.0523 97.0573 60.4095 97.0788 60.7711C97.0644 61.1359 97.6971 61.3279 97.7412 60.918Z" fill="#231F20"/>
<path d="M101.611 60.7256C103.219 59.1829 103.627 62.9173 103.745 63.739C104.155 66.6267 103.841 66.8571 104.373 67.5176C104.407 67.5576 104.45 67.5893 104.499 67.6104C104.547 67.6314 104.6 67.6411 104.653 67.6389C104.705 67.6367 104.757 67.6226 104.803 67.5976C104.85 67.5725 104.89 67.5373 104.921 67.4945C105.51 66.7035 105.183 65.395 105.081 64.4696C105 63.2905 104.777 62.1255 104.419 60.9992C103.876 59.5256 102.176 58.748 101.097 60.2465C100.863 60.5681 101.313 61.0136 101.611 60.7256Z" fill="#231F20"/>
<path d="M105.253 61.1929C106.597 61.4406 106.574 63.6582 106.657 64.6854C106.849 67.1545 106.656 69.6385 106.086 72.0486C105.681 73.132 105.423 74.2645 105.318 75.4162C105.33 75.7244 105.707 76.0326 105.98 75.758C107.019 74.7193 107.272 73.0076 107.556 71.6146C107.882 69.9802 108.027 68.3148 107.99 66.6486C107.952 64.7286 108.079 60.2521 105.215 60.4393C104.761 60.469 104.876 61.1228 105.253 61.1929Z" fill="#231F20"/>
<path d="M95.6294 120.951C95.686 120.996 95.6976 121.008 95.6294 120.951V120.951Z" fill="#231F20"/>
<path d="M30.1621 164.193C31.5589 156.623 32.5986 148.833 31.4639 141.168C31.3823 140.62 30.4943 140.757 30.5039 141.294C30.8101 157.032 27.6988 167.529 24.8984 181.038C24.549 182.729 23.8338 184.68 23.8828 186.414C23.9317 188.124 25.5148 187.809 25.6175 186.881L25.7442 185.718C25.6204 184.854 28.7442 171.875 30.1621 164.193Z" fill="#231F20"/>
<path d="M112.113 110.734C111.218 101.626 110.304 92.2697 107.65 83.4866C107.374 82.5737 105.936 82.8012 106.154 83.7746C107.712 91.1214 108.89 98.5438 109.682 106.012C110.57 113.535 111.326 121.171 110.424 128.729C109.648 135.212 107.866 142.233 102.125 146.057C97.342 149.242 91.3727 151.204 85.8921 149.744C78.7343 147.836 76.8969 145.85 71.6457 140.863C71.5733 140.782 71.4724 140.733 71.3644 140.726C71.2563 140.718 71.1496 140.753 71.0666 140.822C70.9836 140.892 70.931 140.991 70.9197 141.099C70.9085 141.206 70.9395 141.314 71.0063 141.4C74.1119 145.663 77.6044 148.696 81.5539 150.328C81.7612 152.991 82.1234 155.64 82.6387 158.262C85.6665 179.291 84.0575 181.892 84.9897 187.29C85.0713 187.759 85.7903 187.714 85.9036 187.29C86.71 184.279 86.4479 180.967 86.326 177.882C85.9766 169.05 84.3388 155.957 82.9123 150.828C87.9926 152.495 93.7535 151.986 100.241 149.139C106.974 146.184 109.707 141.086 111.314 134.322C113.147 126.601 112.885 118.601 112.113 110.734Z" fill="#231F20"/>
<path d="M181.199 13.3718C180.357 10.917 178.425 8.05335 175.936 7.38999C174.212 7.04874 172.464 6.84267 170.708 6.77367C146.735 4.34007 129.3 5.50071 110.047 5.56407C109.933 5.5609 109.822 5.59275 109.727 5.65527C88.9257 6.29271 71.4095 5.01495 48.8639 8.46327C47.1522 8.72535 45.4079 8.79255 43.9785 9.95895C41.6812 11.8386 40.5925 14.7878 40.1548 17.7551C38.4901 29.0226 39.1161 55.894 39.8121 68.6678C40.1375 74.6438 40.2921 82.101 44.8463 85.9622C43.944 86.8323 43.3541 87.9759 43.1682 89.2156C42.1525 94.9353 45.4319 97.6751 47.278 101.852C48.0712 103.246 49.378 104.274 50.9193 104.718C51.0863 106.248 50.8623 107.795 50.2684 109.215C40.7701 110.175 35.1397 112.826 27.5164 117.834C23.5909 120.281 19.886 123.065 16.4437 126.155C10.1202 132.114 6.19191 140.06 7.79127 148.872C9.52503 158.427 16.9948 166.834 25.3017 171.486C26.0562 171.908 26.6063 170.854 25.9641 170.356C22.6578 167.79 19.2757 165.401 16.4437 162.285C9.33015 154.457 7.67895 145.632 9.84567 138.735C12.4549 130.432 19.6002 124.887 26.7973 120.082C30.5435 117.385 34.5791 115.115 38.829 113.314C47.0572 110.167 56.0553 109.954 64.7308 110.722C69.8562 111.177 75.5874 112.958 80.5065 114.523C85.3813 116.074 93.885 121.315 95.6889 121.521C95.6889 121.521 97.4505 121.975 96.4079 120.745C95.6226 119.818 93.0633 118.45 89.7983 116.932C89.9008 116.9 89.9934 116.842 90.0673 116.764C90.1413 116.686 90.1941 116.59 90.2207 116.486C90.4089 114.902 90.4205 113.302 90.2553 111.715C90.0114 95.3653 93.5433 84.2217 94.582 79.1817C94.5991 79.1168 94.5963 79.0483 94.5738 78.9851C94.5514 78.9219 94.5104 78.867 94.4562 78.8274C96.3964 78.9302 98.349 78.8274 100.289 78.8956C102.184 78.9638 104.263 79.4591 106.134 79.1836C106.228 79.1635 106.313 79.1135 106.377 79.041C106.441 78.9685 106.479 78.8774 106.487 78.7812C106.495 78.685 106.471 78.5889 106.42 78.5071C106.369 78.4253 106.293 78.3623 106.203 78.3273C104.39 77.589 102.048 77.7446 100.118 77.711C98.0714 77.6091 96.0195 77.7314 93.9993 78.0758C93.9177 78.0942 93.8449 78.1399 93.7927 78.2052C93.7405 78.2705 93.7121 78.3517 93.7121 78.4353C93.7121 78.5189 93.7405 78.6 93.7927 78.6653C93.8449 78.7307 93.9177 78.7763 93.9993 78.7948C93.0796 79.3209 88.701 95.4028 88.9545 112.448C88.966 113.277 88.9055 115.821 89.3538 116.717C82.7557 113.68 73.3727 110.274 68.2693 109.663C65.6773 109.352 63.0412 109.114 60.4041 108.991C59.9289 107.702 59.7193 106.33 59.7877 104.959C61.1692 105.151 62.6418 104.969 63.3493 103.783C64.5138 101.83 63.0911 99.3762 62.9845 97.3324C62.9818 97.248 62.9491 97.1673 62.8924 97.1047C62.8356 97.0422 62.7585 97.0018 62.6748 96.9909C62.591 96.9799 62.5061 96.9991 62.4352 97.0449C62.3643 97.0908 62.312 97.1603 62.2876 97.2412C61.5964 98.9625 62.8943 100.655 62.6073 102.401C62.1983 104.89 59.47 103.057 57.9618 103.634C57.8704 103.662 57.7905 103.719 57.7338 103.796C57.677 103.873 57.6464 103.966 57.6464 104.062C57.6464 104.158 57.677 104.251 57.7338 104.328C57.7905 104.405 57.8704 104.462 57.9618 104.49C58.3274 104.624 58.7009 104.734 59.0802 104.821C58.9132 105.769 58.9132 106.738 59.0802 107.686C59.1384 108.106 59.2185 108.522 59.3202 108.934C56.7469 108.846 54.1708 108.895 51.6028 109.082C51.7183 108.624 51.8023 108.158 51.8543 107.689C51.9875 106.779 51.968 105.853 51.7967 104.95C52.6032 105.171 53.4387 105.269 54.2745 105.238C56.7628 105.086 58.2105 102.099 57.1285 99.8274C58.5129 99.8274 59.734 98.277 58.7145 97.3382C58.6632 97.2904 58.5994 97.2584 58.5306 97.2458C58.4618 97.2331 58.3907 97.2405 58.3259 97.2669C58.2611 97.2934 58.2052 97.3378 58.1649 97.395C58.1245 97.4522 58.1013 97.5197 58.0981 97.5897C57.79 100.171 54.8994 97.4764 54.5596 96.2082C54.214 94.919 55.5052 93.2197 56.9116 94.3017C57.2533 94.5647 57.6066 93.9484 57.5164 93.5942C57.4002 93.1382 57.3109 92.6697 57.1852 92.2127C57.3946 92.0433 57.5892 91.8564 57.7669 91.654C58.7453 91.1349 59.6739 90.5272 60.5413 89.8386C61.3847 92.0756 62.7701 94.0683 64.5733 95.638C64.3336 95.7909 64.0638 95.8904 63.7821 95.9296C63.5005 95.9689 63.2138 95.947 62.9413 95.8655C62.8036 95.8273 62.6563 95.8454 62.5319 95.9158C62.4075 95.9862 62.3162 96.1031 62.278 96.2409C62.2398 96.3786 62.2579 96.5259 62.3283 96.6503C62.3987 96.7747 62.5156 96.866 62.6533 96.9042C63.2024 97.0588 63.7837 97.0574 64.332 96.9002C64.8804 96.743 65.3741 96.4363 65.758 96.0143C65.857 95.9139 65.9125 95.7785 65.9125 95.6375C65.9125 95.4965 65.857 95.3611 65.758 95.2607C62.398 92.4249 61.4841 89.4527 61.1346 89.3087C61.2489 89.206 61.3631 89.0918 61.4773 88.989C66.8088 89.2268 72.1498 89.1355 77.47 88.7154C81.6153 88.3708 85.7183 88.8921 90.0729 88.8182C90.1525 88.51 90.2207 88.1903 90.3013 87.8706C86.1733 87.8706 83.805 87.669 79.9698 87.551C76.7269 87.455 75.4713 88.2172 62.5045 87.8937C65.2655 84.5337 65.3452 80.5017 63.7717 78.1785C63.1785 77.2435 62.3148 76.5111 61.2954 76.0788C60.2759 75.6466 59.1491 75.5348 58.0645 75.7583C55.9055 76.3343 54.7122 78.3983 53.6351 80.1743C51.4885 83.7177 50.8405 83.6217 47.6303 84.478C46.9836 84.6429 46.3645 84.9016 45.7929 85.246C42.5865 82.727 41.7935 78.5452 41.3634 74.398C40.3612 64.726 39.9234 35.4921 40.8268 23.086C41.0188 20.4153 41.0812 17.326 42.1055 14.8214C42.6989 13.1151 43.803 11.6326 45.2677 10.5753C45.9253 10.1778 46.2143 10.1001 51.2495 9.37623C70.7865 6.56919 88.1749 7.47159 106.693 7.04823C132.368 6.46071 150.927 5.86455 173.69 8.41815C175.448 8.61495 176.705 8.86167 177.97 10.2671C179.777 12.2735 180.416 14.7186 180.871 17.3788C182.791 28.6108 183.772 62.4124 183.142 72.6748C182.942 75.9282 182.432 79.6588 180.493 82.3093C179.168 84.1228 177.104 84.4684 175.106 84.7861C167.169 86.0505 133.684 86.3807 117.207 87.0901C116.605 87.1161 115.742 87.2005 110.723 87.2822C110.769 87.5221 110.735 87.933 110.78 88.1615C110.876 88.1615 160.796 87.1852 167.172 86.8377C169.318 86.7196 171.476 86.5775 173.622 86.3231C175.594 86.2284 177.535 85.7841 179.352 85.0108C181.535 83.8857 182.698 81.3695 183.416 79.0175C184.48 75.526 184.541 71.7349 184.568 68.0821C184.635 59.0476 184.108 21.8601 181.199 13.3718Z" fill="#231F20"/>
</svg>
