<svg width="360" height="194" viewBox="0 0 360 194" fill="none" xmlns="http://www.w3.org/2000/svg">
<path d="M222.38 26.8661C218.053 21.6633 212.075 18.0983 205.44 16.764C198.946 15.4363 191.004 15.3154 185.099 18.6591C185.009 18.7084 184.932 18.7771 184.873 18.8602C184.813 18.9432 184.773 19.0385 184.756 19.1391C171.207 25.0968 161.697 48.8223 175.177 66.1349C176.159 65.7816 177.027 65.6443 178.088 65.3016C177.277 62.9727 177.459 60.5083 176.604 58.1899C175.918 56.3295 175.465 54.3663 175.702 53.3496C175.886 52.5624 177.688 52.8255 178.374 53.2584C179.932 54.2424 180.284 56.844 180.816 58.8523C180.794 58.3042 181.787 57.6043 182.346 57.5967C182.624 57.6107 182.894 57.6892 183.136 57.8258C183.377 57.9624 183.584 58.1535 183.739 58.3839C184.032 58.694 184.254 59.0642 184.389 59.4687C184.366 59.2358 184.414 59.0014 184.525 58.7959C184.637 58.5905 184.809 58.4235 185.017 58.3167C185.265 58.1473 185.556 58.0538 185.857 58.0476C186.157 58.0415 186.452 58.123 186.707 58.2821C187.436 58.5931 187.551 58.6939 188.111 59.5378C188.031 58.7621 188.476 58.7506 189.252 58.8533C189.987 58.9865 190.641 59.3995 191.076 60.0053C193.935 63.3787 192.775 72.0696 191.168 76.0776C197.248 77.3062 203.561 76.5786 209.202 73.9991C214.843 71.4196 219.523 67.1205 222.571 61.7179C228.649 51.2674 230.426 36.7992 222.38 26.8661ZM213.054 32.3381C211.908 34.7909 210.016 36.7675 208.35 38.8911C197.412 52.8274 200.42 56.3631 197.118 58.525C196.888 58.6604 196.62 58.716 196.356 58.683C196.092 58.65 195.846 58.5303 195.657 58.3426C189.451 50.8373 184.765 46.7467 183.602 44.9026C183.525 44.767 183.495 44.6102 183.516 44.4559C183.537 44.3017 183.608 44.1586 183.718 44.0485C183.828 43.9385 183.972 43.8675 184.126 43.8464C184.28 43.8254 184.437 43.8554 184.572 43.932C187.356 45.4565 194.428 53.2767 196.501 55.6671C197.123 54.301 197.461 48.7685 206.889 36.8779C208.354 34.8121 210.12 32.9768 212.128 31.4328C212.736 31.0123 213.304 31.7976 213.054 32.3343V32.3381Z" fill="#088542"/>
<path d="M144.356 91.8531C143.809 91.4816 143.012 91.5008 142.916 92.4233C142.82 93.3459 144.091 94.472 144.811 93.8845C145.531 93.2969 144.903 92.2237 144.356 91.8531Z" fill="#231F20"/>
<path d="M179.595 60.3348C179.278 58.4619 179.059 55.3217 177.266 54.2273C177.004 54.067 176.561 54.2724 176.661 54.6113C176.956 55.6251 177.525 56.5188 177.813 57.5451C178.48 60.4222 178.953 63.3407 179.229 66.2811C178.031 66.0384 176.785 66.2529 175.737 66.8824C174.689 67.5118 173.914 68.5106 173.565 69.6824C173.454 70.2647 173.477 70.8647 173.633 71.4366C173.79 72.0085 174.075 72.5371 174.467 72.9819C175.52 74.4389 176.692 75.8058 177.972 77.0686C178.164 77.252 178.56 77.06 178.394 76.795C176.205 73.29 174.554 72.3521 174.444 70.676C174.431 70.0809 174.585 69.4942 174.889 68.9821C175.192 68.47 175.632 68.0528 176.16 67.7777C177.175 67.2161 178.193 67.3438 179.265 67.1268C179.276 67.6177 179.272 68.1086 179.253 68.5995C179.252 68.6711 179.278 68.7405 179.326 68.7936C179.374 68.8467 179.441 68.8794 179.512 68.8852C179.583 68.8909 179.654 68.8692 179.71 68.8245C179.766 68.7798 179.803 68.7155 179.813 68.6446C180.242 65.8842 180.168 63.069 179.595 60.3348Z" fill="#231F20"/>
<path d="M181.741 60.918C181.779 60.7983 181.852 60.6925 181.95 60.6144C182.048 60.5363 182.168 60.4893 182.293 60.4795C182.418 60.4697 182.543 60.4975 182.652 60.5594C182.762 60.6213 182.85 60.7144 182.906 60.8268C183.329 61.6725 183.695 62.5458 184.001 63.4409C184.273 64.4009 184.193 65.7449 184.846 66.5234C184.884 66.5696 184.933 66.6062 184.988 66.6301C185.043 66.6541 185.103 66.6648 185.163 66.6615C185.223 66.6581 185.281 66.6407 185.333 66.6108C185.385 66.5808 185.429 66.5391 185.462 66.4889C186.01 65.6479 185.647 64.399 185.394 63.5129C185.093 62.4399 184.644 61.4143 184.059 60.4659C183.668 59.839 183.123 59.1334 182.288 59.2179C181.932 59.2856 181.613 59.4806 181.391 59.7664C181.168 60.0523 181.057 60.4095 181.079 60.7711C181.064 61.1359 181.697 61.3279 181.741 60.918Z" fill="#231F20"/>
<path d="M185.611 60.7256C187.219 59.1829 187.627 62.9173 187.745 63.739C188.155 66.6267 187.841 66.8571 188.373 67.5176C188.407 67.5576 188.45 67.5893 188.499 67.6104C188.547 67.6314 188.6 67.6411 188.653 67.6389C188.705 67.6367 188.757 67.6226 188.803 67.5976C188.85 67.5725 188.89 67.5373 188.921 67.4945C189.51 66.7035 189.183 65.395 189.081 64.4696C189 63.2905 188.777 62.1255 188.419 60.9992C187.876 59.5256 186.176 58.748 185.097 60.2465C184.863 60.5681 185.313 61.0136 185.611 60.7256Z" fill="#231F20"/>
<path d="M189.253 61.1929C190.597 61.4406 190.574 63.6582 190.657 64.6854C190.849 67.1545 190.656 69.6385 190.086 72.0486C189.681 73.132 189.423 74.2645 189.318 75.4162C189.33 75.7244 189.707 76.0326 189.98 75.758C191.019 74.7193 191.272 73.0076 191.556 71.6146C191.882 69.9802 192.027 68.3148 191.99 66.6486C191.952 64.7286 192.079 60.2521 189.215 60.4393C188.761 60.469 188.876 61.1228 189.253 61.1929Z" fill="#231F20"/>
<path d="M179.629 120.951C179.686 120.996 179.698 121.008 179.629 120.951V120.951Z" fill="#231F20"/>
<path d="M114.162 164.193C115.559 156.623 116.599 148.833 115.464 141.168C115.382 140.62 114.494 140.757 114.504 141.294C114.81 157.032 111.699 167.529 108.898 181.038C108.549 182.729 107.834 184.68 107.883 186.414C107.932 188.124 109.515 187.809 109.617 186.881L109.744 185.718C109.62 184.854 112.744 171.875 114.162 164.193Z" fill="#231F20"/>
<path d="M196.113 110.734C195.218 101.626 194.304 92.2697 191.65 83.4866C191.374 82.5737 189.936 82.8012 190.154 83.7746C191.712 91.1214 192.89 98.5438 193.682 106.012C194.57 113.535 195.326 121.171 194.424 128.729C193.648 135.212 191.866 142.233 186.125 146.057C181.342 149.242 175.373 151.204 169.892 149.744C162.734 147.836 160.897 145.85 155.646 140.863C155.573 140.782 155.472 140.733 155.364 140.726C155.256 140.718 155.15 140.753 155.067 140.822C154.984 140.892 154.931 140.991 154.92 141.099C154.908 141.206 154.94 141.314 155.006 141.4C158.112 145.663 161.604 148.696 165.554 150.328C165.761 152.991 166.123 155.64 166.639 158.262C169.666 179.291 168.058 181.892 168.99 187.29C169.071 187.759 169.79 187.714 169.904 187.29C170.71 184.279 170.448 180.967 170.326 177.882C169.977 169.05 168.339 155.957 166.912 150.828C171.993 152.495 177.754 151.986 184.241 149.139C190.974 146.184 193.707 141.086 195.314 134.322C197.147 126.601 196.885 118.601 196.113 110.734Z" fill="#231F20"/>
<path d="M265.199 13.3718C264.357 10.917 262.425 8.05335 259.936 7.38999C258.212 7.04874 256.464 6.84267 254.708 6.77367C230.735 4.34007 213.3 5.50071 194.047 5.56407C193.933 5.5609 193.822 5.59275 193.727 5.65527C172.926 6.29271 155.41 5.01495 132.864 8.46327C131.152 8.72535 129.408 8.79255 127.978 9.95895C125.681 11.8386 124.593 14.7878 124.155 17.7551C122.49 29.0226 123.116 55.894 123.812 68.6678C124.138 74.6438 124.292 82.101 128.846 85.9622C127.944 86.8323 127.354 87.9759 127.168 89.2156C126.153 94.9353 129.432 97.6751 131.278 101.852C132.071 103.246 133.378 104.274 134.919 104.718C135.086 106.248 134.862 107.795 134.268 109.215C124.77 110.175 119.14 112.826 111.516 117.834C107.591 120.281 103.886 123.065 100.444 126.155C94.1202 132.114 90.1919 140.06 91.7913 148.872C93.525 158.427 100.995 166.834 109.302 171.486C110.056 171.908 110.606 170.854 109.964 170.356C106.658 167.79 103.276 165.401 100.444 162.285C93.3301 154.457 91.6789 145.632 93.8457 138.735C96.4549 130.432 103.6 124.887 110.797 120.082C114.544 117.385 118.579 115.115 122.829 113.314C131.057 110.167 140.055 109.954 148.731 110.722C153.856 111.177 159.587 112.958 164.506 114.523C169.381 116.074 177.885 121.315 179.689 121.521C179.689 121.521 181.45 121.975 180.408 120.745C179.623 119.818 177.063 118.45 173.798 116.932C173.901 116.9 173.993 116.842 174.067 116.764C174.141 116.686 174.194 116.59 174.221 116.486C174.409 114.902 174.42 113.302 174.255 111.715C174.011 95.3653 177.543 84.2217 178.582 79.1817C178.599 79.1168 178.596 79.0483 178.574 78.9851C178.551 78.9219 178.51 78.867 178.456 78.8274C180.396 78.9302 182.349 78.8274 184.289 78.8956C186.184 78.9638 188.263 79.4591 190.134 79.1836C190.228 79.1635 190.313 79.1135 190.377 79.041C190.441 78.9685 190.479 78.8774 190.487 78.7812C190.495 78.685 190.471 78.5889 190.42 78.5071C190.369 78.4253 190.293 78.3623 190.203 78.3273C188.39 77.589 186.048 77.7446 184.118 77.711C182.071 77.6091 180.02 77.7314 177.999 78.0758C177.918 78.0942 177.845 78.1399 177.793 78.2052C177.741 78.2705 177.712 78.3517 177.712 78.4353C177.712 78.5189 177.741 78.6 177.793 78.6653C177.845 78.7307 177.918 78.7763 177.999 78.7948C177.08 79.3209 172.701 95.4028 172.954 112.448C172.966 113.277 172.906 115.821 173.354 116.717C166.756 113.68 157.373 110.274 152.269 109.663C149.677 109.352 147.041 109.114 144.404 108.991C143.929 107.702 143.719 106.33 143.788 104.959C145.169 105.151 146.642 104.969 147.349 103.783C148.514 101.83 147.091 99.3762 146.985 97.3324C146.982 97.248 146.949 97.1673 146.892 97.1047C146.836 97.0422 146.759 97.0018 146.675 96.9909C146.591 96.9799 146.506 96.9991 146.435 97.0449C146.364 97.0908 146.312 97.1603 146.288 97.2412C145.596 98.9625 146.894 100.655 146.607 102.401C146.198 104.89 143.47 103.057 141.962 103.634C141.87 103.662 141.791 103.719 141.734 103.796C141.677 103.873 141.646 103.966 141.646 104.062C141.646 104.158 141.677 104.251 141.734 104.328C141.791 104.405 141.87 104.462 141.962 104.49C142.327 104.624 142.701 104.734 143.08 104.821C142.913 105.769 142.913 106.738 143.08 107.686C143.138 108.106 143.218 108.522 143.32 108.934C140.747 108.846 138.171 108.895 135.603 109.082C135.718 108.624 135.802 108.158 135.854 107.689C135.987 106.779 135.968 105.853 135.797 104.95C136.603 105.171 137.439 105.269 138.274 105.238C140.763 105.086 142.21 102.099 141.129 99.8274C142.513 99.8274 143.734 98.277 142.714 97.3382C142.663 97.2904 142.599 97.2584 142.531 97.2458C142.462 97.2331 142.391 97.2405 142.326 97.2669C142.261 97.2934 142.205 97.3378 142.165 97.395C142.125 97.4522 142.101 97.5197 142.098 97.5897C141.79 100.171 138.899 97.4764 138.56 96.2082C138.214 94.919 139.505 93.2197 140.912 94.3017C141.253 94.5647 141.607 93.9484 141.516 93.5942C141.4 93.1382 141.311 92.6697 141.185 92.2127C141.395 92.0433 141.589 91.8564 141.767 91.654C142.745 91.1349 143.674 90.5272 144.541 89.8386C145.385 92.0756 146.77 94.0683 148.573 95.638C148.334 95.7909 148.064 95.8904 147.782 95.9296C147.501 95.9689 147.214 95.947 146.941 95.8655C146.804 95.8273 146.656 95.8454 146.532 95.9158C146.408 95.9862 146.316 96.1031 146.278 96.2409C146.24 96.3786 146.258 96.5259 146.328 96.6503C146.399 96.7747 146.516 96.866 146.653 96.9042C147.202 97.0588 147.784 97.0574 148.332 96.9002C148.88 96.743 149.374 96.4363 149.758 96.0143C149.857 95.9139 149.913 95.7785 149.913 95.6375C149.913 95.4965 149.857 95.3611 149.758 95.2607C146.398 92.4249 145.484 89.4527 145.135 89.3087C145.249 89.206 145.363 89.0918 145.477 88.989C150.809 89.2268 156.15 89.1355 161.47 88.7154C165.615 88.3708 169.718 88.8921 174.073 88.8182C174.153 88.51 174.221 88.1903 174.301 87.8706C170.173 87.8706 167.805 87.669 163.97 87.551C160.727 87.455 159.471 88.2172 146.505 87.8937C149.266 84.5337 149.345 80.5017 147.772 78.1785C147.179 77.2435 146.315 76.5111 145.295 76.0788C144.276 75.6466 143.149 75.5348 142.065 75.7583C139.906 76.3343 138.712 78.3983 137.635 80.1743C135.489 83.7177 134.841 83.6217 131.63 84.478C130.984 84.6429 130.365 84.9016 129.793 85.246C126.586 82.727 125.794 78.5452 125.363 74.398C124.361 64.726 123.923 35.4921 124.827 23.086C125.019 20.4153 125.081 17.326 126.106 14.8214C126.699 13.1151 127.803 11.6326 129.268 10.5753C129.925 10.1778 130.214 10.1001 135.25 9.37623C154.786 6.56919 172.175 7.47159 190.693 7.04823C216.368 6.46071 234.927 5.86455 257.69 8.41815C259.448 8.61495 260.705 8.86167 261.97 10.2671C263.777 12.2735 264.416 14.7186 264.871 17.3788C266.791 28.6108 267.772 62.4124 267.142 72.6748C266.942 75.9282 266.432 79.6588 264.493 82.3093C263.168 84.1228 261.104 84.4684 259.106 84.7861C251.169 86.0505 217.684 86.3807 201.207 87.0901C200.605 87.1161 199.742 87.2005 194.723 87.2822C194.769 87.5221 194.735 87.933 194.78 88.1615C194.876 88.1615 244.796 87.1852 251.172 86.8377C253.318 86.7196 255.476 86.5775 257.622 86.3231C259.594 86.2284 261.535 85.7841 263.352 85.0108C265.535 83.8857 266.698 81.3695 267.416 79.0175C268.48 75.526 268.541 71.7349 268.568 68.0821C268.635 59.0476 268.108 21.8601 265.199 13.3718Z" fill="#231F20"/>
<path d="M1 192.438H359" stroke="#F2ECED" stroke-width="2" stroke-linecap="round"/>
<path d="M1 192.438H278" stroke="#088542" stroke-width="2" stroke-linecap="round"/>
</svg>
