<svg width="16" height="16" viewBox="0 0 16 16" fill="none" xmlns="http://www.w3.org/2000/svg">
<path d="M4.59088 12.0003H11.0221C11.4334 12.0003 11.6391 12.0003 11.8236 11.9744C12.5739 11.8689 13.2232 11.4507 13.5725 10.8481C13.6584 10.6999 13.7234 10.5256 13.8535 10.1769L14.5998 8.17655C14.8769 7.43391 14.2582 6.66699 13.3821 6.66699C12.8419 6.66699 12.3595 6.96919 12.1753 7.42295L11.5082 9.06699C11.3789 9.38567 11.3142 9.54502 11.1913 9.656C11.1242 9.71659 11.0455 9.76591 10.9589 9.80161C10.8002 9.86699 10.6105 9.86699 10.2311 9.86699H5.57837C5.38291 9.86699 5.28517 9.86699 5.1981 9.84931C4.99478 9.80803 4.8177 9.6971 4.70496 9.54038C4.65668 9.47327 4.62336 9.39118 4.55674 9.22699L3.82466 7.42295C3.64052 6.96919 3.15813 6.66699 2.61792 6.66699C1.74178 6.66699 1.12312 7.43391 1.40018 8.17655L2.26885 10.505C2.28191 10.54 2.28844 10.5575 2.29464 10.5733C2.62579 11.4166 3.51011 11.986 4.5102 12.0001C4.52893 12.0003 4.54958 12.0003 4.59088 12.0003Z" stroke="white"/>
<path d="M4 8.00033V5.71461C4 4.27795 4 3.55962 4.46863 3.11331C4.93726 2.66699 5.69151 2.66699 7.2 2.66699H8.8C10.3085 2.66699 11.0627 2.66699 11.5314 3.11331C12 3.55962 12 4.27795 12 5.71461V8.00033" stroke="white"/>
<path d="M12 13.3333V12M4 13.3333V12.4444" stroke="white" stroke-linecap="round"/>
</svg>
