<svg width="20" height="20" viewBox="0 0 20 20" fill="none" xmlns="http://www.w3.org/2000/svg">
<path d="M8.15086 3.2423C8.62076 2.84186 8.8557 2.64164 9.10135 2.52423C9.66951 2.25267 10.33 2.25267 10.8982 2.52423C11.1438 2.64164 11.3788 2.84186 11.8487 3.2423C12.0357 3.40168 12.1292 3.48136 12.2291 3.5483C12.458 3.70174 12.7151 3.80823 12.9855 3.86161C13.1034 3.8849 13.2259 3.89467 13.4708 3.91422C14.0862 3.96333 14.3939 3.98788 14.6507 4.07856C15.2444 4.28829 15.7115 4.75533 15.9212 5.34911C16.0119 5.60583 16.0364 5.91354 16.0856 6.52896C16.1051 6.7739 16.1149 6.89637 16.1382 7.01432C16.1915 7.28469 16.298 7.54178 16.4515 7.77071C16.5184 7.87058 16.5981 7.96409 16.7575 8.15111C17.1579 8.621 17.3581 8.85595 17.4755 9.1016C17.7471 9.66976 17.7471 10.3303 17.4755 10.8984C17.3581 11.1441 17.1579 11.379 16.7575 11.8489C16.5981 12.0359 16.5184 12.1294 16.4515 12.2293C16.298 12.4582 16.1915 12.7153 16.1382 12.9857C16.1149 13.1037 16.1051 13.2261 16.0856 13.4711C16.0364 14.0865 16.0119 14.3942 15.9212 14.6509C15.7115 15.2447 15.2444 15.7117 14.6507 15.9215C14.3939 16.0121 14.0862 16.0367 13.4708 16.0858C13.2259 16.1054 13.1034 16.1151 12.9855 16.1384C12.7151 16.1918 12.458 16.2983 12.2291 16.4517C12.1292 16.5187 12.0357 16.5983 11.8487 16.7577C11.3788 17.1582 11.1438 17.3584 10.8982 17.4758C10.33 17.7474 9.66951 17.7474 9.10135 17.4758C8.85571 17.3584 8.62076 17.1582 8.15086 16.7577C7.96384 16.5983 7.87034 16.5187 7.77047 16.4517C7.54154 16.2983 7.28444 16.1918 7.01407 16.1384C6.89612 16.1151 6.77365 16.1054 6.52871 16.0858C5.91329 16.0367 5.60558 16.0121 5.34886 15.9215C4.75509 15.7117 4.28804 15.2447 4.07832 14.6509C3.98764 14.3942 3.96308 14.0865 3.91397 13.4711C3.89443 13.2261 3.88465 13.1037 3.86137 12.9857C3.80799 12.7153 3.70149 12.4582 3.54806 12.2293C3.48112 12.1294 3.40143 12.0359 3.24206 11.8489C2.84161 11.379 2.64139 11.1441 2.52398 10.8984C2.25242 10.3303 2.25242 9.66976 2.52398 9.1016C2.64139 8.85595 2.84162 8.621 3.24206 8.15111C3.40143 7.96409 3.48112 7.87058 3.54806 7.77071C3.70149 7.54178 3.80799 7.28469 3.86137 7.01432C3.88465 6.89637 3.89443 6.7739 3.91397 6.52896C3.96308 5.91354 3.98764 5.60583 4.07832 5.34911C4.28804 4.75533 4.75509 4.28829 5.34886 4.07856C5.60559 3.98788 5.9133 3.96333 6.52871 3.91422C6.77365 3.89467 6.89612 3.8849 7.01407 3.86161C7.28444 3.80823 7.54154 3.70174 7.77047 3.5483C7.87034 3.48136 7.96385 3.40168 8.15086 3.2423Z" stroke="#088542" stroke-width="1.5"/>
<path d="M7.08398 10.4167L8.75065 12.0834L12.9173 7.91675" stroke="#088542" stroke-width="1.5" stroke-linecap="round" stroke-linejoin="round"/>
</svg>
