<svg width="16" height="16" viewBox="0 0 16 16" fill="none" xmlns="http://www.w3.org/2000/svg">
<g id="calendar_today" clip-path="url(#clip0_2060_9477)">
<path id="Vector" d="M13.334 2H12.6673V1.33333C12.6673 0.966664 12.3673 0.666664 12.0007 0.666664C11.634 0.666664 11.334 0.966664 11.334 1.33333V2L4.66732 2V1.33333C4.66732 0.966664 4.36732 0.666664 4.00065 0.666664C3.63398 0.666664 3.33398 0.966664 3.33398 1.33333V2H2.66732C1.93398 2 1.33398 2.6 1.33398 3.33333L1.33398 14C1.33398 14.7333 1.93398 15.3333 2.66732 15.3333H13.334C14.0673 15.3333 14.6673 14.7333 14.6673 14V3.33333C14.6673 2.6 14.0673 2 13.334 2ZM12.6673 14H3.33398C2.96732 14 2.66732 13.7 2.66732 13.3333L2.66732 5.33333H13.334V13.3333C13.334 13.7 13.034 14 12.6673 14Z" fill="#444041"/>
</g>
<defs>
<clipPath id="clip0_2060_9477">
<rect width="16" height="16" fill="white"/>
</clipPath>
</defs>
</svg>
