<svg width="24" height="24" viewBox="0 0 24 24" fill="none" xmlns="http://www.w3.org/2000/svg">
<mask id="mask0_140_18153" style="mask-type:alpha" maskUnits="userSpaceOnUse" x="0" y="0" width="24" height="24">
<rect width="24" height="24" fill="#D9D9D9"/>
</mask>
<g mask="url(#mask0_140_18153)">
<path d="M11 19C11.8667 19 12.6917 18.825 13.475 18.475C14.2583 18.125 14.9333 17.625 15.5 16.975C13.3667 16.8417 11.5833 16.0125 10.15 14.4875C8.71667 12.9625 8 11.1333 8 9C8 8.78333 8.00833 8.57083 8.025 8.3625C8.04167 8.15417 8.06667 7.95 8.1 7.75C7.15 8.28333 6.39583 9.01667 5.8375 9.95C5.27917 10.8833 5 11.9 5 13C5 14.6667 5.58333 16.0833 6.75 17.25C7.91667 18.4167 9.33333 19 11 19ZM11 21C8.76667 21 6.875 20.225 5.325 18.675C3.775 17.125 3 15.2333 3 13C3 10.7667 3.775 8.875 5.325 7.325C6.875 5.775 8.76667 5 11 5C11.0833 5 11.1667 5.00417 11.25 5.0125C11.3333 5.02083 11.4167 5.025 11.5 5.025C11.0167 5.55833 10.6458 6.16667 10.3875 6.85C10.1292 7.53333 10 8.25 10 9C10 10.6667 10.5833 12.0833 11.75 13.25C12.9167 14.4167 14.3333 15 16 15C16.5167 15 17.0208 14.9375 17.5125 14.8125C18.0042 14.6875 18.4667 14.5 18.9 14.25C18.6 16.2167 17.7 17.8333 16.2 19.1C14.7 20.3667 12.9667 21 11 21ZM13.8 11L17 2H19L22.2 11H20.3L19.6 9H16.4L15.7 11H13.8ZM16.85 7.65H19.15L18 4L16.85 7.65Z" fill="#1C1B1F"/>
</g>
</svg>
