<svg width="196" height="196" viewBox="0 0 196 196" fill="none" xmlns="http://www.w3.org/2000/svg">
<g clip-path="url(#clip0_695_19475)">
<path d="M48.6503 91.8763C48.8319 92.0286 49.0443 92.1413 49.2734 92.2071C49.5026 92.2728 49.7433 92.2901 49.9797 92.2577C50.2162 92.2253 50.443 92.1441 50.6451 92.0193C50.8473 91.8945 51.0203 91.729 51.1526 91.5338C51.3853 92.1454 51.664 92.7393 51.9862 93.3103C52.4015 94.2627 52.5796 94.8742 53.655 94.8742C58.2271 95.4356 58.1093 94.6975 58.8666 93.0288C59.9802 90.5751 61.0381 88.1183 62.0626 85.6505C62.1585 85.4984 62.2151 85.3255 62.2273 85.1469C62.2395 84.9683 62.207 84.7895 62.1326 84.6262C62.0053 84.503 61.8523 84.4087 61.6841 84.3498C61.5159 84.2909 61.3367 84.2689 61.159 84.2852C57.4762 84.2508 53.7234 84.5589 50.0407 84.831C48.1619 85.0953 48.9414 85.8397 49.6939 87.5647C47.8215 87.3426 46.474 90.3546 48.6503 91.8763ZM60.3254 86.1369C57.3028 92.0796 57.3553 91.6933 56.851 92.9694C56.3642 92.9694 55.809 93.0366 55.3222 93.0366C54.8116 93.0252 54.3008 93.0482 53.7934 93.1055C52.8828 90.8275 51.8144 88.6136 50.5959 86.4793C53.4864 86.5919 53.7918 87.8884 60.3254 86.1322V86.1369Z" fill="#088542"/>
<path d="M61.9247 90.166C60.8951 90.042 60.8982 91.8824 61.9247 91.9698C67.2814 92.4291 63.218 95.204 60.4855 96.067C56.9918 97.0914 53.3271 97.3749 49.7203 96.8998C47.0082 96.1751 45.6946 93.3621 48.1508 92.8042C48.832 92.6453 48.6295 91.3452 48.0127 91.4851C45.3446 91.8316 43.1598 94.2473 45.7511 96.8998C48.8539 100.078 55.9732 98.8753 59.6003 98.0791C61.7301 97.6134 65.1312 96.6837 65.9756 93.9135C66.9047 90.851 63.9101 90.4028 61.9247 90.166Z" fill="#088542"/>
<path d="M101.595 116.777H101.454C101.174 115.943 100.775 115.152 100.271 114.428C100.328 114.226 100.351 114.016 100.34 113.807C100.131 110.699 94.629 110.827 92.8859 110.768C90.3088 110.683 85.2934 110.561 84.5933 114.221V114.298C78.7422 119.892 85.2902 128.87 91.7696 128.87C93.8179 128.835 95.8116 128.209 97.5067 127.068C99.2018 125.928 100.525 124.322 101.314 122.448H101.384C103.264 122.655 107.176 122.655 107.306 119.761C107.457 116.363 103.545 116.57 101.595 116.777ZM92.4681 112.495C93.653 112.495 97.4756 112.224 98.2506 113.392C99.4913 115.266 94.7693 116.645 93.7853 116.845C92.4173 117.253 90.9578 117.247 89.593 116.829C88.2283 116.411 87.0201 115.599 86.1226 114.498C86.8961 112.218 90.7266 112.495 92.4681 112.495ZM99.713 122.233C99.1471 123.342 98.3524 124.321 97.3805 125.106C96.4085 125.892 95.2809 126.466 94.0708 126.791C88.5721 128.258 80.2077 121.817 85.3635 115.533C87.3825 118.434 90.7856 119.011 94.0006 118.434C95.9952 118.116 97.8699 117.283 99.4355 116.017C99.9776 116.956 100.286 118.01 100.334 119.092C100.382 120.173 100.169 121.25 99.713 122.233ZM105.496 119.746C105.177 120.481 102.694 120.45 101.874 120.368C101.942 119.725 101.942 119.077 101.874 118.434C102.848 118.434 106.057 118.436 105.496 119.746Z" fill="#088542"/>
<path d="M96.6943 119.096C93.6213 119.864 90.4307 120.05 87.2888 119.644C85.9828 119.376 85.6402 120.19 85.7785 120.874C87.0766 127.303 97.3763 126.823 97.9986 120.19C98.007 120.026 97.9771 119.862 97.9113 119.711C97.8455 119.56 97.7455 119.427 97.6192 119.321C97.4929 119.215 97.3436 119.139 97.1832 119.1C97.0227 119.061 96.8554 119.06 96.6943 119.096Z" fill="#088542"/>
<path d="M62.5215 106.387C58.3243 106.038 53.5192 107.375 49.3127 107.928C49.1825 107.956 49.0604 108.014 48.9552 108.097C48.85 108.18 48.7646 108.286 48.7051 108.407C48.6457 108.528 48.6138 108.661 48.6118 108.797C48.6098 108.932 48.6378 109.066 48.6937 109.189C48.9678 110.311 49.1741 111.498 49.3804 112.689C48.4667 112.404 47.5155 112.262 46.5597 112.269C45.6259 112.196 44.6997 112.488 43.9708 113.087C43.2418 113.686 42.7651 114.545 42.6382 115.489C42.4539 118.081 45.388 120.533 46.766 122.07C48.2764 123.754 49.7253 125.15 51.7884 124.171C52.2373 125.756 52.8124 127.302 53.5082 128.792C53.8531 129.492 54.9524 129.335 55.5729 129.282C57.9495 129.075 59.7858 129.699 60.526 129.072C61.4899 128.162 61.0174 126.133 61.145 124.94C62.0537 116.446 62.8065 113.967 63.0711 108.838C63.0711 108.279 63.2097 107.716 63.2097 107.227C63.2141 107.026 63.1468 106.83 63.0202 106.676C62.8937 106.522 62.7165 106.419 62.5215 106.387ZM49.037 122.35C48.5796 121.927 48.1649 121.457 47.7992 120.95C46.8542 119.879 45.7959 118.856 44.9092 117.659C44.5709 117.344 44.3443 116.923 44.2644 116.464C44.1845 116.004 44.2558 115.53 44.4672 115.115C44.6787 114.701 45.0185 114.369 45.4341 114.171C45.8496 113.973 46.3178 113.92 46.766 114.02C47.2479 114.02 49.2434 114.159 49.656 114.649C49.8576 114.649 50.1836 118.207 51.3758 122.7C50.9862 122.832 50.5718 122.869 50.1656 122.808C49.7595 122.747 49.3729 122.591 49.037 122.35ZM59.3574 127.671C57.7995 127.564 56.2363 127.564 54.6784 127.671C54.0101 126.161 53.4828 124.591 53.1035 122.98C54.8201 122.98 56.2533 122.35 59.8457 122.35C59.6315 124.101 59.4945 125.851 59.3637 127.671H59.3574ZM60.8709 114.579C57.7021 114.754 54.551 115.175 51.4451 115.839C50.9632 113.739 50.4812 111.708 50.0009 109.609C52.064 109.399 54.198 109.128 56.2612 108.977C58.1109 108.946 59.9535 108.735 61.7639 108.348C61.4899 110.449 61.145 112.479 60.8709 114.579Z" fill="#088542"/>
<path d="M97.3888 87.6484C97.2166 86.4093 97.1462 85.1588 97.1781 83.9088C97.1784 83.6609 97.0871 83.4211 96.9208 83.2336C96.7546 83.0462 96.5247 82.9235 96.2733 82.8883C92.8565 82.6156 89.4412 83.1594 86.0244 82.9553C85.8864 82.9353 85.7457 82.9663 85.6298 83.042C85.5139 83.1178 85.431 83.2329 85.3972 83.365C85.2675 83.4157 85.154 83.4991 85.0682 83.6067C84.9824 83.7143 84.9274 83.8422 84.9089 83.9774C84.7237 86.7422 84.7237 89.5159 84.9089 92.2807C85.0381 96.0779 84.3503 100.639 91.4616 100.925C94.0406 101.028 97.1686 100.667 97.8756 97.5222C98.0856 96.4914 98.1793 95.4412 98.1548 94.3904C100.804 94.8672 105.64 94.7285 105.336 90.8519C105.014 86.7602 100.036 87.0407 97.3888 87.6484ZM96.2717 96.4284C95.5615 99.0118 93.9018 98.9121 91.9484 98.9464C90.4147 98.9729 88.0416 99.0165 87.0681 97.3135C86.5433 95.8977 86.3296 94.39 86.4409 92.8884C86.3021 90.1663 86.3723 87.4442 86.1632 84.7206C89.2165 85.2976 92.3398 85.4351 95.4338 85.1288C95.9733 92.7388 96.7728 94.6054 96.2733 96.4284H96.2717ZM101.291 92.6157C100.195 92.7179 99.0885 92.649 98.0144 92.4116L97.5963 89.1395C99.4779 88.8668 102.52 88.1641 103.59 90.2302C104.467 91.9176 102.406 92.5487 101.291 92.6157Z" fill="#088542"/>
<path d="M93.8246 90.4107C93.1926 89.9336 92.151 90.2707 91.4439 90.3445C90.2845 90.4634 89.1236 90.5221 87.9686 90.7388C87.3233 90.8592 87.8949 96.0217 89.5773 96.7216C90.1614 96.9788 90.8021 97.0722 91.4333 96.9922C92.0645 96.9122 92.6634 96.6618 93.1683 96.2666C93.6732 95.8715 94.0658 95.3459 94.3057 94.7441C94.5456 94.1423 94.6242 93.486 94.5332 92.8429C94.4713 92.0482 94.4153 90.8547 93.8246 90.4107Z" fill="#088542"/>
<path d="M151.869 139.65H135.082C135.359 139.096 132.583 121.758 135.914 109.76C136.608 109.76 137.302 109.83 138.064 109.898C137.578 111.84 136.192 117.666 137.51 121.758C137.51 121.758 150.69 121.272 150.69 120.996C151.092 117.984 151.162 114.937 150.898 111.91C151.572 112.178 152.222 112.503 152.841 112.881C153.789 121.805 153.461 130.818 151.869 139.65Z" fill="#088542"/>
<path d="M194.35 105.751C194.018 103.636 192.773 102.903 191.398 104.417C190.782 105.1 190.266 105.871 189.866 106.704C189.156 111.049 188.334 115.428 187.287 119.703C187.265 119.767 187.221 119.82 187.165 119.855C187.108 119.889 187.042 119.904 186.977 119.895C186.911 119.886 186.851 119.854 186.805 119.805C186.76 119.757 186.732 119.694 186.726 119.627C187.082 115.397 187.833 111.211 188.968 107.126C189.223 104.673 188.969 102.193 188.221 99.8474C187.994 99.1069 187.566 98.4467 186.988 97.942C186.691 97.6993 186.33 97.5516 185.951 97.5176C185.572 97.4836 185.192 97.5648 184.858 97.7509C184.444 98.0878 184.154 98.5581 184.036 99.0849C183.669 100.358 183.555 101.692 183.7 103.011C184.401 104.285 184.953 105.64 185.344 107.046C185.36 107.127 185.348 107.212 185.31 107.285C185.272 107.359 185.21 107.416 185.134 107.448C185.059 107.479 184.975 107.483 184.898 107.459C184.82 107.434 184.753 107.382 184.708 107.313C184.135 106.122 183.624 104.9 183.176 103.654C183.094 103.595 183.007 103.544 182.915 103.502C182.615 103.333 182.276 103.251 181.933 103.264C181.591 103.277 181.258 103.386 180.972 103.578C179.731 104.548 180.555 107.025 181.046 108.533C182.382 112.626 183.774 116.688 185.157 120.766C184.302 120.88 182.559 121.341 182.728 122.404C182.795 122.825 183.289 123.015 183.7 123.091C185.597 123.456 189.465 124.035 190.276 122.253C190.379 122.056 190.417 121.83 190.383 121.61C190.349 121.39 190.246 121.187 190.09 121.031C189.694 120.706 189.165 120.782 188.52 120.688C190.528 118.623 192.161 116.21 193.34 113.561C193.698 112.869 193.985 112.141 194.196 111.389C194.582 109.535 194.634 107.624 194.35 105.751ZM184.559 116.308C183.482 112.784 182.691 109.181 181.831 105.637C181.794 105.408 182.093 105.293 182.168 105.523C183.357 109.002 184.282 112.569 184.933 116.194C184.948 116.244 184.943 116.299 184.918 116.345C184.894 116.392 184.852 116.426 184.802 116.441C184.753 116.456 184.699 116.451 184.654 116.426C184.608 116.401 184.574 116.358 184.559 116.308ZM186.014 98.8144C186.733 102.501 186.947 106.272 186.649 110.019C186.612 110.248 186.275 110.248 186.275 110.019C186.378 106.31 186.153 102.598 185.603 98.9296C185.606 98.6626 185.978 98.5832 186.016 98.8144H186.014ZM188.665 117.07C188.651 117.116 188.619 117.153 188.577 117.175C188.535 117.196 188.486 117.2 188.441 117.185C188.397 117.169 188.36 117.137 188.339 117.094C188.318 117.051 188.314 117.002 188.329 116.956C189.585 113.038 191.522 109.377 192.813 105.484C192.889 105.256 193.266 105.333 193.187 105.599C192.02 109.544 189.996 113.2 188.67 117.07H188.665Z" fill="#088542"/>
<path d="M25.4929 91.63C25.3596 91.63 25.2317 91.7332 25.1375 91.9168C25.0432 92.1005 24.9902 92.3495 24.9902 92.6093C24.9902 92.869 25.0432 93.118 25.1375 93.3017C25.2317 93.4853 25.3596 93.5885 25.4929 93.5885C26.1294 93.6527 26.1294 91.63 25.4929 91.63Z" fill="#231F20"/>
<path d="M210.68 141.355C137.568 140.845 64.3058 141.271 -8.79959 141.639C-9.06898 141.646 -9.32326 141.715 -9.50955 141.831C-9.69585 141.947 -9.7998 142.102 -9.7998 142.262C-9.7998 142.423 -9.69585 142.577 -9.50955 142.693C-9.32326 142.809 -9.06898 142.878 -8.79959 142.886C64.3014 143.168 137.564 143.197 210.68 142.601C210.949 142.594 211.204 142.525 211.39 142.409C211.576 142.293 211.68 142.139 211.68 141.978C211.68 141.818 211.576 141.663 211.39 141.547C211.204 141.431 210.949 141.362 210.68 141.355Z" fill="#231F20"/>
<path d="M139.182 92.6098C139.352 92.6098 139.518 92.5543 139.665 92.449C139.811 92.3437 139.933 92.1923 140.016 92.0104C140.1 91.8284 140.142 91.6224 140.14 91.4135C140.138 91.2045 140.09 91.0001 140.003 90.821C140.003 90.8107 140.002 90.8004 139.998 90.7908C139.995 90.7811 139.991 90.7724 139.985 90.7651C139.979 90.7578 139.972 90.752 139.964 90.7482C139.956 90.7443 139.948 90.7425 139.939 90.7427C139.863 90.5667 139.749 90.4195 139.61 90.3168C139.471 90.2142 139.312 90.16 139.15 90.16C138.988 90.16 138.829 90.2142 138.69 90.3168C138.551 90.4195 138.437 90.5667 138.361 90.7427C138.361 90.7529 138.36 90.763 138.357 90.7725C138.354 90.782 138.349 90.7907 138.343 90.798C138.337 90.8053 138.331 90.8111 138.323 90.815C138.315 90.819 138.307 90.821 138.299 90.821C138.217 91.0073 138.176 91.2166 138.18 91.4283C138.185 91.64 138.234 91.8466 138.323 92.0276C138.413 92.2085 138.539 92.3575 138.69 92.4596C138.84 92.5618 139.01 92.6136 139.182 92.6098Z" fill="#231F20"/>
<path d="M140.082 98.4644C140.454 98.4236 140.813 98.2908 141.136 98.075C141.46 97.8591 141.739 97.5653 141.955 97.2134C142.46 96.4609 141.523 95.7943 141.019 96.1286C140.603 96.391 140.17 96.6139 139.723 96.7951C139.628 96.8225 139.539 96.8711 139.461 96.9383C139.383 97.0055 139.316 97.09 139.266 97.1868C139.216 97.2836 139.183 97.391 139.168 97.5027C139.154 97.6144 139.159 97.7284 139.182 97.838C139.206 97.9476 139.248 98.0507 139.306 98.1415C139.364 98.2323 139.437 98.309 139.52 98.3672C139.604 98.4254 139.697 98.4639 139.793 98.4806C139.889 98.4973 139.988 98.4918 140.082 98.4644Z" fill="#231F20"/>
<path d="M137.841 87.7466C138.771 87.1704 139.801 86.7687 140.88 86.5617C145.489 85.6478 142.579 91.6651 144.764 91.2999C148.374 90.6987 148.863 93.319 146.743 94.5741C146.555 94.5367 146.359 94.5567 146.182 94.6313C146.005 94.7059 145.855 94.8317 145.753 94.992C144.976 95.3396 145.117 98.196 145.471 101.193C145.471 104.118 145.513 106.977 145.329 109.9C145.318 110.075 145.362 110.248 145.454 110.396C145.547 110.545 145.684 110.662 145.847 110.73C146.01 110.799 146.19 110.816 146.363 110.78C146.537 110.744 146.694 110.655 146.814 110.527H146.884C160.952 112.76 162.331 127.804 162.295 139.234C162.295 139.474 162.392 139.705 162.565 139.875C162.737 140.045 162.971 140.14 163.215 140.14C163.458 140.14 163.692 140.045 163.864 139.875C164.037 139.705 164.134 139.474 164.134 139.234C164.381 127.522 161.943 110.601 147.167 109.207C147.167 108.789 147.238 108.301 147.238 107.813C149.713 107.813 157.845 106.979 159.468 96.8755C161.381 84.9637 151.061 77.4584 141.794 79.8108C140.322 80.1313 138.942 80.7735 137.755 81.6899C136.568 82.6063 135.605 83.7736 134.937 85.1056C134.756 85.4983 134.704 85.9375 134.791 86.3606C134.877 86.7836 135.097 87.169 135.419 87.4617C135.741 87.7545 136.148 87.9396 136.583 87.9908C137.018 88.0419 137.458 87.9565 137.841 87.7466Z" fill="#231F20"/>
<path d="M135.178 96.7726H135.245C135.245 96.8379 135.178 96.9047 135.178 96.9715C135.216 97.9249 135.498 98.8526 135.999 99.6657C136.499 100.479 137.201 101.15 138.036 101.614C138.946 101.946 139.931 102.009 140.876 101.798C141.821 101.586 142.684 101.108 143.365 100.421C143.974 99.839 143.098 99.0279 142.433 99.4927C139.598 101.725 136.862 101.011 136.182 96.7058C136.157 96.5748 136.086 96.4569 135.982 96.3732C136.014 96.2489 136.005 96.1179 135.957 95.9989C135.909 95.88 135.825 95.7792 135.716 95.711C135.384 95.512 134.918 95.3784 134.918 94.9136C135.45 94.0651 136.027 93.2459 136.648 92.4593C136.987 91.9338 136.182 91.3324 135.783 91.7956C134.941 92.6359 134.264 93.6259 133.787 94.7147C133.648 95.9099 134.382 96.3079 135.178 96.7726Z" fill="#231F20"/>
<path d="M35.1543 78.7924C35.3617 97.2346 36.1565 115.591 36.6061 133.979C36.6159 134.113 36.658 134.243 36.7289 134.357C36.7997 134.472 36.8972 134.567 37.0128 134.635C37.1285 134.703 37.2589 134.742 37.3929 134.749C37.527 134.756 37.6606 134.729 37.7823 134.673C71.8954 134.328 96.9276 132.184 112.469 132.524C112.593 132.53 112.717 132.502 112.827 132.444C112.936 132.385 113.028 132.297 113.092 132.191C113.156 132.084 113.19 131.961 113.19 131.837C113.19 131.712 113.157 131.59 113.093 131.483C113.3 112.979 112.676 94.2508 111.568 75.8118C111.553 75.5961 111.46 75.3932 111.308 75.2405C111.155 75.0877 110.952 74.9953 110.737 74.9802C85.7033 74.8754 60.4304 75.5753 35.4266 77.337C34.6683 77.391 34.6002 78.4464 35.1543 78.7924ZM37.5749 105.484C39.1422 105.643 71.3159 104.559 72.7059 104.515C73.1207 113.388 73.8141 122.263 74.6421 131.067C74.6557 131.214 74.7029 131.357 74.7798 131.483C62.6088 131.968 50.3681 132.384 38.1971 133.217C37.9897 123.996 37.8504 114.705 37.5749 105.484ZM46.9153 103.897C43.7867 104.145 40.6465 104.214 37.51 104.105C37.3026 95.7157 37.0256 87.258 36.5412 78.8702C48.367 78.8003 60.2626 78.6622 72.0869 78.3147C72.0188 86.4962 72.2262 94.746 72.5713 102.997C63.5998 103.348 55.4008 103.661 46.9106 103.891L46.9153 103.897ZM79.2109 131.281C78.1724 131.337 77.0674 131.351 76.0289 131.421C76.3012 131.148 75.4305 125.664 74.4458 104.451C86.4094 104.035 98.373 103.62 110.337 102.864C110.277 112.265 110.739 121.663 111.72 131.013C100.889 130.367 90.026 130.454 79.2062 131.275L79.2109 131.281ZM110.055 76.6498C110.33 84.8313 110.262 93.0811 110.33 101.331C98.3667 101.747 86.3334 102.372 74.3698 102.856C73.955 94.6762 73.678 86.4248 73.4009 78.175C85.6368 77.8909 97.8775 77.4068 110.05 76.6434L110.055 76.6498Z" fill="#231F20"/>
<path d="M3.18922 97.6106C3.19411 97.7155 3.23905 97.8145 3.31472 97.887C3.39039 97.9595 3.49097 98 3.59557 98C3.70017 98 3.80075 97.9595 3.87642 97.887C3.95209 97.8145 3.99703 97.7155 4.00192 97.6106C4.07902 86.1013 4.00191 74.5947 3.88582 63.0873C10.0798 59.9385 16.1967 56.5557 22.1975 53.0572C22.2365 64.4489 22.4297 75.8407 22.5077 87.2325C22.5127 87.3425 22.5598 87.4464 22.6391 87.5225C22.7184 87.5986 22.8239 87.641 22.9335 87.641C23.0432 87.641 23.1487 87.5986 23.228 87.5225C23.3073 87.4464 23.3544 87.3425 23.3594 87.2325C23.4755 75.6084 23.4755 63.9844 23.4365 52.3594C30.3652 48.3527 37.2186 44.2321 44.1907 40.2663C44.1907 55.2964 43.9824 63.3721 44.4229 72.8068C42.9907 73.9335 41.5869 75.0442 40.2035 76.2279C39.8906 76.4948 40.3125 77.0742 40.6679 76.8108C67.4654 56.9464 67.9387 57.2312 72.8006 52.9789C73.3802 52.4725 72.6393 51.53 71.9879 51.9296C66.5517 55.2617 61.6454 59.6591 56.5796 63.4762C52.8201 66.3081 49.0305 69.1516 45.3526 72.0681C45.6619 62.3486 45.2746 52.5517 45.2365 42.8713C45.232 41.782 45.2365 40.7354 45.1975 39.6443C51.4305 36.1066 57.7025 32.6855 64.1677 29.575C64.0126 38.3609 63.9736 47.1842 64.0897 55.9728C64.0897 56.1016 64.1407 56.2252 64.2314 56.3164C64.3222 56.4075 64.4452 56.4587 64.5736 56.4587C64.7019 56.4587 64.825 56.4075 64.9157 56.3164C65.0065 56.2252 65.0575 56.1016 65.0575 55.9728C64.9033 38.6315 66.2149 21.1389 64.9804 3.8385C64.9414 3.29383 64.1198 3.29383 64.1287 3.8385C64.264 12.0857 64.277 20.3144 64.1677 28.5248C57.7406 31.6353 51.4305 34.979 45.2019 38.4392C45.1629 29.769 45.0468 21.0997 45.0087 12.4687C45.0087 12.3603 44.9659 12.2564 44.8896 12.1798C44.8133 12.1032 44.7098 12.0602 44.6019 12.0602C44.494 12.0602 44.3906 12.1032 44.3143 12.1798C44.238 12.2564 44.1951 12.3603 44.1951 12.4687C44.1951 21.2937 44.2341 30.1579 44.2731 38.983C37.3045 42.8713 30.4521 46.9145 23.5216 50.9185C23.4832 41.2379 23.4575 31.5576 23.4445 21.8775C23.4445 21.7744 23.4037 21.6755 23.331 21.6025C23.2584 21.5296 23.1599 21.4886 23.0572 21.4886C22.9545 21.4886 22.856 21.5296 22.7833 21.6025C22.7107 21.6755 22.6699 21.7744 22.6699 21.8775C22.5343 31.7937 22.3216 41.7046 22.3216 51.6181C16.2437 55.1175 10.1658 58.5777 3.9709 61.8822C3.8548 50.7245 3.8548 39.5294 3.9709 28.37C3.9659 28.2599 3.91885 28.1561 3.83953 28.08C3.76022 28.0039 3.65475 27.9614 3.54505 27.9614C3.43536 27.9614 3.32989 28.0039 3.25057 28.08C3.17126 28.1561 3.12421 28.2599 3.11921 28.37C3.02261 39.7235 2.85334 51.1126 2.88701 62.4652C0.874339 63.5536 -1.18176 64.5958 -3.22811 65.6139C-3.69339 65.8453 -3.26622 66.5092 -2.84082 66.3143C-0.902593 65.4244 0.99221 64.4863 2.88879 63.5554C2.84093 74.9845 3.07313 86.2953 3.18922 97.6106Z" fill="#231F20"/>
<path d="M9.86418 44.3739C10.953 41.4219 11.9058 38.3995 12.7183 35.3205C12.8705 34.7881 12.1791 34.561 12.0283 35.0934C11.1767 38.1091 10.2763 41.1318 9.33141 44.1111C9.30256 44.1965 9.30296 44.2921 9.33252 44.3771C9.36207 44.4621 9.41837 44.5294 9.48902 44.5642C9.55967 44.599 9.63889 44.5986 9.70924 44.5629C9.7796 44.5272 9.83533 44.4592 9.86418 44.3739Z" fill="#231F20"/>
<path d="M12.1302 46.3473C13.4537 44.1208 14.503 41.7145 15.6283 39.4115C15.8936 38.8702 15.0647 38.4111 14.7973 38.9525C13.638 41.3014 12.2864 43.6072 11.2992 46.0126C11.112 46.4678 11.8779 46.771 12.1302 46.3473Z" fill="#231F20"/>
<path d="M26.2706 41.4163C28.5408 36.2432 30.5579 30.9483 32.3138 25.5526C32.5006 24.9885 31.6316 24.7471 31.4492 25.3112C29.6826 30.6571 27.5391 35.7643 25.5149 40.9738C25.3134 41.4918 26.0397 41.9398 26.2706 41.4163Z" fill="#231F20"/>
<path d="M31.2669 37.5158C32.7666 35.3472 33.9389 32.9394 35.2123 30.6194C35.2798 30.5071 35.2976 30.374 35.2618 30.2492C35.226 30.1245 35.1396 30.0184 35.0214 29.9542C34.9033 29.8901 34.7632 29.8732 34.632 29.9072C34.5008 29.9412 34.3891 30.0234 34.3216 30.1356C32.99 32.3855 31.5641 34.6926 30.418 37.032C30.2062 37.5924 30.9308 37.9977 31.2669 37.5158Z" fill="#231F20"/>
<path d="M51.171 29.7099C53.3337 25.8236 55.2179 21.7951 56.81 17.6535C57.0068 17.1608 56.1868 16.9309 55.9545 17.4254C54.3208 21.4921 52.3488 25.3411 50.506 29.3277C50.3163 29.7482 50.9315 30.1252 51.171 29.7099Z" fill="#231F20"/>
<path d="M57.07 25.8349C58.1918 24.5427 59.172 23.0775 60.181 21.7169C60.5444 21.2256 59.7001 20.8131 59.3727 21.2637C58.3767 22.632 57.2716 23.945 56.4236 25.3436C56.1406 25.7216 56.7436 26.2111 57.07 25.8349Z" fill="#231F20"/>
<path d="M58.4411 44.3734C55.9452 50.5362 53.0951 56.4959 50.5079 62.5843C50.3066 63.0574 50.9651 63.4906 51.2111 62.9804C54.1203 56.9708 56.7575 50.77 59.2624 44.571C59.4502 44.0952 58.6335 43.8967 58.4411 44.3734Z" fill="#231F20"/>
<path d="M57.9818 55.7443C59.8181 53.6132 61.2477 51.1673 62.2007 48.5266C62.393 48.0193 61.5867 47.8015 61.3935 48.308C60.3686 50.7905 59.0245 53.1307 57.3948 55.2704C57.1419 55.6333 57.6921 56.0731 57.9818 55.7443Z" fill="#231F20"/>
<path d="M34.8722 49.7939C32.351 56.5041 29.3889 63.1846 27.4539 70.07C27.3356 70.4912 28.0023 70.7575 28.164 70.3765C30.9806 63.7319 33.2064 56.8063 35.7403 50.0233C35.9399 49.4891 35.0727 49.2597 34.8722 49.7939Z" fill="#231F20"/>
<path d="M33.5713 64.5017C34.8497 62.5403 35.9736 60.4959 37.1793 58.4658C37.4558 57.9995 36.716 57.535 36.4341 58.037C35.2877 60.0795 33.986 62.0214 32.8657 64.113C32.8241 64.205 32.8187 64.3091 32.8507 64.4047C32.8828 64.5004 32.9498 64.5806 33.0386 64.6295C33.1273 64.6784 33.2313 64.6924 33.33 64.6688C33.4287 64.6451 33.5148 64.5855 33.5713 64.5017Z" fill="#231F20"/>
<path d="M14.7511 63.9306C13.0318 66.7684 11.7022 69.8227 10.7976 73.0119C10.6541 73.5065 11.4181 73.698 11.5965 73.2397C12.7047 70.1999 14.0519 67.2517 15.6257 64.4226C15.8963 63.8934 15.0809 63.3936 14.7511 63.9306Z" fill="#231F20"/>
<path d="M14.8699 71.754C14.1862 72.7991 13.4618 73.793 12.8059 74.8676C12.528 75.3256 13.2042 75.6923 13.4942 75.2819C14.2066 74.2738 14.9153 73.2514 15.5981 72.211C15.9242 71.7141 15.196 71.258 14.8699 71.754Z" fill="#231F20"/>
<path d="M190.156 124.646C190.633 129.361 190.608 134.113 190.081 138.823C187.824 139.611 185.369 139.624 183.103 138.861C183.016 133.612 182.143 133.303 183.216 124.382C183.284 123.814 182.42 123.852 182.352 124.382C181.672 129.243 181.609 134.172 182.164 139.049C182.223 139.266 182.34 139.463 182.503 139.617C183.762 140.257 185.149 140.602 186.56 140.628C187.971 140.654 189.37 140.36 190.651 139.768C190.755 139.77 190.856 139.732 190.934 139.662C191.011 139.592 191.058 139.495 191.066 139.39C191.789 134.475 191.764 129.479 190.991 124.571C190.948 124.004 190.117 124.119 190.156 124.646Z" fill="#231F20"/>
<path d="M119.993 137.216C120.853 130.867 122.656 124.672 125.344 118.828C129.606 109.95 133.136 108.978 140.551 110.388C140.688 110.478 140.847 110.531 141.011 110.543C141.176 110.554 141.341 110.524 141.49 110.455C141.639 110.386 141.767 110.28 141.861 110.149C141.956 110.017 142.014 109.863 142.029 109.703C142.158 107.85 142.111 105.989 141.889 104.145C141.894 104.047 141.878 103.95 141.843 103.859C141.808 103.767 141.754 103.684 141.685 103.613C141.616 103.543 141.533 103.487 141.441 103.448C141.349 103.41 141.25 103.39 141.15 103.39C141.05 103.39 140.951 103.41 140.859 103.448C140.767 103.487 140.684 103.543 140.615 103.613C140.546 103.684 140.492 103.767 140.457 103.859C140.422 103.95 140.406 104.047 140.411 104.145C140.411 105.654 140.2 107.233 140.2 108.742C134.778 107.643 130.207 108.536 126.822 113.407C122.181 120.521 119.356 128.614 118.583 137.011C118.506 137.765 119.922 137.972 119.993 137.216Z" fill="#231F20"/>
<path d="M152.881 126.691C153.119 130.743 151.975 134.798 151.419 138.784C151.254 139.972 153.371 139.905 153.531 138.784C154.11 134.731 155.154 130.745 154.749 126.691C154.585 125.712 152.819 125.641 152.881 126.691Z" fill="#231F20"/>
<path d="M130.495 128.071C130.229 131.155 130.305 134.255 130.723 137.326C130.883 138.465 132.941 138.465 132.781 137.326C132.291 134.259 132.037 131.167 132.019 128.071C132.019 127.893 131.939 127.722 131.796 127.596C131.653 127.471 131.459 127.4 131.257 127.4C131.055 127.4 130.861 127.471 130.718 127.596C130.575 127.722 130.495 127.893 130.495 128.071Z" fill="#231F20"/>
<path d="M192.734 105.485C191.545 109.349 189.8 112.994 188.659 116.888C188.593 117.116 188.9 117.193 188.965 117.002C190.271 113.197 191.953 109.5 193.039 105.598C193.141 105.333 192.836 105.257 192.734 105.485Z" fill="#231F20"/>
<path d="M186.583 110.105C186.832 106.267 186.647 102.406 186.034 98.6284C186.002 98.3943 185.677 98.4729 185.713 98.7463C186.145 102.509 186.339 106.306 186.293 110.105C186.299 110.145 186.317 110.182 186.344 110.209C186.37 110.235 186.403 110.25 186.438 110.25C186.472 110.25 186.505 110.235 186.532 110.209C186.558 110.182 186.576 110.145 186.583 110.105Z" fill="#231F20"/>
<path d="M184.722 115.88C184.109 112.35 183.239 108.875 182.12 105.486C182.115 105.463 182.105 105.44 182.091 105.42C182.077 105.401 182.059 105.384 182.039 105.372C182.019 105.36 181.996 105.353 181.973 105.351C181.95 105.348 181.927 105.351 181.905 105.359C181.882 105.367 181.862 105.379 181.845 105.396C181.828 105.412 181.814 105.433 181.804 105.455C181.795 105.477 181.79 105.502 181.79 105.526C181.79 105.551 181.795 105.575 181.804 105.598C182.676 109.07 183.363 112.595 184.371 115.992C184.378 116.016 184.389 116.039 184.404 116.059C184.419 116.078 184.438 116.095 184.459 116.107C184.481 116.119 184.504 116.126 184.528 116.129C184.552 116.132 184.576 116.129 184.599 116.122C184.622 116.115 184.644 116.102 184.662 116.086C184.681 116.07 184.697 116.051 184.708 116.028C184.72 116.006 184.727 115.981 184.729 115.956C184.732 115.93 184.729 115.905 184.722 115.88Z" fill="#231F20"/>
<path d="M138.51 89.4627C138.832 89.3463 139.174 89.3362 139.501 89.4334C139.827 89.5306 140.127 89.7318 140.371 90.0166C140.443 90.097 140.534 90.1464 140.63 90.1576C140.727 90.1687 140.824 90.141 140.907 90.0785C140.989 90.016 141.053 89.9222 141.089 89.8111C141.125 89.7001 141.13 89.5778 141.104 89.4627C140.808 87.9407 139.074 87.9375 138.285 88.6993C138.059 88.9771 138.227 89.5246 138.51 89.4627Z" fill="#231F20"/>
</g>
<defs>
<clipPath id="clip0_695_19475">
<rect width="196" height="196" fill="white"/>
</clipPath>
</defs>
</svg>
