<svg width="20" height="20" viewBox="0 0 20 20" fill="none" xmlns="http://www.w3.org/2000/svg">
<path d="M5 9.16797C5 6.81095 5 5.63243 5.73223 4.9002C6.46447 4.16797 7.64298 4.16797 10 4.16797H12.5C14.857 4.16797 16.0355 4.16797 16.7678 4.9002C17.5 5.63243 17.5 6.81095 17.5 9.16797V13.3346C17.5 15.6917 17.5 16.8702 16.7678 17.6024C16.0355 18.3346 14.857 18.3346 12.5 18.3346H10C7.64298 18.3346 6.46447 18.3346 5.73223 17.6024C5 16.8702 5 15.6917 5 13.3346V9.16797Z" stroke="#444041" stroke-width="1.25"/>
<path d="M5 15.8346C3.61929 15.8346 2.5 14.7153 2.5 13.3346V8.33463C2.5 5.19194 2.5 3.62059 3.47631 2.64428C4.45262 1.66797 6.02397 1.66797 9.16667 1.66797H12.5C13.8807 1.66797 15 2.78726 15 4.16797" stroke="#444041" stroke-width="1.25"/>
</svg>
