<svg width="20" height="20" viewBox="0 0 20 20" fill="none" xmlns="http://www.w3.org/2000/svg">
<path d="M17.0833 5H2.9166" stroke="#444041" stroke-width="1.25" stroke-linecap="round"/>
<path d="M15.6944 7.08203L15.3112 12.8313C15.1637 15.0437 15.0899 16.1499 14.3691 16.8243C13.6482 17.4987 12.5396 17.4987 10.3222 17.4987H9.67777C7.46043 17.4987 6.35176 17.4987 5.63092 16.8243C4.91008 16.1499 4.83634 15.0437 4.68884 12.8313L4.30556 7.08203" stroke="#444041" stroke-width="1.25" stroke-linecap="round"/>
<path d="M7.91667 9.16797L8.33334 13.3346" stroke="#444041" stroke-width="1.25" stroke-linecap="round"/>
<path d="M12.0833 9.16797L11.6667 13.3346" stroke="#444041" stroke-width="1.25" stroke-linecap="round"/>
<path d="M5.41667 5C5.46324 5 5.48652 5 5.50763 4.99947C6.19383 4.98208 6.79919 4.54576 7.03269 3.90027C7.03987 3.88041 7.04723 3.85832 7.06196 3.81415L7.14286 3.57143C7.21193 3.36423 7.24646 3.26063 7.29227 3.17267C7.47501 2.82173 7.81312 2.57803 8.20385 2.51564C8.30178 2.5 8.41098 2.5 8.62939 2.5H11.3706C11.589 2.5 11.6982 2.5 11.7962 2.51564C12.1869 2.57803 12.525 2.82173 12.7077 3.17267C12.7535 3.26063 12.7881 3.36423 12.8571 3.57143L12.9381 3.81415C12.9528 3.85826 12.9601 3.88042 12.9673 3.90027C13.2008 4.54576 13.8062 4.98208 14.4924 4.99947C14.5135 5 14.5368 5 14.5833 5" stroke="#444041" stroke-width="1.25"/>
</svg>
