<svg width="25" height="24" viewBox="0 0 25 24" fill="none" xmlns="http://www.w3.org/2000/svg">
<path d="M2.85449 11.9997C2.85449 8.38557 2.85449 6.57852 4.02607 5.45577C5.19764 4.33301 7.08326 4.33301 10.8545 4.33301H14.8545C18.6257 4.33301 20.5113 4.33301 21.6829 5.45577C22.8545 6.57852 22.8545 8.38557 22.8545 11.9997C22.8545 15.6138 22.8545 17.4208 21.6829 18.5436C20.5113 19.6663 18.6257 19.6663 14.8545 19.6663H10.8545C7.08326 19.6663 5.19764 19.6663 4.02607 18.5436C2.85449 17.4208 2.85449 15.6138 2.85449 11.9997Z" stroke="#A19B9D" stroke-width="1.5"/>
<path d="M6.85449 8.16699L9.01339 9.89111C10.85 11.3579 11.7683 12.0912 12.8545 12.0912C13.9406 12.0912 14.859 11.3579 16.6956 9.89111L18.8545 8.16699" stroke="#A19B9D" stroke-width="1.5" stroke-linecap="round"/>
</svg>
