<svg width="20" height="20" viewBox="0 0 20 20" fill="none" xmlns="http://www.w3.org/2000/svg">
<path d="M13.8767 2.88052L14.4174 2.33984C15.3132 1.44401 16.7656 1.44401 17.6615 2.33984C18.5573 3.23567 18.5573 4.68809 17.6615 5.58392L17.1208 6.1246M13.8767 2.88052C13.8767 2.88052 13.9443 4.02946 14.9581 5.04324C15.9718 6.05701 17.1208 6.1246 17.1208 6.1246M13.8767 2.88052L8.90599 7.85124C8.56931 8.18792 8.40097 8.35626 8.2562 8.54187C8.08542 8.76082 7.939 8.99773 7.81954 9.2484C7.71827 9.4609 7.64298 9.68675 7.49242 10.1384L7.01035 11.5846M17.1208 6.1246L12.1501 11.0953C11.8134 11.432 11.645 11.6003 11.4594 11.7451C11.2405 11.9159 11.0036 12.0623 10.7529 12.1818C10.5404 12.283 10.3146 12.3583 9.86286 12.5089L8.41667 12.991M8.41667 12.991L7.48091 13.3029C7.25863 13.377 7.01356 13.3191 6.84787 13.1534C6.68219 12.9878 6.62434 12.7427 6.69843 12.5204L7.01035 11.5846M8.41667 12.991L7.01035 11.5846" stroke="#444041" stroke-width="1.25"/>
<path d="M18.3333 10.0013C18.3333 14.6037 14.6024 18.3346 10 18.3346C5.39763 18.3346 1.66667 14.6037 1.66667 10.0013C1.66667 5.39893 5.39763 1.66797 10 1.66797" stroke="#444041" stroke-width="1.25" stroke-linecap="round"/>
</svg>
