<svg width="122" height="110" viewBox="0 0 122 110" fill="none" xmlns="http://www.w3.org/2000/svg">
<path fill-rule="evenodd" clip-rule="evenodd" d="M50.712 20.6082C47.3114 17.7471 42.521 16.1591 36.2806 17.0253C15.9203 19.8509 17.4678 43.7402 28.015 49.4592C30.161 50.6234 30.8406 51.7165 28.4861 55.0732C27.7211 56.1638 26.8218 57.0931 25.8768 58.0697C23.2641 60.7705 20.303 63.831 18.8714 71.6448C18.2397 75.0905 18.2954 80.0025 19.7853 83.04C21.183 85.8912 34.3427 85.0406 45.4954 83.4944C52.091 82.5798 59.2959 81.2403 64.2006 79.6524C58.8949 79.102 53.8019 77.2646 49.2611 74.3212C27.208 60.0358 32.1498 32.1819 50.712 20.6082Z" fill="#088542"/>
<path fill-rule="evenodd" clip-rule="evenodd" d="M64.5956 0.766686C64.6699 0.85443 64.7159 0.966622 64.7812 1.10109C65.0103 1.57097 66.1099 7.17904 67.6439 15.4083C67.171 15.4299 66.6961 15.461 66.218 15.5019C64.9335 8.14992 64.0574 3.02601 63.9735 2.27549C63.9198 1.78909 63.6881 1.79357 63.3252 1.85757C54.5564 3.40918 33.2215 6.26441 20.5581 7.9592C14.6525 8.7496 10.6329 9.28752 10.6532 9.32317C10.7506 9.86691 11.0519 10.5582 11.4312 11.4281C12.3509 13.5378 13.7287 16.6983 13.7668 21.3552C13.7771 22.5955 13.6612 23.6924 12.346 23.7916C10.5337 23.9285 8.72536 24.1807 6.92267 24.4321C6.22289 24.5297 5.52395 24.6272 4.82603 24.7177C4.481 24.7625 4.16939 24.8016 3.88817 24.8369C1.50343 25.1363 1.3037 25.1614 1.46858 26.0252C4.56804 42.237 7.42469 59.6835 9.70424 73.6054C12.2791 89.3308 14.1177 100.56 14.739 100.438C20.4932 99.3072 74.6468 92.3766 79.5268 91.9427C79.6305 91.9331 79.7137 91.9343 79.7707 91.8966C80.0331 91.7232 79.7598 90.7388 78.5015 84.2467C78.4932 84.3017 78.0817 82.0816 77.4027 78.3382C77.8955 78.1872 78.3876 78.024 78.8791 77.8486C80.4158 86.5654 81.4366 92.4304 81.4353 92.5315C81.4276 93.3251 81.3924 93.3296 77.0673 93.878C75.779 94.0419 74.1092 94.2537 71.9467 94.5488C67.7707 95.119 18.1131 101.643 14.2603 101.699C13.949 101.704 13.696 101.71 13.4762 101.628C11.8448 101.017 12.0435 95.519 3.80267 48.0988C3.80267 48.0854 3.21487 44.4499 2.5817 40.5337C1.88883 36.2484 1.14161 31.6268 1.05066 31.0467C0.919923 30.2133 0.797644 29.48 0.688825 28.8273C0.0895932 25.2335 -0.10178 24.0857 0.949536 22.1564C7.51908 10.0879 8.18187 8.55056 9.2522 8.1752C9.45323 8.10467 9.66865 8.07517 9.94027 8.02461C15.1922 7.04989 40.3784 3.60957 51.3338 2.11312C52.6071 1.93923 53.6881 1.79158 54.5233 1.67709C63.0641 0.512606 64.2116 0.315102 64.5956 0.766686ZM10.3273 12.3446C9.94321 11.4476 9.55345 10.5374 9.27467 9.55613C9.26507 9.57341 1.7361 23.9606 1.74954 23.9792C1.86737 24.1244 3.06769 23.8887 4.71128 23.5658C6.89732 23.1363 9.86744 22.5528 12.1175 22.5072C13.1678 22.4854 11.6452 16.2492 11.4174 15.3276C11.1638 14.2983 10.749 13.3295 10.3273 12.3446Z" fill="#088542"/>
<path d="M63.9159 15.7758C93.795 11.3195 115.6 44.9809 92.2641 69.3022C91.7732 69.8142 91.857 69.8251 95.7079 73.5902C100.545 78.3211 121.017 100.982 121.765 106.235C122.149 108.949 119.364 111.53 112.848 106.95C106.207 102.282 96.881 90.7307 91.7079 84.3767C84.2199 75.1799 85.3079 74.8843 83.569 75.7943C71.8679 81.9166 59.2343 80.7863 49.2612 74.3223C22.6295 57.0756 35.3662 20.0337 63.9159 15.7758ZM71.8161 77.8967C90.9617 75.3003 104.731 55.7463 99.2721 38.1527C94.4478 22.6007 76.2871 13.0212 59.1882 18.5323C47.8801 22.1732 38.7998 31.8859 36.673 43.4647C32.9086 63.9614 52.3134 80.5412 71.8161 77.8967ZM90.291 71.1358C87.1921 74.1841 85.7169 73.8475 86.4004 74.8593C86.4094 74.8721 109.252 106.23 118.875 107.743C126.333 108.917 91.4276 70.0139 90.2878 71.1358H90.291Z" fill="#231F20"/>
<path d="M92.552 79.0137C100.962 87.9206 103.413 92.3762 115.414 103.846C115.606 104.029 116.047 104.23 115.784 104.55C114.078 106.655 92.3849 80.9759 92.552 79.0137Z" fill="#231F20"/>
<path d="M71.6778 74.3939C51.5626 77.0934 33.8115 57.2336 43.3571 37.2956C52.1789 18.87 77.8531 15.4031 90.9469 31.0876C104.667 47.5215 92.561 71.5939 71.6778 74.3939ZM71.4346 73.103C77.2304 72.3485 82.6378 69.7789 86.8829 65.7616C91.1274 61.7443 93.9914 56.4861 95.0634 50.7407C99.0371 28.3849 70.2077 12.7926 51.2496 29.3276C31.048 46.95 46.7011 76.2499 71.432 73.1056L71.4346 73.103Z" fill="#231F20"/>
<path d="M61.9601 31.0509C63.1838 39.961 54.8913 47.4765 61.1108 50.393C64.7588 52.105 70.4299 53.6333 75.0974 59.7146C77.1166 62.3457 79.2107 65.6372 79.9435 68.8717C80.0075 69.1661 79.9774 69.3025 79.6235 69.4375C71.3329 72.5985 62.1982 72.2535 56.3633 68.8474C44.2673 61.7921 42.1963 51.1834 44.0427 44.4864C45.7681 38.24 49.8808 32.8954 52.6238 30.576C54.5426 29.0525 56.6027 27.716 58.7761 26.585C60.4344 25.9872 60.8504 25.8586 61.9601 31.0509ZM51.3752 37.9712C52.7985 37.9712 53.6792 38.857 52.851 40.3475C52.2622 41.408 50.3179 42.5158 51.2644 44.071C51.8526 45.0381 52.0894 43.7414 52.8644 42.8742C54.4196 41.136 55.3508 38.9216 53.7246 37.2762C52.355 35.8899 49.0526 36.9453 49.6382 38.0083C49.8641 38.4173 50.508 37.9712 51.3752 37.9712ZM61.7137 56.9889C61.9876 56.9876 62.2577 57.0554 62.4984 57.1853C62.7396 57.3153 62.9444 57.5041 63.0936 57.7332C63.2433 57.9629 63.3329 58.2266 63.354 58.4993C63.3758 58.7725 63.3284 59.0465 63.2164 59.2967C62.6692 60.8225 62.0004 61.0247 61.715 61.9207C61.2606 63.3569 62.1188 64.2541 62.5227 63.4151C63.7508 60.8615 63.9128 61.1572 64.3787 59.9527C65.1505 57.9604 63.9012 55.5245 61.7329 55.6045C58.8081 55.7133 58.2545 57.5969 59.5633 57.3191C60.2567 57.09 60.9835 56.978 61.7137 56.9889ZM52.7076 46.1939C52.7068 46.0821 52.6829 45.9716 52.6373 45.8695C52.5918 45.7674 52.5256 45.6758 52.4429 45.6005C52.3603 45.5252 52.2629 45.4678 52.157 45.4319C52.0511 45.396 51.9389 45.3825 51.8275 45.392C51.7161 45.4015 51.6078 45.434 51.5096 45.4875C51.4113 45.5409 51.3252 45.614 51.2566 45.7023C51.188 45.7906 51.1383 45.8922 51.1108 46.0005C51.0833 46.1089 51.0785 46.2218 51.0968 46.3322C51.13 46.5335 51.2381 46.7149 51.3992 46.8402C51.5604 46.9654 51.7628 47.0253 51.9661 47.0078C52.1695 46.9904 52.3588 46.8969 52.4962 46.746C52.6337 46.5951 52.7092 46.398 52.7076 46.1939ZM62.3441 65.113C62.1924 65.1335 62.0548 65.2116 61.9588 65.3313C61.8635 65.4503 61.8168 65.602 61.8296 65.7543C61.8424 65.9066 61.9134 66.0487 62.0273 66.1505C62.1412 66.2522 62.2904 66.306 62.4433 66.3015C63.1864 66.2413 63.2011 65.1988 62.3441 65.113Z" fill="#088542"/>
<path d="M83.477 40.9718C87.4956 63.5325 88.0095 63.528 86.1586 65.2118C85.7535 65.5805 85.8341 65.0141 85.8258 64.8918C85.2152 56.0809 82.581 46.8809 79.6863 25.9906C81.7125 25.2988 81.2972 28.735 83.477 40.9718Z" fill="#088542"/>
<path d="M70.4919 30.2425C74.4567 29.6934 77.3597 32.6144 75.8852 35.9686C75.0167 37.9449 73.85 38.6777 73.0628 40.9113C72.1207 43.5846 70.8017 40.6893 72.6423 37.952C73.1268 37.2313 76.9303 33.024 72.2167 31.8592C68.8471 31.0272 67.7533 33.5008 67.1421 32.8307C66.5815 32.2176 68.2525 30.5536 70.4919 30.2425Z" fill="#231F20"/>
<path d="M71.6311 44.9534C71.6132 44.8515 71.6158 44.7471 71.6388 44.6461C71.6612 44.5452 71.7041 44.4498 71.7636 44.3654C71.8238 44.281 71.8993 44.2093 71.987 44.1544C72.0753 44.0995 72.1726 44.0626 72.275 44.0457C72.3767 44.0288 72.4811 44.0322 72.5822 44.0559C72.6827 44.0796 72.778 44.123 72.8619 44.1835C72.9457 44.2442 73.0167 44.3208 73.0705 44.409C73.1249 44.4971 73.1607 44.5952 73.1767 44.6974C73.1947 44.7994 73.1921 44.9038 73.1691 45.0047C73.1467 45.1056 73.1038 45.201 73.0443 45.2854C72.9841 45.3698 72.9086 45.4415 72.8203 45.4964C72.7326 45.5513 72.6353 45.5883 72.5329 45.6052C72.4311 45.6221 72.3268 45.6186 72.2257 45.5949C72.1252 45.5713 72.0299 45.5279 71.946 45.4673C71.8622 45.4066 71.7911 45.33 71.7374 45.2418C71.683 45.1537 71.6471 45.0557 71.6311 44.9534Z" fill="#231F20"/>
</svg>
