<svg width="16" height="16" viewBox="0 0 16 16" fill="none" xmlns="http://www.w3.org/2000/svg">
<path d="M13.3333 8.74074C13.3333 13.4815 9.3037 14.6667 7.28889 14.6667C5.52593 14.6667 2 13.4815 2 8.74074C2 6.88636 2.97431 5.64092 3.90664 4.92969C4.42561 4.5338 5.08693 4.92798 5.15345 5.57732L5.21067 6.13588C5.28035 6.81609 5.89955 7.37376 6.47288 7.00116C7.59585 6.27137 8 4.5168 8 3.55556V3.33981C8 2.38666 8.9625 1.77323 9.73484 2.33178C11.4435 3.56751 13.3333 5.72285 13.3333 8.74074Z" stroke="#444041"/>
<path d="M5.33331 12.2963C5.33331 14.1926 6.99257 14.6667 7.8222 14.6667C8.54813 14.6667 9.99998 14.1926 9.99998 12.2963C9.99998 11.5623 9.60713 11.0668 9.22693 10.7809C8.96161 10.5813 8.58849 10.7605 8.49725 11.0797C8.37832 11.4958 7.94849 11.7573 7.72959 11.384C7.52939 11.0425 7.52939 10.5304 7.52939 10.2222C7.52939 9.7979 7.10255 9.52314 6.75926 9.77258C6.07098 10.2727 5.33331 11.121 5.33331 12.2963Z" stroke="#444041"/>
</svg>
