<svg width="25" height="25" viewBox="0 0 25 25" fill="none" xmlns="http://www.w3.org/2000/svg">
<path d="M2.63281 12.4461C2.63281 10.1577 2.63281 9.01346 3.15201 8.06493C3.67121 7.11639 4.61976 6.5277 6.51685 5.35031L8.51684 4.10906C10.5222 2.86448 11.5249 2.24219 12.6328 2.24219C13.7407 2.24219 14.7434 2.86448 16.7488 4.10906L18.7488 5.35031C20.6459 6.5277 21.5944 7.11639 22.1136 8.06493C22.6328 9.01346 22.6328 10.1577 22.6328 12.4461V13.9671C22.6328 17.868 22.6328 19.8185 21.4612 21.0303C20.2897 22.2422 18.404 22.2422 14.6328 22.2422H10.6328C6.86158 22.2422 4.97596 22.2422 3.80439 21.0303C2.63281 19.8185 2.63281 17.868 2.63281 13.9671V12.4461Z" stroke="#088542" stroke-width="1.5"/>
<path d="M9.63281 16.2422C10.4832 16.8725 11.5174 17.2422 12.6328 17.2422C13.7482 17.2422 14.7824 16.8725 15.6328 16.2422" stroke="#088542" stroke-width="1.5" stroke-linecap="round"/>
</svg>
