<svg width="20" height="21" viewBox="0 0 20 21" fill="none" xmlns="http://www.w3.org/2000/svg">
<path d="M10 10.4388L7.53526 12.8796C5.09985 15.2913 3.88214 16.4972 4.22305 17.5376C4.25235 17.627 4.28874 17.714 4.33188 17.7977C4.83372 18.7721 6.55582 18.7721 10 18.7721C13.4442 18.7721 15.1663 18.7721 15.6681 17.7977C15.7113 17.714 15.7477 17.627 15.777 17.5376C16.1179 16.4972 14.9002 15.2913 12.4648 12.8796L10 10.4388ZM10 10.4388L12.4648 7.99802C14.9002 5.5863 16.1179 4.38044 15.777 3.34004C15.7477 3.25061 15.7113 3.16361 15.6681 3.07985C15.1663 2.10547 13.4442 2.10547 10 2.10547C6.55582 2.10547 4.83372 2.10547 4.33188 3.07985C4.28874 3.16361 4.25235 3.25061 4.22305 3.34004C3.88214 4.38044 5.09985 5.5863 7.53526 7.99803L10 10.4388Z" stroke="#444041"/>
</svg>
