<svg width="196" height="196" viewBox="0 0 196 196" fill="none" xmlns="http://www.w3.org/2000/svg">
<g clip-path="url(#clip0_799_56292)">
<path d="M48.6498 91.8763C48.8314 92.0286 49.0438 92.1413 49.2729 92.2071C49.5021 92.2728 49.7428 92.2901 49.9792 92.2577C50.2157 92.2253 50.4425 92.1441 50.6446 92.0193C50.8468 91.8945 51.0198 91.729 51.1522 91.5338C51.3848 92.1454 51.6635 92.7393 51.9858 93.3103C52.401 94.2627 52.5791 94.8742 53.6545 94.8742C58.2266 95.4356 58.1089 94.6975 58.8661 93.0288C59.9797 90.5751 61.0376 88.1183 62.0621 85.6505C62.158 85.4984 62.2146 85.3255 62.2268 85.1469C62.239 84.9683 62.2065 84.7895 62.1321 84.6262C62.0049 84.503 61.8518 84.4087 61.6836 84.3498C61.5155 84.2909 61.3362 84.2689 61.1585 84.2852C57.4757 84.2508 53.7229 84.5589 50.0402 84.831C48.1614 85.0953 48.9409 85.8397 49.6934 87.5647C47.821 87.3426 46.4735 90.3546 48.6498 91.8763ZM60.3249 86.1369C57.3023 92.0796 57.3548 91.6933 56.8505 92.9694C56.3637 92.9694 55.8085 93.0366 55.3217 93.0366C54.8111 93.0252 54.3003 93.0482 53.7929 93.1055C52.8823 90.8275 51.814 88.6136 50.5954 86.4793C53.4859 86.5919 53.7913 87.8884 60.3249 86.1322V86.1369Z" fill="#088542"/>
<path d="M61.9247 90.166C60.8951 90.042 60.8982 91.8824 61.9247 91.9698C67.2814 92.4291 63.218 95.204 60.4855 96.067C56.9918 97.0914 53.3271 97.3749 49.7203 96.8998C47.0082 96.1751 45.6946 93.3621 48.1508 92.8042C48.832 92.6453 48.6295 91.3452 48.0127 91.4851C45.3446 91.8316 43.1598 94.2473 45.7511 96.8998C48.8539 100.078 55.9732 98.8753 59.6003 98.0791C61.7301 97.6134 65.1312 96.6837 65.9756 93.9135C66.9047 90.851 63.9101 90.4028 61.9247 90.166Z" fill="#088542"/>
<path d="M101.595 116.777H101.455C101.174 115.943 100.776 115.152 100.272 114.428C100.328 114.226 100.351 114.016 100.34 113.807C100.131 110.699 94.6294 110.827 92.8864 110.768C90.3093 110.683 85.2939 110.561 84.5938 114.221V114.298C78.7427 119.892 85.2907 128.87 91.7701 128.87C93.8184 128.835 95.8121 128.209 97.5072 127.068C99.2023 125.928 100.525 124.322 101.315 122.448H101.385C103.265 122.655 107.177 122.655 107.306 119.761C107.458 116.363 103.546 116.57 101.595 116.777ZM92.4686 112.495C93.6535 112.495 97.4761 112.224 98.2511 113.392C99.4918 115.266 94.7698 116.645 93.7858 116.845C92.4178 117.253 90.9583 117.247 89.5935 116.829C88.2287 116.411 87.0206 115.599 86.1231 114.498C86.8966 112.218 90.7271 112.495 92.4686 112.495ZM99.7135 122.233C99.1476 123.342 98.3529 124.321 97.3809 125.106C96.409 125.892 95.2814 126.466 94.0713 126.791C88.5726 128.258 80.2082 121.817 85.364 115.533C87.383 118.434 90.7861 119.011 94.0011 118.434C95.9957 118.116 97.8704 117.283 99.436 116.017C99.9781 116.956 100.286 118.01 100.334 119.092C100.383 120.173 100.17 121.25 99.7135 122.233ZM105.496 119.746C105.177 120.481 102.694 120.45 101.874 120.368C101.943 119.725 101.943 119.077 101.874 118.434C102.849 118.434 106.057 118.436 105.496 119.746Z" fill="#088542"/>
<path d="M96.6943 119.096C93.6213 119.864 90.4307 120.05 87.2888 119.644C85.9828 119.376 85.6402 120.19 85.7785 120.874C87.0766 127.303 97.3763 126.823 97.9986 120.19C98.007 120.026 97.9771 119.862 97.9113 119.711C97.8455 119.56 97.7455 119.427 97.6192 119.321C97.4929 119.215 97.3436 119.139 97.1832 119.1C97.0227 119.061 96.8554 119.06 96.6943 119.096Z" fill="#088542"/>
<path d="M62.5224 106.387C58.3253 106.038 53.5202 107.375 49.3136 107.928C49.1835 107.956 49.0613 108.014 48.9562 108.097C48.851 108.18 48.7655 108.286 48.7061 108.407C48.6466 108.528 48.6147 108.661 48.6128 108.797C48.6108 108.932 48.6388 109.066 48.6947 109.189C48.9687 110.311 49.175 111.498 49.3814 112.689C48.4677 112.404 47.5165 112.262 46.5607 112.269C45.6268 112.196 44.7007 112.488 43.9718 113.087C43.2428 113.686 42.7661 114.545 42.6392 115.489C42.4549 118.081 45.3889 120.533 46.767 122.07C48.2773 123.754 49.7263 125.15 51.7894 124.171C52.2382 125.756 52.8134 127.302 53.5092 128.792C53.8541 129.492 54.9534 129.335 55.5739 129.282C57.9505 129.075 59.7868 129.699 60.527 129.072C61.4909 128.162 61.0184 126.133 61.146 124.94C62.0547 116.446 62.8075 113.967 63.0721 108.838C63.0721 108.279 63.2107 107.716 63.2107 107.227C63.215 107.026 63.1477 106.83 63.0212 106.676C62.8947 106.522 62.7175 106.419 62.5224 106.387ZM49.038 122.35C48.5806 121.927 48.1659 121.457 47.8001 120.95C46.8552 119.879 45.7969 118.857 44.9102 117.659C44.5719 117.344 44.3453 116.923 44.2654 116.464C44.1855 116.004 44.2568 115.53 44.4682 115.115C44.6797 114.701 45.0195 114.369 45.435 114.171C45.8506 113.973 46.3187 113.92 46.767 114.02C47.2489 114.02 49.2443 114.159 49.657 114.649C49.8586 114.649 50.1846 118.207 51.3768 122.7C50.9872 122.832 50.5727 122.869 50.1666 122.808C49.7604 122.747 49.3739 122.591 49.038 122.35ZM59.3584 127.671C57.8005 127.564 56.2373 127.564 54.6794 127.671C54.0111 126.161 53.4838 124.591 53.1044 122.98C54.8211 122.98 56.2543 122.35 59.8466 122.35C59.6325 124.101 59.4954 125.851 59.3647 127.671H59.3584ZM60.8719 114.579C57.7031 114.754 54.552 115.175 51.4461 115.839C50.9641 113.739 50.4822 111.708 50.0019 109.609C52.065 109.399 54.199 109.128 56.2621 108.977C58.1119 108.946 59.9545 108.735 61.7649 108.348C61.4909 110.449 61.1459 112.479 60.8719 114.579Z" fill="#088542"/>
<path d="M97.3883 87.6484C97.2161 86.4093 97.1457 85.1588 97.1777 83.9088C97.1779 83.6609 97.0866 83.4211 96.9204 83.2336C96.7541 83.0462 96.5242 82.9235 96.2728 82.8883C92.856 82.6156 89.4407 83.1594 86.0239 82.9553C85.8859 82.9353 85.7453 82.9663 85.6293 83.042C85.5134 83.1178 85.4305 83.2329 85.3967 83.365C85.2671 83.4157 85.1535 83.4991 85.0677 83.6067C84.9819 83.7143 84.9269 83.8422 84.9084 83.9774C84.7233 86.7422 84.7233 89.5159 84.9084 92.2807C85.0376 96.0779 84.3498 100.639 91.4611 100.925C94.0401 101.028 97.1681 100.667 97.8751 97.5222C98.0851 96.4914 98.1788 95.4412 98.1544 94.3904C100.804 94.8672 105.639 94.7285 105.336 90.8519C105.014 86.7602 100.036 87.0407 97.3883 87.6484ZM96.2712 96.4284C95.561 99.0118 93.9013 98.9121 91.9479 98.9464C90.4142 98.9729 88.0411 99.0165 87.0676 97.3135C86.5428 95.8977 86.3291 94.39 86.4404 92.8884C86.3016 90.1663 86.3718 87.4442 86.1627 84.7206C89.216 85.2976 92.3393 85.4351 95.4334 85.1288C95.9728 92.7388 96.7723 94.6054 96.2728 96.4284H96.2712ZM101.29 92.6157C100.194 92.7179 99.088 92.649 98.0139 92.4116L97.5958 89.1395C99.4774 88.8668 102.519 88.1641 103.59 90.2302C104.466 91.9176 102.406 92.5487 101.29 92.6157Z" fill="#088542"/>
<path d="M93.8256 90.4107C93.1936 89.9336 92.152 90.2707 91.4449 90.3445C90.2854 90.4634 89.1246 90.5221 87.9696 90.7388C87.3243 90.8592 87.8959 96.0217 89.5783 96.7216C90.1624 96.9788 90.8031 97.0722 91.4342 96.9922C92.0654 96.9122 92.6643 96.6618 93.1692 96.2666C93.6741 95.8715 94.0668 95.3459 94.3067 94.7441C94.5466 94.1423 94.6251 93.486 94.5342 92.8429C94.4723 92.0482 94.4163 90.8547 93.8256 90.4107Z" fill="#088542"/>
<path d="M151.869 139.65H135.082C135.359 139.096 132.583 121.758 135.914 109.76C136.608 109.76 137.302 109.83 138.064 109.898C137.578 111.84 136.192 117.666 137.51 121.758C137.51 121.758 150.69 121.272 150.69 120.996C151.092 117.984 151.162 114.937 150.898 111.91C151.572 112.178 152.222 112.503 152.841 112.881C153.789 121.805 153.461 130.818 151.869 139.65Z" fill="#088542"/>
<path d="M194.35 105.751C194.018 103.636 192.774 102.903 191.398 104.417C190.782 105.1 190.266 105.871 189.866 106.704C189.156 111.049 188.334 115.428 187.288 119.703C187.265 119.767 187.222 119.82 187.165 119.855C187.109 119.889 187.042 119.904 186.977 119.895C186.912 119.886 186.851 119.854 186.806 119.805C186.76 119.757 186.732 119.694 186.727 119.627C187.083 115.397 187.834 111.211 188.969 107.126C189.224 104.673 188.969 102.193 188.222 99.8474C187.994 99.1069 187.567 98.4467 186.988 97.942C186.692 97.6993 186.331 97.5516 185.952 97.5176C185.573 97.4836 185.192 97.5648 184.858 97.7509C184.444 98.0878 184.154 98.5581 184.036 99.0849C183.67 100.358 183.556 101.692 183.7 103.011C184.402 104.285 184.954 105.64 185.344 107.046C185.361 107.127 185.349 107.212 185.31 107.285C185.272 107.359 185.21 107.416 185.135 107.448C185.06 107.479 184.976 107.483 184.898 107.459C184.82 107.434 184.753 107.382 184.709 107.313C184.135 106.122 183.624 104.9 183.177 103.654C183.095 103.595 183.007 103.544 182.916 103.502C182.616 103.333 182.276 103.251 181.934 103.264C181.591 103.277 181.259 103.386 180.972 103.578C179.731 104.548 180.556 107.025 181.047 108.533C182.383 112.626 183.775 116.688 185.158 120.766C184.302 120.88 182.559 121.341 182.728 122.404C182.795 122.825 183.29 123.015 183.7 123.091C185.598 123.456 189.466 124.035 190.277 122.253C190.38 122.056 190.417 121.83 190.384 121.61C190.35 121.39 190.247 121.187 190.09 121.031C189.694 120.706 189.165 120.782 188.52 120.688C190.529 118.623 192.161 116.21 193.341 113.561C193.698 112.869 193.985 112.141 194.196 111.389C194.582 109.535 194.634 107.624 194.35 105.751ZM184.56 116.308C183.483 112.784 182.692 109.181 181.832 105.637C181.794 105.408 182.094 105.293 182.168 105.523C183.357 109.002 184.282 112.569 184.934 116.194C184.949 116.244 184.943 116.299 184.919 116.345C184.894 116.392 184.852 116.426 184.803 116.441C184.753 116.456 184.7 116.451 184.654 116.426C184.609 116.401 184.575 116.358 184.56 116.308ZM186.014 98.8144C186.733 102.501 186.947 106.272 186.65 110.019C186.612 110.248 186.275 110.248 186.276 110.019C186.379 106.31 186.154 102.598 185.603 98.9296C185.606 98.6626 185.978 98.5832 186.017 98.8144H186.014ZM188.666 117.07C188.651 117.116 188.619 117.153 188.577 117.175C188.535 117.196 188.486 117.2 188.442 117.185C188.397 117.169 188.36 117.137 188.339 117.094C188.318 117.051 188.315 117.002 188.33 116.956C189.585 113.038 191.522 109.377 192.814 105.484C192.889 105.256 193.266 105.333 193.188 105.599C192.02 109.544 189.997 113.2 188.67 117.07H188.666Z" fill="#088542"/>
<path d="M25.4929 91.63C25.3596 91.63 25.2317 91.7332 25.1375 91.9168C25.0432 92.1005 24.9902 92.3495 24.9902 92.6093C24.9902 92.869 25.0432 93.118 25.1375 93.3017C25.2317 93.4853 25.3596 93.5885 25.4929 93.5885C26.1294 93.6527 26.1294 91.63 25.4929 91.63Z" fill="#231F20"/>
<path d="M210.679 141.355C137.567 140.845 64.3048 141.27 -8.80056 141.639C-9.06996 141.646 -9.32423 141.715 -9.51053 141.831C-9.69682 141.947 -9.80078 142.102 -9.80078 142.262C-9.80078 142.423 -9.69682 142.577 -9.51053 142.693C-9.32423 142.809 -9.06996 142.878 -8.80056 142.886C64.3005 143.168 137.563 143.197 210.679 142.601C210.948 142.594 211.203 142.525 211.389 142.409C211.575 142.293 211.679 142.139 211.679 141.978C211.679 141.818 211.575 141.663 211.389 141.547C211.203 141.431 210.948 141.362 210.679 141.355Z" fill="#231F20"/>
<path d="M139.181 92.6098C139.351 92.6098 139.518 92.5543 139.664 92.449C139.811 92.3437 139.932 92.1923 140.016 92.0104C140.099 91.8284 140.142 91.6224 140.14 91.4135C140.137 91.2045 140.09 91.0001 140.002 90.821C140.003 90.8107 140.001 90.8004 139.998 90.7908C139.995 90.7811 139.99 90.7724 139.984 90.7651C139.978 90.7578 139.971 90.752 139.963 90.7482C139.956 90.7443 139.947 90.7425 139.939 90.7427C139.862 90.5667 139.749 90.4195 139.61 90.3168C139.471 90.2142 139.312 90.16 139.15 90.16C138.988 90.16 138.829 90.2142 138.69 90.3168C138.551 90.4195 138.437 90.5667 138.36 90.7427C138.361 90.7529 138.359 90.763 138.356 90.7725C138.353 90.782 138.349 90.7907 138.343 90.798C138.337 90.8053 138.33 90.8111 138.322 90.815C138.315 90.819 138.307 90.821 138.298 90.821C138.216 91.0073 138.176 91.2166 138.18 91.4283C138.184 91.64 138.234 91.8466 138.323 92.0276C138.412 92.2085 138.539 92.3575 138.689 92.4596C138.84 92.5618 139.009 92.6136 139.181 92.6098Z" fill="#231F20"/>
<path d="M140.082 98.4644C140.454 98.4236 140.813 98.2908 141.136 98.075C141.46 97.8591 141.739 97.5653 141.955 97.2134C142.46 96.4609 141.523 95.7943 141.019 96.1286C140.603 96.391 140.17 96.6139 139.723 96.7951C139.628 96.8225 139.539 96.8711 139.461 96.9383C139.383 97.0055 139.316 97.09 139.266 97.1868C139.216 97.2836 139.183 97.391 139.168 97.5027C139.154 97.6144 139.159 97.7284 139.182 97.838C139.206 97.9476 139.248 98.0507 139.306 98.1415C139.364 98.2323 139.437 98.309 139.52 98.3672C139.604 98.4254 139.697 98.4639 139.793 98.4806C139.889 98.4973 139.988 98.4918 140.082 98.4644Z" fill="#231F20"/>
<path d="M137.841 87.7466C138.771 87.1704 139.801 86.7687 140.88 86.5617C145.489 85.6478 142.579 91.6651 144.764 91.2999C148.374 90.6987 148.863 93.319 146.743 94.5741C146.555 94.5367 146.359 94.5567 146.182 94.6313C146.005 94.7059 145.855 94.8317 145.753 94.992C144.976 95.3396 145.117 98.196 145.471 101.193C145.471 104.118 145.513 106.977 145.329 109.9C145.318 110.075 145.362 110.248 145.454 110.396C145.547 110.545 145.684 110.662 145.847 110.73C146.01 110.799 146.19 110.816 146.363 110.78C146.537 110.744 146.694 110.655 146.814 110.527H146.884C160.952 112.76 162.331 127.804 162.295 139.234C162.295 139.474 162.392 139.705 162.565 139.875C162.737 140.045 162.971 140.14 163.215 140.14C163.458 140.14 163.692 140.045 163.864 139.875C164.037 139.705 164.134 139.474 164.134 139.234C164.381 127.522 161.943 110.601 147.167 109.207C147.167 108.789 147.238 108.301 147.238 107.813C149.713 107.813 157.845 106.979 159.468 96.8755C161.381 84.9637 151.061 77.4584 141.794 79.8108C140.322 80.1313 138.942 80.7735 137.755 81.6899C136.568 82.6063 135.605 83.7736 134.937 85.1056C134.756 85.4983 134.704 85.9375 134.791 86.3606C134.877 86.7836 135.097 87.169 135.419 87.4617C135.741 87.7545 136.148 87.9396 136.583 87.9908C137.018 88.0419 137.458 87.9565 137.841 87.7466Z" fill="#231F20"/>
<path d="M135.178 96.7726H135.245C135.245 96.8379 135.178 96.9047 135.178 96.9715C135.215 97.9249 135.498 98.8526 135.998 99.6657C136.499 100.479 137.2 101.15 138.036 101.614C138.945 101.946 139.931 102.009 140.875 101.798C141.82 101.586 142.684 101.108 143.364 100.421C143.973 99.839 143.098 99.0279 142.432 99.4927C139.598 101.725 136.862 101.011 136.181 96.7058C136.156 96.5748 136.086 96.4569 135.982 96.3732C136.013 96.2489 136.004 96.1179 135.956 95.9989C135.908 95.88 135.824 95.7792 135.715 95.711C135.383 95.512 134.918 95.3784 134.918 94.9136C135.45 94.0651 136.027 93.2459 136.647 92.4593C136.987 91.9338 136.181 91.3324 135.782 91.7956C134.94 92.6359 134.263 93.6259 133.786 94.7147C133.648 95.9099 134.382 96.3079 135.178 96.7726Z" fill="#231F20"/>
<path d="M35.1534 78.7924C35.3608 97.2346 36.1555 115.591 36.6051 133.979C36.6149 134.113 36.6571 134.243 36.7279 134.357C36.7988 134.472 36.8962 134.567 37.0118 134.635C37.1275 134.703 37.2579 134.742 37.392 134.749C37.526 134.756 37.6596 134.729 37.7813 134.673C71.8944 134.328 96.9267 132.184 112.468 132.524C112.592 132.53 112.716 132.502 112.826 132.444C112.935 132.385 113.027 132.297 113.091 132.191C113.155 132.084 113.189 131.961 113.189 131.837C113.189 131.712 113.156 131.59 113.092 131.483C113.299 112.979 112.676 94.2508 111.567 75.8118C111.552 75.5961 111.459 75.3932 111.307 75.2405C111.154 75.0877 110.951 74.9953 110.736 74.9802C85.7024 74.8754 60.4294 75.5753 35.4257 77.337C34.6673 77.391 34.5993 78.4464 35.1534 78.7924ZM37.574 105.484C39.1412 105.643 71.315 104.559 72.7049 104.515C73.1197 113.388 73.8131 122.263 74.6411 131.067C74.6548 131.214 74.7019 131.357 74.7788 131.483C62.6078 131.968 50.3671 132.384 38.1961 133.217C37.9887 123.996 37.8494 114.705 37.574 105.484ZM46.9144 103.897C43.7857 104.145 40.6455 104.214 37.509 104.105C37.3017 95.7157 37.0246 87.258 36.5402 78.8702C48.3661 78.8003 60.2616 78.6622 72.0859 78.3147C72.0179 86.4962 72.2253 94.746 72.5704 102.997C63.5988 103.348 55.3999 103.661 46.9096 103.891L46.9144 103.897ZM79.21 131.281C78.1714 131.337 77.0664 131.351 76.0279 131.421C76.3002 131.148 75.4295 125.664 74.4448 104.451C86.4084 104.035 98.372 103.62 110.336 102.864C110.276 112.265 110.738 121.663 111.719 131.013C100.888 130.367 90.025 130.454 79.2052 131.275L79.21 131.281ZM110.054 76.6498C110.329 84.8313 110.261 93.0811 110.329 101.331C98.3657 101.747 86.3324 102.372 74.3688 102.856C73.954 94.6762 73.677 86.4248 73.3999 78.175C85.6359 77.8909 97.8765 77.4068 110.049 76.6434L110.054 76.6498Z" fill="#231F20"/>
<path d="M3.18971 97.6105C3.19459 97.7155 3.23954 97.8145 3.31521 97.887C3.39088 97.9595 3.49146 98 3.59606 98C3.70066 98 3.80124 97.9595 3.87691 97.887C3.95258 97.8145 3.99752 97.7155 4.0024 97.6105C4.07951 86.1013 4.0024 74.5947 3.8863 63.0873C10.0803 59.9385 16.1972 56.5557 22.198 53.0572C22.237 64.4489 22.4302 75.8407 22.5082 87.2325C22.5132 87.3425 22.5602 87.4464 22.6396 87.5225C22.7189 87.5986 22.8243 87.641 22.934 87.641C23.0437 87.641 23.1492 87.5986 23.2285 87.5225C23.3078 87.4464 23.3549 87.3425 23.3599 87.2325C23.476 75.6084 23.476 63.9844 23.437 52.3594C30.3657 48.3527 37.2191 44.2321 44.1912 40.2663C44.1912 55.2964 43.9829 63.3721 44.4234 72.8068C42.9912 73.9335 41.5874 75.0442 40.204 76.2278C39.8911 76.4948 40.313 77.0742 40.6683 76.8108C67.4659 56.9464 67.9392 57.2312 72.8011 52.9788C73.3807 52.4724 72.6398 51.53 71.9884 51.9296C66.5522 55.2617 61.6459 59.6591 56.5801 63.4762C52.8206 66.3081 49.031 69.1516 45.3531 72.0681C45.6624 62.3486 45.2751 52.5517 45.237 42.8713C45.2325 41.782 45.237 40.7354 45.198 39.6442C51.431 36.1066 57.703 32.6855 64.1682 29.575C64.0131 38.3609 63.9741 47.1842 64.0902 55.9727C64.0902 56.1016 64.1412 56.2252 64.2319 56.3163C64.3226 56.4075 64.4457 56.4587 64.5741 56.4587C64.7024 56.4587 64.8255 56.4075 64.9162 56.3163C65.007 56.2252 65.0579 56.1016 65.0579 55.9727C64.9037 38.6315 66.2154 21.1389 64.9809 3.83849C64.9418 3.29383 64.1203 3.29383 64.1292 3.83849C64.2645 12.0857 64.2775 20.3144 64.1682 28.5248C57.7411 31.6353 51.431 34.979 45.2024 38.4392C45.1634 29.769 45.0473 21.0997 45.0092 12.4686C45.0092 12.3603 44.9663 12.2564 44.8901 12.1798C44.8138 12.1032 44.7103 12.0601 44.6024 12.0601C44.4945 12.0601 44.3911 12.1032 44.3148 12.1798C44.2385 12.2564 44.1956 12.3603 44.1956 12.4686C44.1956 21.2937 44.2346 30.1579 44.2736 38.983C37.305 42.8713 30.4525 46.9145 23.5221 50.9185C23.4837 41.2379 23.458 31.5576 23.445 21.8775C23.445 21.7744 23.4042 21.6755 23.3315 21.6025C23.2589 21.5296 23.1604 21.4886 23.0577 21.4886C22.955 21.4886 22.8564 21.5296 22.7838 21.6025C22.7112 21.6755 22.6704 21.7744 22.6704 21.8775C22.5348 31.7937 22.3221 41.7046 22.3221 51.6181C16.2442 55.1175 10.1663 58.5777 3.97139 61.8822C3.85529 50.7245 3.85529 39.5294 3.97139 28.37C3.96638 28.2599 3.91934 28.156 3.84002 28.08C3.76071 28.0039 3.65524 27.9614 3.54554 27.9614C3.43585 27.9614 3.33038 28.0039 3.25106 28.08C3.17175 28.156 3.1247 28.2599 3.1197 28.37C3.0231 39.7235 2.85382 51.1126 2.8875 62.4652C0.874827 63.5536 -1.18127 64.5958 -3.22762 65.6139C-3.69291 65.8453 -3.26573 66.5092 -2.84033 66.3143C-0.902105 65.4244 0.992698 64.4863 2.88927 63.5554C2.84142 74.9845 3.07361 86.2953 3.18971 97.6105Z" fill="#231F20"/>
<path d="M9.86467 44.3739C10.9534 41.4219 11.9063 38.3995 12.7188 35.3205C12.871 34.7881 12.1796 34.561 12.0288 35.0934C11.1772 38.1091 10.2768 41.1318 9.3319 44.1111C9.30305 44.1965 9.30345 44.2921 9.33301 44.3771C9.36256 44.4621 9.41886 44.5294 9.48951 44.5642C9.56016 44.599 9.63937 44.5986 9.70973 44.5629C9.78009 44.5272 9.83582 44.4592 9.86467 44.3739Z" fill="#231F20"/>
<path d="M12.1297 46.3473C13.4532 44.1208 14.5025 41.7145 15.6278 39.4115C15.8932 38.8702 15.0642 38.4111 14.7968 38.9525C13.6375 41.3014 12.2859 43.6072 11.2987 46.0126C11.1115 46.4678 11.8774 46.771 12.1297 46.3473Z" fill="#231F20"/>
<path d="M26.2711 41.4163C28.5413 36.2432 30.5584 30.9483 32.3143 25.5526C32.5011 24.9886 31.6321 24.7471 31.4497 25.3112C29.6831 30.6571 27.5396 35.7643 25.5154 40.9739C25.3139 41.4919 26.0402 41.9398 26.2711 41.4163Z" fill="#231F20"/>
<path d="M31.2679 37.5158C32.7676 35.3472 33.9399 32.9394 35.2133 30.6194C35.2808 30.5071 35.2986 30.374 35.2628 30.2492C35.227 30.1245 35.1405 30.0184 35.0224 29.9542C34.9043 29.8901 34.7642 29.8732 34.633 29.9072C34.5017 29.9412 34.3901 30.0234 34.3226 30.1356C32.991 32.3855 31.5651 34.6926 30.419 37.032C30.2072 37.5924 30.9318 37.9977 31.2679 37.5158Z" fill="#231F20"/>
<path d="M51.1715 29.7099C53.3342 25.8235 55.2184 21.7951 56.8105 17.6535C57.0072 17.1608 56.1873 16.9309 55.9549 17.4254C54.3213 21.4921 52.3493 25.3411 50.5064 29.3277C50.3168 29.7482 50.932 30.1251 51.1715 29.7099Z" fill="#231F20"/>
<path d="M57.0695 25.8349C58.1913 24.5427 59.1716 23.0775 60.1805 21.7169C60.5439 21.2256 59.6996 20.8131 59.3722 21.2637C58.3762 22.632 57.2711 23.945 56.4231 25.3436C56.1401 25.7216 56.7431 26.2111 57.0695 25.8349Z" fill="#231F20"/>
<path d="M58.4416 44.3734C55.9457 50.5362 53.0956 56.4959 50.5084 62.5843C50.3071 63.0574 50.9655 63.4906 51.2116 62.9804C54.1208 56.9708 56.758 50.77 59.2628 44.571C59.4507 44.0952 58.634 43.8967 58.4416 44.3734Z" fill="#231F20"/>
<path d="M57.9818 55.7443C59.8181 53.6132 61.2477 51.1673 62.2007 48.5266C62.393 48.0193 61.5867 47.8015 61.3935 48.308C60.3686 50.7905 59.0245 53.1307 57.3948 55.2704C57.1419 55.6333 57.6921 56.0731 57.9818 55.7443Z" fill="#231F20"/>
<path d="M34.8717 49.7939C32.3505 56.5041 29.3884 63.1846 27.4534 70.07C27.3351 70.4912 28.0018 70.7575 28.1635 70.3765C30.9801 63.7319 33.2059 56.8063 35.7398 50.0233C35.9395 49.4891 35.0722 49.2597 34.8717 49.7939Z" fill="#231F20"/>
<path d="M33.5713 64.5017C34.8497 62.5403 35.9736 60.4959 37.1793 58.4658C37.4558 57.9995 36.716 57.535 36.4341 58.037C35.2877 60.0795 33.986 62.0214 32.8657 64.113C32.8241 64.205 32.8187 64.3091 32.8507 64.4047C32.8828 64.5004 32.9498 64.5806 33.0386 64.6295C33.1273 64.6784 33.2313 64.6924 33.33 64.6688C33.4287 64.6451 33.5148 64.5855 33.5713 64.5017Z" fill="#231F20"/>
<path d="M14.7506 63.9306C13.0313 66.7684 11.7017 69.8227 10.7972 73.0119C10.6536 73.5065 11.4176 73.698 11.596 73.2397C12.7042 70.1999 14.0514 67.2517 15.6252 64.4226C15.8958 63.8934 15.0804 63.3936 14.7506 63.9306Z" fill="#231F20"/>
<path d="M14.8699 71.754C14.1862 72.7991 13.4618 73.793 12.8059 74.8676C12.528 75.3256 13.2042 75.6923 13.4942 75.2819C14.2066 74.2738 14.9153 73.2514 15.5981 72.211C15.9242 71.7141 15.196 71.258 14.8699 71.754Z" fill="#231F20"/>
<path d="M190.156 124.646C190.632 129.361 190.607 134.113 190.08 138.823C187.823 139.611 185.368 139.624 183.102 138.861C183.015 133.612 182.142 133.303 183.215 124.382C183.283 123.814 182.419 123.852 182.351 124.382C181.671 129.243 181.608 134.172 182.163 139.049C182.222 139.266 182.339 139.463 182.502 139.617C183.761 140.257 185.148 140.602 186.559 140.628C187.97 140.654 189.369 140.36 190.65 139.768C190.754 139.77 190.856 139.732 190.933 139.662C191.01 139.592 191.057 139.495 191.065 139.39C191.788 134.475 191.763 129.479 190.99 124.571C190.947 124.004 190.116 124.119 190.156 124.646Z" fill="#231F20"/>
<path d="M119.993 137.216C120.853 130.867 122.656 124.672 125.344 118.828C129.606 109.95 133.136 108.978 140.551 110.388C140.688 110.478 140.847 110.531 141.011 110.543C141.176 110.554 141.341 110.524 141.49 110.455C141.639 110.386 141.767 110.28 141.861 110.149C141.956 110.017 142.014 109.863 142.029 109.703C142.158 107.85 142.111 105.989 141.889 104.145C141.894 104.047 141.878 103.95 141.843 103.859C141.808 103.767 141.754 103.684 141.685 103.613C141.616 103.543 141.533 103.487 141.441 103.448C141.349 103.41 141.25 103.39 141.15 103.39C141.05 103.39 140.951 103.41 140.859 103.448C140.767 103.487 140.684 103.543 140.615 103.613C140.546 103.684 140.492 103.767 140.457 103.859C140.422 103.95 140.406 104.047 140.411 104.145C140.411 105.654 140.2 107.233 140.2 108.742C134.778 107.643 130.207 108.536 126.822 113.407C122.181 120.521 119.356 128.614 118.583 137.011C118.506 137.765 119.922 137.972 119.993 137.216Z" fill="#231F20"/>
<path d="M152.881 126.691C153.119 130.743 151.975 134.798 151.419 138.784C151.254 139.972 153.371 139.905 153.531 138.784C154.11 134.731 155.154 130.745 154.749 126.691C154.585 125.712 152.819 125.641 152.881 126.691Z" fill="#231F20"/>
<path d="M130.495 128.071C130.229 131.155 130.305 134.255 130.723 137.326C130.883 138.465 132.941 138.465 132.781 137.326C132.291 134.259 132.037 131.167 132.019 128.071C132.019 127.893 131.939 127.722 131.796 127.596C131.653 127.471 131.459 127.4 131.257 127.4C131.055 127.4 130.861 127.471 130.718 127.596C130.575 127.722 130.495 127.893 130.495 128.071Z" fill="#231F20"/>
<path d="M192.734 105.485C191.546 109.349 189.801 112.994 188.66 116.888C188.593 117.116 188.9 117.193 188.965 117.002C190.272 113.197 191.953 109.5 193.04 105.598C193.142 105.333 192.836 105.257 192.734 105.485Z" fill="#231F20"/>
<path d="M186.584 110.105C186.832 106.267 186.648 102.406 186.035 98.6284C186.003 98.3943 185.678 98.4729 185.714 98.7463C186.146 102.509 186.34 106.306 186.294 110.105C186.3 110.145 186.318 110.182 186.344 110.209C186.371 110.235 186.404 110.25 186.439 110.25C186.473 110.25 186.506 110.235 186.533 110.209C186.559 110.182 186.577 110.145 186.584 110.105Z" fill="#231F20"/>
<path d="M184.721 115.88C184.108 112.35 183.238 108.875 182.119 105.486C182.114 105.463 182.104 105.44 182.09 105.42C182.076 105.401 182.058 105.384 182.038 105.372C182.018 105.36 181.995 105.353 181.972 105.351C181.949 105.348 181.926 105.351 181.904 105.359C181.881 105.367 181.861 105.379 181.844 105.396C181.827 105.412 181.813 105.433 181.803 105.455C181.794 105.477 181.789 105.502 181.789 105.526C181.789 105.551 181.794 105.575 181.803 105.598C182.675 109.07 183.362 112.595 184.37 115.992C184.377 116.016 184.388 116.039 184.403 116.059C184.418 116.078 184.437 116.095 184.458 116.107C184.48 116.119 184.503 116.126 184.527 116.129C184.551 116.132 184.575 116.129 184.598 116.122C184.621 116.115 184.643 116.102 184.661 116.086C184.68 116.07 184.696 116.051 184.707 116.028C184.719 116.006 184.726 115.981 184.728 115.956C184.731 115.93 184.728 115.905 184.721 115.88Z" fill="#231F20"/>
<path d="M138.509 89.4627C138.832 89.3463 139.174 89.3362 139.5 89.4334C139.827 89.5306 140.127 89.7318 140.37 90.0166C140.442 90.097 140.533 90.1464 140.63 90.1576C140.727 90.1687 140.824 90.141 140.906 90.0785C140.989 90.016 141.053 89.9222 141.089 89.8111C141.124 89.7001 141.129 89.5778 141.104 89.4627C140.808 87.9407 139.073 87.9375 138.285 88.6993C138.059 88.9771 138.227 89.5246 138.509 89.4627Z" fill="#231F20"/>
</g>
<defs>
<clipPath id="clip0_799_56292">
<rect width="196" height="196" fill="white"/>
</clipPath>
</defs>
</svg>
