<svg width="25" height="25" viewBox="0 0 25 25" fill="none" xmlns="http://www.w3.org/2000/svg">
<mask id="mask0_26_9205" style="mask-type:alpha" maskUnits="userSpaceOnUse" x="0" y="0" width="25" height="25">
<rect x="0.288086" y="0.557617" width="24" height="24" fill="#D9D9D9"/>
</mask>
<g mask="url(#mask0_26_9205)">
<path d="M4.28809 19.5576V17.5576H6.28809V10.5576C6.28809 9.17428 6.70475 7.94512 7.53809 6.87012C8.37142 5.79512 9.45475 5.09095 10.7881 4.75762V4.05762C10.7881 3.64095 10.9339 3.28678 11.2256 2.99512C11.5173 2.70345 11.8714 2.55762 12.2881 2.55762C12.7048 2.55762 13.0589 2.70345 13.3506 2.99512C13.6423 3.28678 13.7881 3.64095 13.7881 4.05762V4.75762C15.1214 5.09095 16.2048 5.79512 17.0381 6.87012C17.8714 7.94512 18.2881 9.17428 18.2881 10.5576V17.5576H20.2881V19.5576H4.28809ZM12.2881 22.5576C11.7381 22.5576 11.2673 22.3618 10.8756 21.9701C10.4839 21.5785 10.2881 21.1076 10.2881 20.5576H14.2881C14.2881 21.1076 14.0923 21.5785 13.7006 21.9701C13.3089 22.3618 12.8381 22.5576 12.2881 22.5576ZM8.28809 17.5576H16.2881V10.5576C16.2881 9.45762 15.8964 8.51595 15.1131 7.73262C14.3298 6.94928 13.3881 6.55762 12.2881 6.55762C11.1881 6.55762 10.2464 6.94928 9.46309 7.73262C8.67975 8.51595 8.28809 9.45762 8.28809 10.5576V17.5576Z" fill="#1C1B1F"/>
</g>
</svg>
