<svg width="192" height="192" viewBox="0 0 192 192" fill="none" xmlns="http://www.w3.org/2000/svg">
<path d="M54.5297 118.792C59.8951 119.612 65.3399 119.651 70.7153 118.91C70.945 118.898 71.1676 118.821 71.3604 118.687C71.5531 118.554 71.7092 118.368 71.8126 118.148C72.2878 117.007 70.6731 116.098 69.6728 115.512C67.809 114.383 65.8419 113.461 63.8024 112.759C63.308 112.583 63.0891 113.462 63.5825 113.638C65.7187 114.363 67.7779 115.325 69.7265 116.507C70.2075 116.715 70.6388 117.035 70.9889 117.444C71.2625 117.854 70.7144 117.972 70.4398 118.029C65.6492 118.645 60.8089 118.685 56.01 118.147C55.0986 118.142 54.1996 117.922 53.3767 117.504C52.3889 116.801 52.8833 115.276 53.2116 114.34C53.6266 113.132 54.1219 111.958 54.6939 110.825C54.7486 110.65 54.5835 110.532 54.474 110.65C53.641 111.544 53.0039 112.624 52.6088 113.812C52.2248 114.868 51.7304 116.332 52.2248 117.386C52.4785 117.797 52.8195 118.138 53.2199 118.383C53.6204 118.627 54.0691 118.767 54.5297 118.792Z" fill="#231F20"/>
<path d="M48.9885 43.7571C48.7687 43.874 48.8781 44.1671 49.0432 44.2839C49.5683 44.3813 50.1013 44.4208 50.6339 44.4018C52.1248 44.5607 52.9427 45.1192 53.6522 44.9286C53.7616 44.8702 53.8163 44.7523 53.7069 44.6355C53.0983 43.5788 49.7997 43.3718 48.9885 43.7571Z" fill="#231F20"/>
<path d="M55.627 41.8819C55.6561 41.8663 55.6813 41.8436 55.7007 41.8157C55.72 41.7877 55.7328 41.7553 55.7382 41.721C55.7435 41.6867 55.7412 41.6516 55.7314 41.6184C55.7215 41.5853 55.7045 41.5551 55.6817 41.5303C55.3892 41.3093 55.0503 41.1685 54.6948 41.1204C53.7008 40.8857 52.6707 40.8857 51.6766 41.1204C51.6257 41.1281 51.5797 41.1571 51.5488 41.2011C51.518 41.245 51.5047 41.3002 51.512 41.3546C51.5192 41.4089 51.5464 41.458 51.5875 41.4909C51.6287 41.5239 51.6804 41.5381 51.7313 41.5303C52.7681 41.5303 55.6078 41.889 55.627 41.8819Z" fill="#231F20"/>
<path d="M51.0178 51.1957C51.1237 51.0362 51.1711 50.8406 51.1509 50.6462C51.1308 50.4518 51.0444 50.2721 50.9084 50.1411C49.7036 48.7267 49.4895 47.8371 49.0431 45.4552C48.878 44.7521 48.6591 44.1085 48.4393 43.4054C51.4748 41.2449 51.5199 36.5446 48.6591 33.8573C43.9781 29.4369 35.6031 32.9124 32.8028 37.8996C29.7768 43.2824 33.4441 52.4308 39.3865 52.3088C39.3865 52.3088 38.7826 53.6566 38.7279 53.7734C38.509 54.1834 37.9052 54.6518 37.9052 55.1796C37.9071 55.2281 37.9193 55.2755 37.941 55.3182C37.9627 55.3609 37.9932 55.3978 38.0302 55.4259C38.0673 55.4541 38.1099 55.4729 38.1547 55.4808C38.1996 55.4887 38.2456 55.4856 38.2892 55.4717C38.5003 55.3827 38.6752 55.2168 38.7826 55.0033C39.158 54.5337 39.4551 53.9988 39.661 53.4219C39.661 53.305 39.8252 52.3088 39.8252 52.3088L40.813 52.1335C41.1144 52.3875 41.4748 52.5494 41.8556 52.6019C42.063 52.6202 42.2712 52.5799 42.4594 52.4851C42.5689 52.4256 42.5689 52.192 42.4047 52.192C42.0483 52.151 41.709 52.0078 41.4228 51.7775C41.1366 51.5472 40.9141 51.2385 40.7791 50.8841C40.644 50.5296 40.6013 50.1428 40.6557 49.7646C40.71 49.3863 40.8592 49.0309 41.0876 48.736C41.2765 48.542 41.506 48.399 41.7571 48.3189C42.0083 48.2388 42.2737 48.2239 42.5313 48.2754C42.7889 48.327 43.0312 48.4434 43.2381 48.6152C43.4451 48.7869 43.6106 49.0089 43.7209 49.2628C43.757 49.3296 43.809 49.3851 43.8716 49.4237C43.9342 49.4623 44.0052 49.4826 44.0775 49.4826C44.1498 49.4826 44.2208 49.4623 44.2834 49.4237C44.346 49.3851 44.398 49.3296 44.4341 49.2628C45.1253 47.9304 44.9593 46.7261 46.0661 45.3743C46.6811 44.7128 47.3668 44.1307 48.109 43.6401C48.6696 45.3497 48.5948 47.995 49.4261 49.2628C49.7554 49.7906 50.414 50.6105 50.3593 50.7274C50.2489 50.9026 49.2073 51.0789 49.0421 51.1957C48.493 51.4889 48.6581 52.3088 48.6581 52.8356C48.7227 53.5968 48.7044 54.3634 48.6034 55.1201C48.4099 55.8502 47.9588 56.4718 47.3448 56.8541C46.7309 57.2363 46.0021 57.3496 45.3116 57.17C44.926 56.9605 44.5944 56.6535 44.3457 56.2756C44.097 55.8977 43.9388 55.4605 43.885 55.0023C43.7746 54.5923 43.117 54.6507 43.1717 55.1191C43.2474 55.8928 43.5333 56.626 43.9945 57.2284C43.9945 57.2868 43.4453 58.1651 43.3906 58.3414C43.3906 58.4583 43.501 58.5751 43.6105 58.5167C43.6652 58.4583 44.3785 57.6383 44.3785 57.6383C46.0105 58.9441 48.9663 57.6383 49.3705 54.9439C49.4252 54.5339 49.3157 52.0741 49.3157 51.9562C49.4271 51.8394 50.8028 51.6549 51.0178 51.1957Z" fill="#231F20"/>
<path d="M45.4769 52.7767C45.3722 53.1 45.2985 53.4338 45.257 53.773C45.2064 53.9875 45.2021 54.2116 45.2445 54.4282C45.2869 54.6447 45.3748 54.8482 45.5017 55.0232C45.6286 55.1981 45.7911 55.34 45.9769 55.438C46.1627 55.5361 46.3669 55.5877 46.5742 55.5891C46.722 55.5825 46.8669 55.5426 46.9993 55.4719C47.1316 55.4013 47.2485 55.3015 47.3422 55.1791C47.5649 54.9414 47.1646 54.4894 46.9034 54.7692C46.8273 54.8378 46.7359 54.8843 46.638 54.9043C46.5401 54.9243 46.4391 54.917 46.3446 54.8833C46.2501 54.8495 46.1653 54.7903 46.0984 54.7115C46.0315 54.6326 45.9848 54.5367 45.9626 54.433C45.8577 53.9264 45.8603 53.4011 45.9703 52.8956C45.835 52.459 45.4769 52.5851 45.4769 52.7767Z" fill="#231F20"/>
<path d="M4.54723 115.747C34.9226 130.921 68.1386 123.395 98.752 140.992C99.4653 141.402 100.123 141.812 100.836 142.222C100.916 142.265 101.008 142.273 101.093 142.245C101.178 142.216 101.249 142.154 101.292 142.07C101.335 141.987 101.345 141.889 101.322 141.797C101.298 141.705 101.242 141.627 101.165 141.579C75.3933 123.708 37.4522 129.575 7.12579 116.571C6.35779 116.22 5.53411 115.869 4.76611 115.459C4.54723 115.337 4.38403 115.63 4.54723 115.747Z" fill="#231F20"/>
<path d="M93.9779 134.431C93.9284 134.46 93.887 134.502 93.8582 134.554C93.8294 134.606 93.8141 134.665 93.8141 134.725C93.8141 134.785 93.8294 134.844 93.8582 134.895C93.887 134.947 93.9284 134.989 93.9779 135.018C97.5443 137.361 101.001 139.937 104.403 142.515C104.513 142.633 104.732 142.398 104.568 142.281C101.457 139.547 98.1756 137.041 94.7459 134.783C95.7833 134.242 96.8674 133.811 97.9831 133.495C103.673 131.855 108.515 132.285 114.223 129.746C116.239 129.315 119.064 127.901 120.149 126.406C120.594 127.824 121.538 129.001 122.783 129.686C124.1 130.448 125.745 130.741 126.513 132.263C126.55 132.329 126.605 132.381 126.671 132.413C126.736 132.445 126.809 132.456 126.88 132.443C126.951 132.431 127.017 132.396 127.069 132.343C127.121 132.29 127.157 132.221 127.172 132.146C127.332 131.287 127.313 130.401 127.114 129.552C126.916 128.702 126.544 127.91 126.024 127.232C125.505 126.555 124.851 126.008 124.111 125.632C123.37 125.257 122.56 125.061 121.74 125.059C123.387 123.594 124.868 121.076 124.648 118.733C124.514 117.509 124.058 116.351 123.332 115.394C123.294 115.356 123.248 115.327 123.199 115.309C123.149 115.291 123.097 115.284 123.045 115.29C122.993 115.296 122.943 115.313 122.897 115.341C122.852 115.369 122.813 115.407 122.783 115.452C121.082 118.381 119.381 122.012 119.93 125.585C119.622 125.962 119.272 126.297 118.887 126.582C117.69 127.638 116.311 128.434 114.827 128.925C109.067 130.388 103.059 130.328 97.3255 128.748C92.7159 127.575 88.2021 126.008 83.8279 124.062C80.0666 122.32 75.1687 119.494 71.3738 119.494C71.2087 119.494 71.1539 119.787 71.3191 119.787C76.9543 120.629 80.9987 123.84 87.0631 126.172C92.9891 128.573 99.1888 130.506 105.553 130.741C106.76 130.798 108.022 130.741 109.229 130.682C105.892 131.574 97.888 131.894 93.9779 134.431ZM126.569 130.975C125.689 130.158 124.662 129.541 123.551 129.16C122.861 128.858 122.234 128.413 121.706 127.85C121.179 127.287 120.762 126.617 120.479 125.881C121.203 125.679 121.962 125.658 122.695 125.821C123.428 125.983 124.117 126.324 124.706 126.817C125.296 127.31 125.77 127.942 126.094 128.664C126.417 129.385 126.579 130.176 126.569 130.975ZM123.113 116.217C123.598 116.953 123.885 117.818 123.943 118.716C124.001 119.614 123.828 120.512 123.442 121.313C122.923 122.565 122.133 123.669 121.138 124.535C120.864 124.769 120.589 124.945 120.315 125.179C120.405 122.456 120.983 119.948 123.112 116.215L123.113 116.217Z" fill="#231F20"/>
<path d="M112.96 76.969C107.958 75.9441 104.608 75.5505 95.8969 80.3082C92.6588 82.0649 89.4226 83.8226 86.2402 85.6971C83.6309 87.2714 79.0969 89.7148 77.077 91.0861C77.0503 91.1031 77.0307 91.1303 77.022 91.1622C77.0133 91.194 77.0163 91.2282 77.0303 91.2579C77.0443 91.2875 77.0683 91.3104 77.0974 91.3219C77.1266 91.3334 77.1587 91.3326 77.1874 91.3198C79.1621 90.5583 82.8937 88.3916 82.9474 88.3916C88.1593 89.9731 93.4268 91.4377 98.6396 92.9012C96.7417 94.3474 93.9356 96.2691 93.0428 96.9425C92.0549 97.5871 86.8421 100.867 86.8421 100.867C86.7337 102.566 87.062 104.909 87.1167 106.606C87.1788 108.273 87.3255 109.935 87.5564 111.585C87.6111 111.702 87.7753 111.702 87.7753 111.585C88.2831 109.237 87.3913 101.393 87.3913 101.276C90.5957 99.475 95.846 95.7495 98.8585 93.6023C98.7625 96.3767 99.1973 102.492 99.2972 103.56C99.304 104.062 99.3971 104.558 99.5717 105.024C99.5937 105.061 99.6251 105.09 99.6622 105.108C99.6993 105.126 99.7406 105.133 99.781 105.127C99.8215 105.121 99.8595 105.103 99.8904 105.074C99.9214 105.046 99.9441 105.008 99.9557 104.966C100.038 104.482 100.038 103.986 99.9557 103.502C99.9557 103.399 99.469 95.0607 99.2425 93.2528C99.6553 92.8121 131.767 102.447 134.631 102.918C133.259 104.09 109.064 124.005 108.734 124.298C108.723 124.31 108.713 124.323 108.707 124.339C108.701 124.354 108.697 124.37 108.697 124.387C108.697 124.404 108.699 124.42 108.705 124.436C108.711 124.451 108.72 124.465 108.731 124.477C108.742 124.489 108.755 124.498 108.77 124.504C108.784 124.511 108.8 124.514 108.815 124.513C108.831 124.513 108.846 124.509 108.86 124.502C108.875 124.496 108.888 124.486 108.898 124.474C111.837 122.383 129.228 108.674 139.13 100.106C139.974 99.3889 144.962 94.9921 145.11 94.8352C144.88 96.3121 144.841 105.842 145.165 107.018C145.182 107.058 145.209 107.091 145.243 107.114C145.277 107.138 145.317 107.15 145.357 107.15C145.397 107.15 145.437 107.138 145.471 107.114C145.505 107.091 145.532 107.058 145.549 107.018C145.805 106.008 145.897 104.958 145.823 103.914C145.823 102.859 145.658 94.7758 145.658 94.7758C145.754 94.7758 158.234 98.2041 159.814 98.7596C160.252 98.8765 160.636 99.0517 161.076 99.1696C160.911 100.048 160.527 106.374 160.471 107.311C160.352 108.305 160.371 109.311 160.527 110.298C160.537 110.336 160.559 110.369 160.588 110.393C160.618 110.417 160.654 110.43 160.691 110.43C160.728 110.43 160.764 110.417 160.794 110.393C160.823 110.369 160.845 110.336 160.855 110.298C161.248 109.253 161.593 100.254 161.46 99.1112C161.569 98.9933 161.624 98.7012 161.404 98.6418C158.2 97.0972 154.907 96.8994 146.812 94.4243C146.264 94.249 145.605 93.839 145.002 94.0143C144.565 94.219 144.173 94.5184 143.85 94.8937C142.588 96.0651 136.827 101.043 135.181 102.449C134.509 102.193 87.4345 89.0845 83.2786 88.1006C87.4239 85.7433 96.9106 80.2979 101.327 78.5525C106.164 76.7384 107.951 76.8819 111.586 77.5573C117.165 78.5176 125.89 80.6617 126.236 80.6617C126.06 81.4991 126.044 86.9844 126.785 88.5689C126.798 88.5927 126.817 88.6113 126.841 88.6221C126.864 88.6328 126.89 88.635 126.915 88.6284C126.94 88.6218 126.962 88.6067 126.978 88.5854C126.994 88.5641 127.003 88.5378 127.004 88.5105C127.069 88.1231 126.727 80.7386 126.674 80.427C126.691 80.3849 126.699 80.3393 126.696 80.2936C126.694 80.2479 126.681 80.2034 126.66 80.1637C126.639 80.124 126.609 80.0901 126.573 80.0646C126.538 80.0392 126.497 80.0229 126.455 80.0171C126.304 80.1821 122.542 78.8866 112.96 76.969Z" fill="#088542"/>
<path d="M67.9168 111.588C67.7526 111.529 62.3757 110.475 61.2237 110.183C58.864 109.596 56.5053 108.835 54.1456 108.073C54.1269 108.067 54.1072 108.066 54.0878 108.068C54.0684 108.071 54.0497 108.078 54.033 108.088C54.0162 108.099 54.0017 108.113 53.9905 108.13C53.9792 108.148 53.9714 108.167 53.9676 108.187C53.9637 108.208 53.964 108.229 53.9682 108.249C53.9725 108.27 53.9807 108.289 53.9923 108.306C54.0039 108.322 54.0187 108.336 54.0356 108.347C54.0526 108.357 54.0714 108.363 54.0909 108.366C56.3517 109.389 58.6807 110.231 61.0586 110.885C62.2106 111.236 67.8074 112.291 68.0819 112.233C68.1611 112.243 68.2413 112.226 68.3106 112.184C68.3798 112.141 68.4343 112.076 68.4659 111.998C70.2809 107.2 71.7661 102.267 72.9098 97.2391C72.6343 97.249 72.3587 97.229 72.087 97.1797C71.0852 101.57 69.8391 105.893 68.3555 110.125C68.1914 110.65 68.0819 111.12 67.9168 111.588Z" fill="#231F20"/>
<path d="M74.0618 86.9851C74.0618 80.8253 71.3843 76.326 65.7222 76.326V76.2676C65.141 75.4372 64.359 74.7913 63.4602 74.3991C62.5613 74.007 61.5795 73.8833 60.6198 74.0414C56.6742 74.4371 54.8694 75.71 53.2134 77.6153C53.202 77.6267 53.1928 77.6403 53.1864 77.6556C53.18 77.6708 53.1766 77.6872 53.1763 77.7039C53.176 77.7206 53.1789 77.7371 53.1847 77.7526C53.1906 77.7681 53.1993 77.7821 53.2103 77.7939C53.2214 77.8057 53.2345 77.815 53.249 77.8212C53.2635 77.8275 53.279 77.8305 53.2946 77.8302C53.3102 77.8299 53.3256 77.8262 53.3399 77.8194C53.3542 77.8126 53.367 77.8028 53.3776 77.7906C54.9092 76.2895 56.8144 75.293 58.864 74.9208C60.8944 74.5109 63.6371 74.393 65.008 76.3844C57.6544 77.0045 48.2752 86.9256 44.9286 94.0723C44.873 94.1902 45.0381 94.307 45.1475 94.1902C50.1789 84.8983 58.5626 78.4783 63.5795 77.3816C67.6835 76.5053 71.4515 78.1708 72.687 82.5359C73.1373 84.2106 73.341 85.9498 73.2909 87.6912C73.5971 87.5251 73.8614 87.2829 74.0618 86.9851Z" fill="#231F20"/>
<path d="M25.0663 113.756C28.6884 114.729 35.225 115.537 38.5639 115.102C46.8631 114.144 53.3863 107.71 58.4253 100.693C61.4214 96.6491 63.9966 92.2692 66.1053 87.6306C66.1372 87.5686 66.1456 87.496 66.1289 87.4277C66.1122 87.3593 66.0717 87.3003 66.0156 87.2628C65.9595 87.2254 65.8921 87.2122 65.8272 87.2261C65.7623 87.24 65.7049 87.2798 65.6666 87.3374C64.624 89.2704 63.6362 91.2034 62.5389 93.1364C59.7396 97.9186 55.2036 104.292 50.8528 108.19C47.8717 110.966 44.3197 112.953 40.4848 113.989C38.3923 114.449 36.2491 114.587 34.12 114.399C32.0944 114.233 27.9837 114.015 26.0004 113.052C24.017 112.09 22.3341 108.988 21.282 106.844C21.2272 106.726 21.1168 106.609 21.0621 106.726C21.0494 106.736 21.0391 106.749 21.032 106.765C21.0249 106.78 21.0212 106.797 21.0212 106.814C21.0212 106.831 21.0249 106.848 21.032 106.863C21.0391 106.878 21.0494 106.892 21.0621 106.902C21.7508 109.264 23.0431 111.374 24.7936 112.994C22.2189 112.334 19.2612 111.076 17.825 108.717C18.246 109.022 18.7235 109.227 19.2252 109.318C19.7269 109.41 20.241 109.384 20.7328 109.245C20.7568 109.238 20.7778 109.222 20.7928 109.201C20.8078 109.18 20.816 109.154 20.816 109.128C20.816 109.101 20.8078 109.075 20.7928 109.054C20.7778 109.033 20.7568 109.017 20.7328 109.01C20.0608 108.6 17.73 108.591 17.441 107.897C17.2237 107.399 17.0935 106.863 17.057 106.316C17.0591 106.299 17.0578 106.282 17.0532 106.266C17.0487 106.25 17.041 106.235 17.0306 106.223C17.0202 106.21 17.0075 106.2 16.9931 106.193C16.9788 106.186 16.9633 106.182 16.9476 106.182C16.9318 106.182 16.9163 106.186 16.902 106.193C16.8876 106.2 16.8749 106.21 16.8645 106.223C16.8542 106.235 16.8464 106.25 16.8419 106.266C16.8373 106.282 16.836 106.299 16.8381 106.316C16.7815 110.885 21.6084 112.825 25.0663 113.756Z" fill="#231F20"/>
<path d="M54.3107 42.5856C53.5226 41.8374 51.1648 42.1367 50.1405 42.4093C50.031 42.4687 50.031 42.7024 50.1952 42.644C52.5414 42.439 53.6858 43.2139 54.255 43.1124C54.4202 43.1124 54.4749 42.7608 54.3107 42.5856Z" fill="#231F20"/>
<path d="M31.8697 110.358C31.3215 110.298 27.8099 109.948 26.6031 109.83C26.5657 109.835 26.5308 109.852 26.5035 109.88C26.4763 109.908 26.4582 109.944 26.4521 109.984C26.4459 110.024 26.4519 110.064 26.4693 110.1C26.4867 110.136 26.5145 110.164 26.5484 110.182C29.2729 111.013 33.0054 111.325 33.6255 111.061C33.8454 110.943 33.8454 110.651 33.6255 110.592C33.0588 110.399 32.4635 110.32 31.8697 110.358Z" fill="#231F20"/>
<path d="M84.7608 121.955C84.5439 122.135 84.8156 122.482 85.0354 122.365C86.4925 121.558 87.903 120.658 89.2594 119.671C90.8645 118.576 104.66 109.587 106.222 108.468C106.222 108.689 106.977 118.922 107.256 119.671C107.267 119.715 107.293 119.755 107.327 119.782C107.362 119.81 107.404 119.825 107.448 119.825C107.491 119.825 107.533 119.81 107.568 119.782C107.602 119.755 107.628 119.715 107.64 119.671C107.664 115.666 107.352 111.667 106.707 107.721C106.707 107.605 106.597 107.545 106.488 107.605C106.478 107.591 106.466 107.58 106.451 107.572C106.437 107.564 106.421 107.56 106.405 107.56C106.389 107.56 106.374 107.564 106.359 107.572C106.345 107.58 106.333 107.591 106.323 107.605C103.146 109.691 105.604 107.766 92.9362 116.332C90.3816 115.605 74.6348 108.598 72.4162 107.37C72.2511 107.253 72.0869 107.545 72.2511 107.663C78.6806 111.162 85.3148 114.214 92.1125 116.8C90.7253 117.727 86.1154 120.829 84.7608 121.955Z" fill="#088542"/>
<path d="M133.098 87.9819C130.522 90.3053 130.924 90.1649 129.75 89.9149C129.462 89.8124 111.749 84.7565 108.408 84.1753C108.298 84.1169 108.078 84.1169 108.078 84.3506C108.078 85.1121 108.078 85.8736 108.134 86.6351C108.19 87.3966 108.189 91.6726 108.627 93.1946C108.737 93.5461 109.011 93.3124 109.066 93.1946C109.515 91.5957 108.483 84.7903 108.462 84.5259C110.713 85.4042 113.07 86.0489 115.374 86.6925C128.699 90.5728 129.658 90.91 130.407 90.91C130.407 91.7535 130.791 99.3 131.011 100.458C131.066 100.693 131.45 100.751 131.504 100.458C131.629 99.7253 131.043 91.5414 130.901 90.8516C131.592 90.4727 132.222 89.9783 132.767 89.387C133.48 88.7434 137.924 84.7011 139.295 83.1781C144.506 84.5843 149.774 85.6973 154.986 86.9272C160.088 88.1571 180.663 93.9561 181.98 94.4255C182.943 94.7041 183.852 95.1599 184.668 95.7722C186.894 97.6007 186.079 99.1852 184.612 101.747C181.024 107.973 176.452 112.583 171.39 117.503C168.372 116.39 155.809 112.818 152.626 111.764C152.297 111.647 152.132 111.589 151.858 111.764C148.498 114.166 141.345 120.663 138.251 123.479C138.196 123.538 138.415 127.697 138.526 128.576C138.87 131.518 138.782 132.872 139.403 134.199C139.458 134.374 139.732 134.315 139.787 134.141C139.898 133.261 139.074 124.416 139.019 123.831C140.93 122.402 150.553 113.25 151.968 112.642C152.018 113.53 152.352 122.891 152.352 123.655C152.325 124.207 152.381 124.761 152.517 125.295C152.571 125.528 152.845 125.528 152.955 125.295C153.418 123.811 152.72 113.453 152.517 112.586C152.613 112.586 151.108 112.165 170.896 118.15C163.356 125.397 155.424 132.164 147.14 138.417C147.044 138.363 139.327 135.048 131.173 131.037C130.515 130.687 129.802 130.394 129.144 130.042C129.088 129.984 129.033 130.042 128.978 130.042C128.869 129.984 128.649 130.042 128.649 130.217C128.705 132.575 129.622 142.414 130.131 144.041C130.186 144.218 130.405 144.159 130.46 143.983C130.497 143.397 130.478 142.808 130.405 142.225C130.35 141.639 130.35 141.054 130.296 140.468C130.185 139.296 129.528 132.444 129.088 130.218C130.185 130.863 131.229 131.566 132.38 132.211C133.964 133.095 141.637 136.873 146.371 138.77C138.622 144.519 130.602 149.836 122.34 154.703C118.994 156.667 118.294 157.175 115.044 155.757C113.947 155.288 103.083 150.368 102.041 149.899C101.712 149.724 101.546 150.25 101.766 150.485C101.684 151.596 101.684 152.713 101.766 153.824C101.913 157.271 102.026 162.988 102.425 164.893C102.395 164.931 102.373 164.976 102.36 165.023C102.347 165.07 102.343 165.12 102.348 165.17C102.353 165.219 102.367 165.266 102.39 165.31C102.412 165.353 102.443 165.391 102.48 165.421C104.016 166.183 113.727 170.517 114.55 170.868C117.098 171.955 118.257 172.464 121.737 170.4C139.886 159.98 156.749 147.191 171.939 132.326C176.797 127.795 181.192 122.729 185.053 117.212C185.546 116.451 186.644 114.869 186.644 114.753C187.011 111.61 186.824 97.7513 186.808 97.6488C186.589 95.5396 184.559 94.4275 182.858 93.7829C181.651 93.3135 176.439 91.7915 175.122 91.3815C157.504 86.2334 139.366 82.637 139.239 82.7722C137.706 83.8228 133.753 87.3915 133.098 87.9819ZM186.208 114.75C181.304 121.225 179.533 123.764 173.369 129.863C163.433 139.682 152.775 148.634 141.497 156.632C138.403 158.813 122.55 169.136 119.66 170.456C117.438 171.406 116.32 170.536 114.613 169.929C111.431 168.523 103.639 165.066 102.871 164.773C103.01 163.434 102.418 152.234 102.158 150.657C103.146 151.127 112.91 155.754 115.161 156.691C118.225 158.029 119.572 157.214 122.457 155.519C138.61 146.191 153.753 134.995 167.612 122.131C172.988 117.118 179.947 110.48 183.74 104.559C184.453 103.446 186.099 100.575 186.264 100.224C186.153 101.336 186.098 113.462 186.208 114.75Z" fill="#088542"/>
<path d="M41.6319 126.405C41.3288 127.676 41.5064 129.023 42.1263 130.154C43.7794 133.524 48.1743 135.774 51.3423 138.004C61.7919 145.12 85.9839 158.075 90.1378 159.853C90.4671 159.971 90.5218 159.561 90.5218 159.443C90.5218 158.857 90.6312 156.104 90.6312 155.285C90.6312 145.41 90.7973 145.464 90.5765 145.151C90.4671 144.975 84.541 142.163 82.1823 140.992C78.9999 139.41 64.2408 131.795 64.021 131.678C63.8011 131.562 63.637 131.855 63.8568 132.03C69.2136 135.796 89.8623 145.456 89.8632 145.736C89.9074 155.889 89.8795 156.605 90.0274 158.74C90.0274 158.975 90.0831 159.15 90.0831 159.385C83.6607 156.242 67.6603 147.207 61.1131 143.276C50.9755 137.12 52.3541 137.709 50.8536 136.774C46.9915 134.222 41.6261 131.317 42.0754 126.525C42.1848 126.113 41.7461 126.113 41.6319 126.405Z" fill="#088542"/>
<path d="M117.184 136.716C117.184 136.365 116.909 136.248 116.635 136.131C113.892 135.095 111.088 134.254 108.241 133.612C108.222 133.607 108.203 133.606 108.184 133.609C108.166 133.612 108.148 133.62 108.131 133.631C108.115 133.641 108.102 133.656 108.091 133.672C108.08 133.689 108.073 133.708 108.069 133.728C108.065 133.748 108.065 133.768 108.069 133.788C108.073 133.808 108.081 133.827 108.092 133.843C108.103 133.86 108.117 133.874 108.133 133.885C108.149 133.895 108.167 133.902 108.186 133.905C110.984 134.842 113.782 135.838 116.58 136.95C116.476 137.679 116.445 146.687 116.8 148.197C116.854 148.373 117.074 148.373 117.074 148.197C117.175 147.225 117.23 146.247 117.239 145.268C117.406 139.32 117.184 137.137 117.184 136.716Z" fill="#088542"/>
<path d="M60.2905 69.9985C64.5941 68.1394 70.4876 63.3284 73.4079 60.2168C76.1046 57.3378 76.8246 56.1561 74.4505 52.777C71.5167 48.5646 65.5916 44.345 60.4047 43.4052C60.1954 42.287 58.7948 41.298 57.8261 40.8275C56.458 40.214 54.954 40.0312 53.4917 40.3007C53.3823 40.3591 53.3823 40.5344 53.4917 40.5344C54.1417 40.6898 54.8025 40.7878 55.4674 40.8275C58.8495 41.4291 59.3545 42.9593 60.1311 43.5804C62.6269 44.2768 64.9991 45.4048 67.1535 46.9196C69.4127 48.3502 71.449 50.1484 73.189 52.2491C73.8073 53.0035 75.037 54.7632 75.109 55.7636C75.2741 57.1697 74.0117 58.2828 73.189 59.1611C69.3145 63.2057 64.918 66.6377 60.133 69.3528C59.8517 69.647 60.0169 70.1164 60.2905 69.9985Z" fill="#231F20"/>
<path d="M57.0534 57.8742C56.8892 57.9327 56.9987 58.2258 57.1628 58.1663C58.9868 57.5955 66.2627 54.1313 66.4902 53.9488C66.5287 53.9235 66.5584 53.8855 66.5748 53.8405C66.5912 53.7955 66.5934 53.746 66.581 53.6996C66.5686 53.6531 66.5423 53.6123 66.5062 53.5833C66.47 53.5543 66.426 53.5387 66.3807 53.5389C65.603 53.6866 64.8468 53.9427 64.1315 54.3004C63.6671 53.6687 63.1727 53.0628 62.6502 52.4853C61.3062 50.9223 58.6095 47.6508 57.6025 46.2169C57.6236 46.1445 57.6243 46.0671 57.6047 45.9943C57.5851 45.9215 57.546 45.8563 57.4921 45.8069C56.5599 45.2217 55.4627 46.2764 54.5295 46.4516C53.9471 46.5393 53.3561 46.5393 52.7737 46.4516C52.1284 46.435 51.4858 46.3565 50.8537 46.2169C50.6339 46.1585 50.5791 46.4516 50.799 46.51C55.8486 48.1273 55.6115 46.1749 57.1081 46.3348C57.5084 46.3348 57.663 46.9087 57.8761 47.2131C59.6223 49.7713 61.5095 52.2162 63.5276 54.5351C63.4316 54.4326 58.8054 57.0061 57.0534 57.8742Z" fill="#231F20"/>
<path d="M16.8919 102.918C22.4531 104.967 28.7431 105.73 34.3389 103.562C42.9635 100.056 42.0112 95.8303 48.4394 87.1636C51.4211 83.269 51.1504 84.094 51.7869 83.4145C52.34 80.9993 52.6163 78.5214 52.6096 76.0351C50.5802 77.4805 48.6548 79.0859 46.8496 80.8379C46.8361 80.8568 46.819 80.8724 46.7994 80.8837C46.7797 80.895 46.7581 80.9017 46.7358 80.9033C46.7136 80.9049 46.6913 80.9015 46.6704 80.8931C46.6495 80.8848 46.6305 80.8718 46.6147 80.855C46.5989 80.8382 46.5867 80.818 46.5788 80.7958C46.5709 80.7735 46.5676 80.7497 46.569 80.726C46.5704 80.7022 46.5766 80.6791 46.5871 80.6581C46.5975 80.6371 46.6121 80.6187 46.6298 80.6042C47.6463 79.4221 48.7469 78.3256 49.9216 77.3245C48.2762 78.1444 46.5751 78.9643 44.8739 79.609C44.8455 79.6194 44.8145 79.6185 44.7867 79.6063C44.7589 79.5942 44.7362 79.5716 44.7228 79.5429C44.7094 79.5142 44.7062 79.4812 44.7139 79.4502C44.7216 79.4192 44.7396 79.3922 44.7645 79.3743C48.2762 77.0313 57.8205 72.9901 58.2045 72.287C58.7536 71.3503 58.6442 64.5551 58.0951 62.3874C57.6304 60.4928 56.746 58.7451 55.5165 57.2916C55.2967 57.0579 47.3411 60.2792 43.4455 61.5091C40.3735 62.5442 39.8992 63.2135 37.7402 65.375C37.6298 65.4919 37.4109 65.3166 37.5203 65.1998C38.318 63.9966 39.3013 62.9469 40.4282 62.0953C41.7772 61.2692 43.24 60.6759 44.7626 60.3376C44.488 60.396 43.6106 59.283 43.3907 59.0493C41.0628 56.8149 38.0714 55.5287 34.9427 55.417C34.3936 55.417 34.3936 57.35 34.4483 57.35C36.0357 57.542 37.5391 58.2124 38.7827 59.283C38.8931 59.3414 38.7827 59.5761 38.6733 59.5177C37.3343 58.9192 35.9354 58.4869 34.504 58.2293C29.9576 62.2613 26.2563 67.2691 23.6407 72.9276C19.2554 81.915 17.3047 92.4009 16.7287 102.683C16.6173 102.742 16.7277 102.858 16.8919 102.918ZM30.0592 88.2787C27.5987 90.3029 23.5514 91.335 20.4592 91.4416C20.4009 91.4416 20.345 91.4169 20.3038 91.3728C20.2625 91.3288 20.2394 91.2691 20.2394 91.2069C20.2394 91.1446 20.2625 91.0849 20.3038 91.0409C20.345 90.9969 20.4009 90.9722 20.4592 90.9722C22.0996 90.8447 23.7201 90.5106 25.2871 89.977C26.834 89.4182 28.3383 88.7329 29.7866 87.9272C30.0045 87.8052 30.2771 88.0953 30.0592 88.2787ZM37.5213 76.3283C37.6855 76.2114 37.8506 76.4461 37.7411 76.563C37.3104 77.1705 36.8332 77.7389 36.3146 78.2623C32.0007 82.611 26.8783 85.9423 21.28 88.0399C21.0602 88.0983 21.0055 87.7468 21.1706 87.6884C29.4323 84.1606 35.776 77.7724 37.5213 76.3242V76.3283Z" fill="#088542"/>
<path d="M71.319 89.7389C71.2854 89.7432 71.2544 89.7605 71.2319 89.7875C71.2094 89.8145 71.197 89.8494 71.197 89.8855C71.197 89.9216 71.2094 89.9565 71.2319 89.9835C71.2544 90.0105 71.2854 90.0278 71.319 90.0321C72.4509 90.1358 73.5751 89.7566 74.4457 88.9774C75.0496 88.4506 76.3657 87.0444 75.927 86.1077C75.6534 85.463 75.1043 86.986 75.0496 87.1029C74.6839 87.8403 74.1507 88.468 73.499 88.9286C72.8473 89.3891 72.0977 89.6677 71.319 89.7389Z" fill="#231F20"/>
<path d="M74.0618 90.968C73.1827 91.5312 72.1791 91.8347 71.154 91.8473C71.0885 91.8473 71.0258 91.8751 70.9795 91.9245C70.9332 91.9739 70.9072 92.0409 70.9072 92.1108C70.9072 92.1806 70.9332 92.2476 70.9795 92.297C71.0258 92.3464 71.0885 92.3742 71.154 92.3742C72.2589 92.4225 73.3564 92.1599 74.3363 91.6126C74.8855 91.2611 76.5856 89.6212 75.8176 88.8597C75.3789 88.3913 75.1044 89.7965 74.9402 89.9728C74.7417 90.3867 74.437 90.7319 74.0618 90.968Z" fill="#231F20"/>
<path d="M75.4884 91.9686C75.2139 91.6171 74.8299 92.2033 74.6657 92.3786C74.1951 92.8645 73.6059 93.1991 72.9655 93.3441C72.3251 93.4891 71.6594 93.4387 71.0446 93.1985C70.675 93.0448 70.6279 93.5316 70.9351 93.7253C73.3246 95.0577 76.0097 92.7066 75.4884 91.9686Z" fill="#231F20"/>
<path d="M73.0739 96.0685C75.0899 95.8717 75.3376 94.5137 74.8298 94.6039C74.1712 94.6623 73.6231 95.2475 72.9645 95.3654C72.321 95.4847 71.6595 95.4239 71.0445 95.1891C70.8803 95.0948 70.6749 95.4443 71.0445 95.6575C71.6611 96.0266 72.3736 96.1709 73.0739 96.0685Z" fill="#231F20"/>
<path d="M47.1233 47.798C47.1233 47.969 47.1695 48.1329 47.2518 48.2538C47.3341 48.3747 47.4457 48.4427 47.562 48.4427C47.6784 48.4427 47.79 48.3747 47.8722 48.2538C47.9545 48.1329 48.0007 47.969 48.0007 47.798C48.0007 47.627 47.9545 47.463 47.8722 47.3421C47.79 47.2212 47.6784 47.1533 47.562 47.1533C47.4457 47.1533 47.3341 47.2212 47.2518 47.3421C47.1695 47.463 47.1233 47.627 47.1233 47.798Z" fill="#231F20"/>
</svg>
