<svg width="192" height="192" viewBox="0 0 192 192" fill="none" xmlns="http://www.w3.org/2000/svg">
<g id="New Illustrations">
<path id="Vector" d="M54.5302 118.792C59.8956 119.611 65.3404 119.651 70.7158 118.909C70.9455 118.898 71.1681 118.821 71.3608 118.687C71.5536 118.553 71.7097 118.367 71.8131 118.148C72.2883 117.006 70.6736 116.098 69.6732 115.512C67.8095 114.383 65.8424 113.461 63.8028 112.759C63.3084 112.583 63.0896 113.462 63.583 113.637C65.7192 114.362 67.7784 115.324 69.727 116.507C70.208 116.715 70.6393 117.035 70.9894 117.444C71.263 117.854 70.7148 117.972 70.4403 118.029C65.6497 118.645 60.8094 118.685 56.0105 118.147C55.0991 118.142 54.2001 117.922 53.3772 117.503C52.3894 116.8 52.8838 115.276 53.2121 114.339C53.6271 113.132 54.1224 111.957 54.6944 110.825C54.7491 110.65 54.584 110.532 54.4745 110.65C53.6414 111.543 53.0044 112.623 52.6092 113.812C52.2252 114.867 51.7308 116.332 52.2252 117.385C52.479 117.797 52.8199 118.138 53.2204 118.382C53.6208 118.627 54.0696 118.767 54.5302 118.792Z" fill="#231F20"/>
<path id="Vector_2" d="M48.9885 43.7569C48.7687 43.8737 48.8781 44.1669 49.0432 44.2837C49.5683 44.381 50.1013 44.4205 50.6339 44.4016C52.1248 44.5604 52.9427 45.119 53.6522 44.9284C53.7616 44.8699 53.8163 44.7521 53.7069 44.6352C53.0983 43.5786 49.7997 43.3715 48.9885 43.7569Z" fill="#231F20"/>
<path id="Vector_3" d="M55.6267 41.8823C55.6558 41.8667 55.6811 41.844 55.7004 41.8161C55.7197 41.7881 55.7326 41.7556 55.7379 41.7214C55.7433 41.6871 55.7409 41.6519 55.7311 41.6188C55.7213 41.5857 55.7043 41.5555 55.6815 41.5307C55.389 41.3097 55.0501 41.1689 54.6946 41.1208C53.7005 40.8861 52.6704 40.8861 51.6763 41.1208C51.6254 41.1285 51.5795 41.1575 51.5486 41.2015C51.5177 41.2454 51.5044 41.3006 51.5117 41.355C51.519 41.4093 51.5462 41.4584 51.5873 41.4913C51.6284 41.5243 51.6801 41.5385 51.7311 41.5307C52.7679 41.5307 55.6075 41.8894 55.6267 41.8823Z" fill="#231F20"/>
<path id="Vector_4" d="M51.0176 51.1956C51.1235 51.036 51.1709 50.8405 51.1507 50.6461C51.1305 50.4517 51.0442 50.272 50.9081 50.141C49.7033 48.7266 49.4892 47.837 49.0428 45.4551C48.8777 44.752 48.6588 44.1084 48.439 43.4053C51.4745 41.2448 51.5196 36.5445 48.6588 33.8572C43.9779 29.4368 35.6028 32.9122 32.8025 37.8995C29.7766 43.2823 33.4438 52.4306 39.3862 52.3087C39.3862 52.3087 38.7824 53.6564 38.7276 53.7733C38.5088 54.1832 37.9049 54.6516 37.9049 55.1795C37.9068 55.228 37.9191 55.2754 37.9407 55.3181C37.9624 55.3608 37.9929 55.3976 38.03 55.4258C38.067 55.454 38.1096 55.4728 38.1545 55.4807C38.1994 55.4886 38.2454 55.4855 38.2889 55.4716C38.5001 55.3826 38.6749 55.2167 38.7824 55.0032C39.1577 54.5336 39.4549 53.9986 39.6608 53.4217C39.6608 53.3049 39.8249 52.3087 39.8249 52.3087L40.8128 52.1334C41.1142 52.3874 41.4745 52.5493 41.8553 52.6018C42.0627 52.6201 42.271 52.5798 42.4592 52.485C42.5686 52.4255 42.5686 52.1918 42.4044 52.1918C42.0481 52.1509 41.7088 52.0077 41.4226 51.7774C41.1363 51.5471 40.9139 51.2383 40.7788 50.8839C40.6437 50.5295 40.6011 50.1426 40.6554 49.7644C40.7097 49.3862 40.859 49.0308 41.0873 48.7358C41.2762 48.5419 41.5058 48.3989 41.7569 48.3188C42.008 48.2387 42.2734 48.2238 42.531 48.2753C42.7886 48.3268 43.031 48.4433 43.2379 48.6151C43.4448 48.7868 43.6103 49.0088 43.7206 49.2626C43.7568 49.3295 43.8087 49.385 43.8713 49.4236C43.9339 49.4621 44.005 49.4824 44.0772 49.4824C44.1495 49.4824 44.2205 49.4621 44.2831 49.4236C44.3457 49.385 44.3977 49.3295 44.4339 49.2626C45.1251 47.9303 44.959 46.726 46.0659 45.3741C46.6809 44.7127 47.3665 44.1306 48.1088 43.64C48.6694 45.3495 48.5945 47.9948 49.4259 49.2626C49.7552 49.7905 50.4137 50.6104 50.359 50.7272C50.2486 50.9025 49.207 51.0788 49.0419 51.1956C48.4928 51.4888 48.6579 52.3087 48.6579 52.8355C48.7225 53.5967 48.7041 54.3633 48.6032 55.12C48.4097 55.8501 47.9585 56.4717 47.3446 56.8539C46.7307 57.2362 46.0018 57.3495 45.3113 57.1698C44.9258 56.9604 44.5941 56.6533 44.3455 56.2755C44.0968 55.8976 43.9386 55.4604 43.8848 55.0021C43.7744 54.5922 43.1168 54.6506 43.1715 55.119C43.2471 55.8927 43.5331 56.6259 43.9942 57.2283C43.9942 57.2867 43.4451 58.165 43.3904 58.3413C43.3904 58.4581 43.5008 58.575 43.6102 58.5166C43.6649 58.4581 44.3782 57.6382 44.3782 57.6382C46.0102 58.944 48.966 57.6382 49.3702 54.9437C49.4249 54.5338 49.3155 52.074 49.3155 51.9561C49.4268 51.8393 50.8025 51.6548 51.0176 51.1956Z" fill="#231F20"/>
<path id="Vector_5" d="M45.4761 52.7771C45.3714 53.1003 45.2978 53.4341 45.2563 53.7733C45.2056 53.9879 45.2014 54.2119 45.2437 54.4285C45.2861 54.6451 45.3741 54.8485 45.501 55.0235C45.6279 55.1985 45.7903 55.3403 45.9761 55.4384C46.1619 55.5364 46.3662 55.5881 46.5734 55.5894C46.7213 55.5829 46.8662 55.5429 46.9985 55.4723C47.1309 55.4016 47.2478 55.3018 47.3414 55.1795C47.5641 54.9417 47.1638 54.4897 46.9027 54.7695C46.8265 54.8381 46.7351 54.8846 46.6373 54.9046C46.5394 54.9246 46.4383 54.9174 46.3438 54.8836C46.2494 54.8498 46.1646 54.7907 46.0977 54.7118C46.0308 54.633 45.984 54.5371 45.9619 54.4333C45.857 53.9267 45.8596 53.4014 45.9696 52.896C45.8342 52.4594 45.4761 52.5854 45.4761 52.7771Z" fill="#231F20"/>
<path id="Vector_6" d="M4.54674 115.747C34.9221 130.92 68.1381 123.395 98.7515 140.992C99.4648 141.402 100.122 141.812 100.836 142.222C100.915 142.265 101.007 142.273 101.092 142.244C101.177 142.216 101.249 142.154 101.291 142.07C101.334 141.987 101.345 141.889 101.321 141.797C101.298 141.705 101.242 141.627 101.165 141.578C75.3928 123.708 37.4517 129.575 7.1253 116.571C6.3573 116.22 5.53362 115.869 4.76562 115.459C4.54674 115.337 4.38354 115.63 4.54674 115.747Z" fill="#231F20"/>
<path id="Vector_7" d="M93.9774 134.432C93.9279 134.46 93.8865 134.503 93.8577 134.554C93.8289 134.606 93.8136 134.665 93.8136 134.725C93.8136 134.785 93.8289 134.844 93.8577 134.896C93.8865 134.947 93.9279 134.99 93.9774 135.018C97.5438 137.361 101.001 139.938 104.402 142.515C104.512 142.633 104.731 142.398 104.567 142.282C101.457 139.547 98.1751 137.042 94.7454 134.783C95.7828 134.243 96.8669 133.811 97.9826 133.495C103.672 131.855 108.515 132.286 114.223 129.746C116.239 129.315 119.063 127.901 120.149 126.407C120.593 127.824 121.538 129.001 122.782 129.686C124.099 130.448 125.745 130.741 126.513 132.263C126.55 132.329 126.605 132.381 126.67 132.413C126.735 132.446 126.808 132.456 126.879 132.444C126.95 132.431 127.016 132.396 127.068 132.343C127.12 132.29 127.156 132.221 127.171 132.146C127.332 131.288 127.312 130.402 127.114 129.552C126.915 128.702 126.543 127.91 126.024 127.233C125.504 126.555 124.851 126.009 124.11 125.633C123.369 125.257 122.56 125.061 121.74 125.059C123.386 123.594 124.867 121.076 124.648 118.733C124.514 117.51 124.057 116.352 123.331 115.394C123.293 115.356 123.248 115.327 123.198 115.309C123.149 115.291 123.096 115.285 123.044 115.29C122.992 115.296 122.942 115.313 122.897 115.341C122.852 115.369 122.813 115.407 122.782 115.452C121.081 118.382 119.381 122.012 119.929 125.586C119.621 125.962 119.271 126.297 118.887 126.582C117.69 127.639 116.31 128.435 114.827 128.925C109.066 130.388 103.058 130.328 97.325 128.749C92.7154 127.576 88.2016 126.008 83.8274 124.063C80.0661 122.32 75.1682 119.495 71.3733 119.495C71.2082 119.495 71.1535 119.787 71.3186 119.787C76.9538 120.629 80.9983 123.84 87.0626 126.172C92.9887 128.573 99.1883 130.506 105.552 130.741C106.76 130.798 108.021 130.741 109.229 130.683C105.891 131.574 97.8875 131.894 93.9774 134.432ZM126.568 130.976C125.688 130.159 124.661 129.541 123.55 129.161C122.86 128.859 122.233 128.413 121.706 127.85C121.178 127.287 120.761 126.618 120.478 125.881C121.203 125.679 121.961 125.658 122.695 125.821C123.428 125.983 124.116 126.324 124.706 126.818C125.295 127.311 125.77 127.943 126.093 128.664C126.416 129.385 126.579 130.176 126.568 130.976ZM123.112 116.217C123.597 116.954 123.884 117.818 123.942 118.716C124 119.614 123.827 120.512 123.442 121.313C122.922 122.566 122.133 123.67 121.138 124.535C120.863 124.769 120.589 124.945 120.314 125.179C120.404 122.457 120.982 119.949 123.112 116.215L123.112 116.217Z" fill="#231F20"/>
<path id="Vector_8" d="M112.96 76.9691C107.959 75.9442 104.608 75.5507 95.8973 80.3083C92.6593 82.065 89.4231 83.8227 86.2407 85.6973C83.6314 87.2716 79.0974 89.7149 77.0775 91.0863C77.0508 91.1033 77.0311 91.1304 77.0225 91.1623C77.0138 91.1942 77.0167 91.2284 77.0307 91.258C77.0447 91.2877 77.0687 91.3105 77.0979 91.322C77.1271 91.3335 77.1592 91.3328 77.1879 91.32C79.1626 90.5584 82.8941 88.3918 82.9479 88.3918C88.1597 89.9732 93.4273 91.4378 98.6401 92.9014C96.7421 94.3475 93.9361 96.2692 93.0433 96.9426C92.0554 97.5873 86.8426 100.867 86.8426 100.867C86.7341 102.566 87.0625 104.909 87.1172 106.606C87.1793 108.273 87.326 109.936 87.5569 111.586C87.6116 111.702 87.7757 111.702 87.7757 111.586C88.2836 109.237 87.3917 101.393 87.3917 101.276C90.5962 99.4752 95.8465 95.7496 98.8589 93.6024C98.7629 96.3769 99.1978 102.493 99.2977 103.56C99.3045 104.062 99.3976 104.558 99.5722 105.024C99.5942 105.061 99.6256 105.09 99.6627 105.108C99.6998 105.127 99.741 105.133 99.7815 105.127C99.822 105.121 99.86 105.103 99.8909 105.074C99.9219 105.046 99.9446 105.008 99.9562 104.967C100.038 104.482 100.038 103.986 99.9562 103.502C99.9562 103.4 99.4695 95.0609 99.2429 93.2529C99.6557 92.8122 131.768 102.447 134.631 102.918C133.26 104.09 109.065 124.005 108.734 124.299C108.723 124.31 108.714 124.324 108.707 124.339C108.701 124.354 108.698 124.37 108.697 124.387C108.697 124.404 108.7 124.42 108.706 124.436C108.712 124.451 108.72 124.465 108.731 124.477C108.742 124.489 108.756 124.498 108.77 124.504C108.785 124.511 108.8 124.514 108.816 124.513C108.831 124.513 108.847 124.509 108.861 124.503C108.875 124.496 108.888 124.486 108.899 124.474C111.837 122.383 129.229 108.674 139.131 100.107C139.975 99.3891 144.963 94.9922 145.111 94.8354C144.88 96.3123 144.842 105.842 145.166 107.019C145.182 107.058 145.209 107.091 145.243 107.114C145.277 107.138 145.317 107.15 145.358 107.15C145.398 107.15 145.438 107.138 145.472 107.114C145.506 107.091 145.533 107.058 145.55 107.019C145.805 106.008 145.898 104.958 145.823 103.914C145.823 102.859 145.658 94.776 145.658 94.776C145.754 94.776 158.234 98.2043 159.814 98.7598C160.253 98.8766 160.637 99.0519 161.077 99.1697C160.911 100.048 160.527 106.374 160.472 107.312C160.352 108.305 160.371 109.311 160.527 110.298C160.538 110.336 160.559 110.37 160.589 110.393C160.618 110.417 160.655 110.43 160.692 110.43C160.729 110.43 160.765 110.417 160.794 110.393C160.824 110.37 160.845 110.336 160.856 110.298C161.248 109.253 161.593 100.254 161.461 99.1113C161.569 98.9935 161.625 98.7014 161.405 98.6419C158.2 97.0974 154.908 96.8996 146.813 94.4244C146.265 94.2491 145.605 93.8392 145.002 94.0144C144.565 94.2191 144.173 94.5186 143.85 94.8938C142.589 96.0653 136.828 101.043 135.182 102.449C134.51 102.193 87.435 89.0846 83.2791 88.1007C87.4244 85.7434 96.9111 80.2981 101.327 78.5526C106.165 76.7385 107.951 76.882 111.587 77.5574C117.165 78.5178 125.891 80.6619 126.236 80.6619C126.061 81.4993 126.044 86.9846 126.785 88.5691C126.798 88.5928 126.818 88.6115 126.841 88.6222C126.865 88.633 126.891 88.6352 126.916 88.6286C126.94 88.622 126.962 88.6068 126.978 88.5856C126.994 88.5643 127.004 88.538 127.004 88.5107C127.07 88.1233 126.728 80.7388 126.675 80.4272C126.692 80.3851 126.699 80.3394 126.697 80.2937C126.694 80.248 126.682 80.2036 126.661 80.1639C126.639 80.1241 126.61 80.0902 126.574 80.0648C126.538 80.0393 126.498 80.0231 126.455 80.0172C126.304 80.1822 122.542 78.8868 112.96 76.9691Z" fill="#088542"/>
<path id="Vector_9" d="M67.9168 111.587C67.7526 111.529 62.3757 110.474 61.2237 110.182C58.864 109.596 56.5053 108.835 54.1456 108.073C54.1269 108.067 54.1072 108.065 54.0878 108.068C54.0684 108.07 54.0497 108.077 54.033 108.088C54.0162 108.099 54.0017 108.113 53.9905 108.13C53.9792 108.147 53.9714 108.166 53.9676 108.187C53.9637 108.207 53.964 108.229 53.9682 108.249C53.9725 108.269 53.9807 108.288 53.9923 108.305C54.0039 108.322 54.0187 108.336 54.0356 108.346C54.0526 108.357 54.0714 108.363 54.0909 108.365C56.3517 109.388 58.6807 110.23 61.0586 110.884C62.2106 111.236 67.8074 112.291 68.0819 112.232C68.1611 112.243 68.2413 112.225 68.3106 112.183C68.3798 112.141 68.4343 112.076 68.4659 111.997C70.2809 107.2 71.7661 102.267 72.9098 97.2387C72.6343 97.2486 72.3587 97.2286 72.087 97.1793C71.0852 101.57 69.8391 105.893 68.3555 110.125C68.1914 110.65 68.0819 111.119 67.9168 111.587Z" fill="#231F20"/>
<path id="Vector_10" d="M74.0623 86.9855C74.0623 80.8258 71.3848 76.3265 65.7227 76.3265V76.268C65.1415 75.4377 64.3595 74.7918 63.4607 74.3996C62.5618 74.0075 61.58 73.8838 60.6203 74.0419C56.6747 74.4375 54.8699 75.7105 53.2139 77.6158C53.2025 77.6271 53.1933 77.6408 53.1869 77.6561C53.1805 77.6713 53.1771 77.6877 53.1768 77.7044C53.1765 77.7211 53.1794 77.7376 53.1852 77.7531C53.1911 77.7686 53.1998 77.7826 53.2108 77.7944C53.2218 77.8062 53.235 77.8155 53.2495 77.8217C53.264 77.828 53.2795 77.831 53.2951 77.8307C53.3107 77.8304 53.3261 77.8267 53.3404 77.8199C53.3546 77.8131 53.3675 77.8033 53.3781 77.7911C54.9097 76.29 56.8149 75.2935 58.8645 74.9213C60.8949 74.5113 63.6376 74.3935 65.0085 76.3849C57.6549 77.005 48.2757 86.9261 44.9291 94.0728C44.8735 94.1907 45.0386 94.3075 45.148 94.1907C50.1794 84.8988 58.5631 78.4788 63.58 77.3821C67.684 76.5058 71.452 78.1713 72.6875 82.5364C73.1377 84.2111 73.3414 85.9502 73.2914 87.6917C73.5976 87.5255 73.8619 87.2834 74.0623 86.9855Z" fill="#231F20"/>
<path id="Vector_11" d="M25.067 113.755C28.6891 114.729 35.2257 115.537 38.5646 115.102C46.8638 114.144 53.387 107.709 58.4261 100.693C61.4222 96.6488 63.9973 92.2688 66.1061 87.6302C66.1379 87.5683 66.1463 87.4957 66.1297 87.4273C66.113 87.359 66.0724 87.3 66.0163 87.2625C65.9602 87.225 65.8928 87.2119 65.8279 87.2258C65.7631 87.2396 65.7056 87.2795 65.6673 87.3371C64.6248 89.2701 63.6369 91.2031 62.5396 93.1361C59.7403 97.9183 55.2043 104.291 50.8536 108.19C47.8724 110.966 44.3204 112.953 40.4856 113.989C38.3931 114.448 36.2498 114.586 34.1208 114.399C32.0952 114.233 27.9845 114.015 26.0011 113.052C24.0177 112.09 22.3349 108.987 21.2827 106.843C21.228 106.725 21.1176 106.609 21.0629 106.725C21.0501 106.736 21.0398 106.749 21.0327 106.764C21.0256 106.78 21.0219 106.796 21.0219 106.813C21.0219 106.831 21.0256 106.847 21.0327 106.863C21.0398 106.878 21.0501 106.891 21.0629 106.902C21.7516 109.263 23.0438 111.373 24.7944 112.994C22.2197 112.334 19.2619 111.076 17.8257 108.717C18.2467 109.022 18.7242 109.227 19.2259 109.318C19.7276 109.409 20.2418 109.384 20.7336 109.245C20.7575 109.237 20.7786 109.222 20.7936 109.201C20.8086 109.18 20.8167 109.154 20.8167 109.127C20.8167 109.101 20.8086 109.075 20.7936 109.054C20.7786 109.032 20.7575 109.017 20.7336 109.01C20.0616 108.6 17.7307 108.591 17.4417 107.897C17.2244 107.399 17.0942 106.863 17.0577 106.315C17.0598 106.299 17.0585 106.282 17.054 106.266C17.0494 106.25 17.0417 106.235 17.0313 106.222C17.021 106.21 17.0082 106.199 16.9939 106.193C16.9796 106.186 16.964 106.182 16.9483 106.182C16.9326 106.182 16.917 106.186 16.9027 106.193C16.8884 106.199 16.8756 106.21 16.8652 106.222C16.8549 106.235 16.8472 106.25 16.8426 106.266C16.8381 106.282 16.8368 106.299 16.8389 106.315C16.7822 110.884 21.6091 112.825 25.067 113.755Z" fill="#231F20"/>
<path id="Vector_12" d="M54.311 42.5854C53.5228 41.8372 51.165 42.1365 50.1407 42.4091C50.0313 42.4686 50.0313 42.7022 50.1954 42.6438C52.5417 42.4388 53.686 43.2137 54.2553 43.1122C54.4204 43.1122 54.4751 42.7607 54.311 42.5854Z" fill="#231F20"/>
<path id="Vector_13" d="M31.8692 110.358C31.321 110.298 27.8094 109.948 26.6026 109.83C26.5653 109.835 26.5303 109.852 26.5031 109.88C26.4758 109.908 26.4577 109.944 26.4516 109.984C26.4454 110.023 26.4515 110.064 26.4688 110.1C26.4862 110.135 26.514 110.164 26.5479 110.181C29.2724 111.013 33.0049 111.325 33.625 111.061C33.8449 110.943 33.8449 110.651 33.625 110.591C33.0583 110.398 32.463 110.319 31.8692 110.358Z" fill="#231F20"/>
<path id="Vector_14" d="M84.7613 121.955C84.5444 122.135 84.816 122.482 85.0359 122.365C86.493 121.558 87.9035 120.658 89.2599 119.671C90.865 118.576 104.66 109.587 106.222 108.468C106.222 108.689 106.978 118.922 107.256 119.671C107.268 119.716 107.293 119.755 107.328 119.783C107.362 119.811 107.405 119.826 107.448 119.826C107.491 119.826 107.534 119.811 107.568 119.783C107.603 119.755 107.628 119.716 107.64 119.671C107.665 115.666 107.353 111.667 106.708 107.722C106.708 107.605 106.597 107.545 106.488 107.605C106.479 107.591 106.466 107.58 106.452 107.572C106.438 107.564 106.422 107.56 106.406 107.56C106.39 107.56 106.374 107.564 106.36 107.572C106.346 107.58 106.333 107.591 106.324 107.605C103.146 109.691 105.605 107.767 92.9367 116.332C90.3821 115.605 74.6352 108.598 72.4167 107.37C72.2516 107.253 72.0874 107.545 72.2516 107.663C78.681 111.162 85.3153 114.214 92.113 116.8C90.7258 117.727 86.1159 120.829 84.7613 121.955Z" fill="#088542"/>
<path id="Vector_15" d="M133.098 87.9818C130.522 90.3053 130.924 90.1649 129.75 89.9148C129.462 89.8123 111.749 84.7564 108.407 84.1753C108.298 84.1169 108.078 84.1169 108.078 84.3505C108.078 85.1121 108.078 85.8736 108.134 86.6351C108.189 87.3966 108.188 91.6725 108.627 93.1945C108.737 93.546 109.011 93.3124 109.066 93.1945C109.515 91.5956 108.483 84.7902 108.462 84.5258C110.712 85.4042 113.07 86.0488 115.374 86.6925C128.699 90.5728 129.658 90.91 130.407 90.91C130.407 91.7535 130.791 99.2999 131.011 100.458C131.065 100.693 131.449 100.751 131.504 100.458C131.629 99.7252 131.043 91.5413 130.901 90.8516C131.592 90.4727 132.222 89.9782 132.766 89.387C133.48 88.7433 137.924 84.7011 139.294 83.178C144.506 84.5842 149.774 85.6973 154.986 86.9272C160.088 88.1571 180.663 93.956 181.98 94.4254C182.942 94.7041 183.852 95.1598 184.668 95.7722C186.894 97.6006 186.079 99.1851 184.612 101.747C181.024 107.973 176.452 112.583 171.39 117.503C168.372 116.39 155.808 112.817 152.626 111.764C152.297 111.647 152.132 111.589 151.858 111.764C148.498 114.166 141.345 120.663 138.251 123.479C138.196 123.538 138.415 127.697 138.525 128.575C138.87 131.518 138.782 132.872 139.403 134.199C139.458 134.374 139.732 134.315 139.787 134.141C139.897 133.261 139.074 124.416 139.019 123.831C140.929 122.402 150.552 113.25 151.967 112.642C152.017 113.53 152.351 122.891 152.351 123.655C152.325 124.207 152.38 124.761 152.516 125.295C152.571 125.528 152.845 125.528 152.955 125.295C153.418 123.811 152.72 113.453 152.516 112.586C152.612 112.586 151.108 112.165 170.896 118.15C163.356 125.397 155.424 132.164 147.14 138.417C147.044 138.363 139.327 135.048 131.173 131.037C130.515 130.687 129.802 130.394 129.143 130.042C129.088 129.984 129.033 130.042 128.978 130.042C128.869 129.984 128.649 130.042 128.649 130.217C128.705 132.575 129.621 142.414 130.131 144.041C130.186 144.218 130.405 144.159 130.46 143.983C130.496 143.397 130.478 142.808 130.405 142.225C130.35 141.639 130.35 141.054 130.295 140.468C130.185 139.296 129.527 132.443 129.088 130.218C130.185 130.863 131.228 131.566 132.38 132.211C133.964 133.095 141.637 136.873 146.371 138.77C138.622 144.519 130.601 149.836 122.34 154.702C118.994 156.667 118.293 157.175 115.044 155.757C113.947 155.288 103.083 150.368 102.041 149.899C101.711 149.723 101.546 150.25 101.766 150.485C101.684 151.596 101.684 152.713 101.766 153.824C101.913 157.271 102.026 162.988 102.425 164.893C102.395 164.931 102.373 164.975 102.36 165.023C102.347 165.07 102.342 165.12 102.347 165.169C102.353 165.219 102.367 165.266 102.389 165.31C102.412 165.353 102.443 165.391 102.479 165.421C104.015 166.183 113.727 170.517 114.549 170.868C117.097 171.955 118.257 172.464 121.737 170.4C139.885 159.98 156.749 147.191 171.939 132.326C176.797 127.795 181.192 122.729 185.053 117.212C185.546 116.451 186.644 114.869 186.644 114.752C187.011 111.61 186.824 97.7513 186.808 97.6488C186.589 95.5395 184.558 94.4275 182.857 93.7828C181.651 93.3134 176.439 91.7914 175.122 91.3814C157.504 86.2333 139.365 82.6369 139.239 82.7722C137.706 83.8227 133.752 87.3915 133.098 87.9818ZM186.208 114.75C181.304 121.225 179.533 123.764 173.369 129.863C163.433 139.682 152.774 148.634 141.497 156.632C138.403 158.813 122.55 169.136 119.66 170.456C117.438 171.405 116.32 170.536 114.613 169.929C111.43 168.523 103.639 165.066 102.871 164.773C103.01 163.434 102.418 152.233 102.158 150.657C103.146 151.127 112.91 155.754 115.161 156.691C118.224 158.029 119.572 157.214 122.457 155.519C138.61 146.191 153.752 134.995 167.612 122.131C172.988 117.118 179.947 110.48 183.74 104.559C184.453 103.446 186.099 100.575 186.263 100.224C186.153 101.336 186.098 113.462 186.208 114.75Z" fill="#088542"/>
<path id="Vector_16" d="M41.6328 126.406C41.3297 127.676 41.5074 129.023 42.1272 130.155C43.7804 133.525 48.1752 135.774 51.3432 138.005C61.7928 145.121 85.9848 158.075 90.1388 159.854C90.468 159.972 90.5228 159.562 90.5228 159.444C90.5228 158.857 90.6322 156.105 90.6322 155.286C90.6322 145.411 90.7983 145.465 90.5775 145.151C90.468 144.975 84.542 142.164 82.1832 140.992C79.0008 139.411 64.2418 131.796 64.022 131.679C63.8021 131.562 63.638 131.855 63.8578 132.03C69.2146 135.797 89.8632 145.457 89.8642 145.737C89.9084 155.889 89.8805 156.606 90.0284 158.741C90.0284 158.975 90.084 159.151 90.084 159.385C83.6616 156.243 67.6613 147.207 61.1141 143.277C50.9765 137.12 52.3551 137.709 50.8546 136.775C46.9925 134.223 41.6271 131.317 42.0764 126.526C42.1858 126.114 41.7471 126.114 41.6328 126.406Z" fill="#088542"/>
<path id="Vector_17" d="M117.184 136.716C117.184 136.365 116.91 136.248 116.635 136.131C113.892 135.095 111.088 134.254 108.241 133.612C108.222 133.607 108.203 133.606 108.185 133.609C108.166 133.612 108.148 133.62 108.132 133.63C108.116 133.641 108.102 133.655 108.091 133.672C108.08 133.689 108.073 133.708 108.069 133.728C108.065 133.748 108.066 133.768 108.069 133.788C108.073 133.808 108.081 133.827 108.092 133.843C108.103 133.86 108.117 133.874 108.133 133.884C108.149 133.895 108.167 133.902 108.186 133.905C110.985 134.842 113.782 135.838 116.58 136.95C116.476 137.679 116.445 146.687 116.8 148.197C116.854 148.373 117.074 148.373 117.074 148.197C117.175 147.225 117.23 146.247 117.239 145.268C117.406 139.32 117.184 137.136 117.184 136.716Z" fill="#088542"/>
<path id="Vector_18" d="M60.291 69.9986C64.5946 68.1395 70.4881 63.3285 73.4084 60.2169C76.105 57.3379 76.825 56.1562 74.451 52.7771C71.5172 48.5647 65.5921 44.3451 60.4052 43.4053C60.1959 42.2871 58.7953 41.2981 57.8266 40.8276C56.4585 40.2141 54.9545 40.0313 53.4922 40.3008C53.3828 40.3592 53.3828 40.5345 53.4922 40.5345C54.1422 40.6899 54.8029 40.7879 55.4679 40.8276C58.85 41.4293 59.355 42.9594 60.1316 43.5805C62.6274 44.2769 64.9996 45.4049 67.154 46.9197C69.4132 48.3504 71.4495 50.1485 73.1895 52.2492C73.8078 53.0036 75.0375 54.7634 75.1095 55.7637C75.2746 57.1698 74.0122 58.2829 73.1895 59.1612C69.315 63.2058 64.9185 66.6378 60.1335 69.353C59.8522 69.6471 60.0174 70.1165 60.291 69.9986Z" fill="#231F20"/>
<path id="Vector_19" d="M57.0527 57.874C56.8885 57.9324 56.9979 58.2255 57.1621 58.1661C58.9861 57.5952 66.2619 54.131 66.4895 53.9486C66.528 53.9233 66.5577 53.8852 66.5741 53.8402C66.5905 53.7952 66.5927 53.7457 66.5803 53.6993C66.5679 53.6529 66.5416 53.612 66.5054 53.583C66.4693 53.554 66.4252 53.5384 66.38 53.5386C65.6023 53.6864 64.8461 53.9424 64.1307 54.3001C63.6664 53.6684 63.172 53.0626 62.6495 52.485C61.3055 50.922 58.6088 47.6505 57.6018 46.2166C57.6228 46.1442 57.6236 46.0669 57.604 45.994C57.5844 45.9212 57.5452 45.8561 57.4914 45.8067C56.5592 45.2214 55.4619 46.2761 54.5288 46.4513C53.9464 46.539 53.3554 46.539 52.773 46.4513C52.1277 46.4347 51.4851 46.3562 50.853 46.2166C50.6331 46.1582 50.5784 46.4513 50.7983 46.5098C55.8479 48.1271 55.6107 46.1746 57.1074 46.3345C57.5077 46.3345 57.6622 46.9084 57.8754 47.2128C59.6216 49.771 61.5087 52.2159 63.5269 54.5348C63.4309 54.4323 58.8047 57.0059 57.0527 57.874Z" fill="#231F20"/>
<path id="Vector_20" d="M16.8919 102.918C22.4531 104.968 28.7431 105.73 34.3389 103.562C42.9635 100.056 42.0112 95.8305 48.4394 87.1639C51.4211 83.2692 51.1504 84.0943 51.7869 83.4148C52.34 80.9996 52.6163 78.5217 52.6096 76.0354C50.5802 77.4808 48.6548 79.0862 46.8496 80.8381C46.8361 80.8571 46.819 80.8727 46.7994 80.884C46.7797 80.8953 46.7581 80.902 46.7358 80.9036C46.7136 80.9052 46.6913 80.9018 46.6704 80.8934C46.6495 80.8851 46.6305 80.8721 46.6147 80.8553C46.5989 80.8385 46.5867 80.8183 46.5788 80.7961C46.5709 80.7738 46.5676 80.75 46.569 80.7262C46.5704 80.7025 46.5766 80.6793 46.5871 80.6583C46.5975 80.6373 46.6121 80.619 46.6298 80.6045C47.6463 79.4223 48.7469 78.3258 49.9216 77.3247C48.2762 78.1447 46.5751 78.9646 44.8739 79.6093C44.8455 79.6197 44.8145 79.6188 44.7867 79.6066C44.7589 79.5944 44.7362 79.5719 44.7228 79.5432C44.7094 79.5145 44.7062 79.4815 44.7139 79.4505C44.7216 79.4195 44.7396 79.3925 44.7645 79.3746C48.2762 77.0316 57.8205 72.9904 58.2045 72.2873C58.7536 71.3505 58.6442 64.5554 58.0951 62.3877C57.6304 60.493 56.746 58.7454 55.5165 57.2918C55.2967 57.0582 47.3411 60.2794 43.4455 61.5093C40.3735 62.5445 39.8992 63.2138 37.7402 65.3753C37.6298 65.4921 37.4109 65.3169 37.5203 65.2C38.318 63.9969 39.3013 62.9472 40.4282 62.0956C41.7772 61.2694 43.24 60.6762 44.7626 60.3379C44.488 60.3963 43.6106 59.2832 43.3907 59.0496C41.0628 56.8152 38.0714 55.529 34.9427 55.4173C34.3936 55.4173 34.3936 57.3503 34.4483 57.3503C36.0357 57.5422 37.5391 58.2127 38.7827 59.2832C38.8931 59.3417 38.7827 59.5764 38.6733 59.5179C37.3343 58.9194 35.9354 58.4872 34.504 58.2296C29.9576 62.2616 26.2563 67.2694 23.6407 72.9279C19.2554 81.9153 17.3047 92.4012 16.7287 102.683C16.6173 102.743 16.7277 102.858 16.8919 102.918ZM30.0592 88.279C27.5987 90.3032 23.5514 91.3353 20.4592 91.4419C20.4009 91.4419 20.345 91.4171 20.3038 91.3731C20.2625 91.3291 20.2394 91.2694 20.2394 91.2072C20.2394 91.1449 20.2625 91.0852 20.3038 91.0412C20.345 90.9972 20.4009 90.9725 20.4592 90.9725C22.0996 90.8449 23.7201 90.5109 25.2871 89.9773C26.834 89.4185 28.3383 88.7332 29.7866 87.9275C30.0045 87.8055 30.2771 88.0955 30.0592 88.279ZM37.5213 76.3285C37.6855 76.2117 37.8506 76.4464 37.7411 76.5632C37.3104 77.1708 36.8332 77.7391 36.3146 78.2625C32.0007 82.6113 26.8783 85.9426 21.28 88.0402C21.0602 88.0986 21.0055 87.7471 21.1706 87.6886C29.4323 84.1609 35.776 77.7726 37.5213 76.3244V76.3285Z" fill="#088542"/>
<path id="Vector_21" d="M71.3192 89.7384C71.2856 89.7427 71.2546 89.76 71.2322 89.787C71.2097 89.814 71.1973 89.8489 71.1973 89.885C71.1973 89.9211 71.2097 89.956 71.2322 89.983C71.2546 90.0101 71.2856 90.0273 71.3192 90.0316C72.4511 90.1353 73.5754 89.7561 74.446 88.9769C75.0498 88.4501 76.366 87.044 75.9272 86.1072C75.6536 85.4625 75.1045 86.9855 75.0498 87.1024C74.6841 87.8398 74.151 88.4675 73.4992 88.9281C72.8475 89.3886 72.098 89.6672 71.3192 89.7384Z" fill="#231F20"/>
<path id="Vector_22" d="M74.0608 90.9684C73.1817 91.5316 72.1781 91.8351 71.153 91.8478C71.0875 91.8478 71.0248 91.8755 70.9785 91.9249C70.9322 91.9743 70.9062 92.0413 70.9063 92.1112C70.9062 92.181 70.9322 92.248 70.9785 92.2974C71.0248 92.3468 71.0875 92.3746 71.153 92.3746C72.258 92.423 73.3554 92.1603 74.3354 91.6131C74.8845 91.2615 76.5846 89.6217 75.8166 88.8602C75.3779 88.3918 75.1034 89.7969 74.9392 89.9732C74.7407 90.3871 74.4361 90.7323 74.0608 90.9684Z" fill="#231F20"/>
<path id="Vector_23" d="M75.4882 91.9687C75.2136 91.6172 74.8296 92.2034 74.6654 92.3787C74.1949 92.8646 73.6057 93.1992 72.9653 93.3442C72.3248 93.4892 71.6591 93.4388 71.0443 93.1986C70.6747 93.0449 70.6277 93.5317 70.9349 93.7254C73.3243 95.0578 76.0095 92.7067 75.4882 91.9687Z" fill="#231F20"/>
<path id="Vector_24" d="M73.0744 96.0683C75.0904 95.8715 75.3381 94.5135 74.8303 94.6037C74.1717 94.6621 73.6235 95.2474 72.965 95.3652C72.3215 95.4845 71.66 95.4237 71.045 95.1889C70.8808 95.0947 70.6754 95.4441 71.045 95.6573C71.6616 96.0264 72.3741 96.1707 73.0744 96.0683Z" fill="#231F20"/>
<path id="Vector_25" d="M47.123 47.7981C47.123 47.9691 47.1693 48.133 47.2515 48.2539C47.3338 48.3748 47.4454 48.4427 47.5618 48.4427C47.6781 48.4427 47.7897 48.3748 47.872 48.2539C47.9543 48.133 48.0005 47.9691 48.0005 47.7981C48.0005 47.6271 47.9543 47.4631 47.872 47.3422C47.7897 47.2213 47.6781 47.1534 47.5618 47.1534C47.4454 47.1534 47.3338 47.2213 47.2515 47.3422C47.1693 47.4631 47.123 47.6271 47.123 47.7981Z" fill="#231F20"/>
</g>
</svg>
