<svg width="57" height="57" viewBox="0 0 57 57" fill="none" xmlns="http://www.w3.org/2000/svg">
<mask id="mask0_210_23414" style="mask-type:alpha" maskUnits="userSpaceOnUse" x="0" y="0" width="57" height="57">
<rect x="0.191406" y="0.427734" width="56" height="56" fill="#D9D9D9"/>
</mask>
<g mask="url(#mask0_210_23414)">
<path d="M25.0412 37.1776L36.4162 29.8859C36.9607 29.5359 37.2329 29.0498 37.2329 28.4276C37.2329 27.8054 36.9607 27.3192 36.4162 26.9692L25.0412 19.6776C24.4579 19.2887 23.8649 19.2595 23.2621 19.5901C22.6593 19.9206 22.3579 20.4359 22.3579 21.1359V35.7192C22.3579 36.4192 22.6593 36.9345 23.2621 37.2651C23.8649 37.5956 24.4579 37.5665 25.0412 37.1776ZM28.1912 51.7609C24.9635 51.7609 21.9301 51.1484 19.0912 49.9234C16.2524 48.6984 13.7829 47.0359 11.6829 44.9359C9.58291 42.8359 7.92041 40.3665 6.69541 37.5276C5.47041 34.6887 4.85791 31.6554 4.85791 28.4276C4.85791 25.1998 5.47041 22.1665 6.69541 19.3276C7.92041 16.4887 9.58291 14.0192 11.6829 11.9192C13.7829 9.81924 16.2524 8.15674 19.0912 6.93174C21.9301 5.70674 24.9635 5.09424 28.1912 5.09424C31.419 5.09424 34.4524 5.70674 37.2912 6.93174C40.1301 8.15674 42.5996 9.81924 44.6996 11.9192C46.7996 14.0192 48.4621 16.4887 49.6871 19.3276C50.9121 22.1665 51.5246 25.1998 51.5246 28.4276C51.5246 31.6554 50.9121 34.6887 49.6871 37.5276C48.4621 40.3665 46.7996 42.8359 44.6996 44.9359C42.5996 47.0359 40.1301 48.6984 37.2912 49.9234C34.4524 51.1484 31.419 51.7609 28.1912 51.7609ZM28.1912 47.0942C33.4024 47.0942 37.8162 45.2859 41.4329 41.6692C45.0496 38.0526 46.8579 33.6387 46.8579 28.4276C46.8579 23.2165 45.0496 18.8026 41.4329 15.1859C37.8162 11.5692 33.4024 9.76091 28.1912 9.76091C22.9801 9.76091 18.5662 11.5692 14.9496 15.1859C11.3329 18.8026 9.52458 23.2165 9.52458 28.4276C9.52458 33.6387 11.3329 38.0526 14.9496 41.6692C18.5662 45.2859 22.9801 47.0942 28.1912 47.0942Z" fill="white"/>
</g>
</svg>
