<svg width="20" height="21" viewBox="0 0 20 21" fill="none" xmlns="http://www.w3.org/2000/svg">
<path d="M2.5 18.7721V10.4388C2.5 8.86745 2.5 8.08178 2.98816 7.59362C3.47631 7.10547 4.26198 7.10547 5.83333 7.10547C7.40468 7.10547 8.19036 7.10547 8.67851 7.59362C9.16667 8.08178 9.16667 8.86745 9.16667 10.4388" stroke="#444041" stroke-width="1.25"/>
<path d="M14.1667 18.7708V13.7708C14.1667 12.1995 14.1667 11.4138 13.6785 10.9257C13.1904 10.4375 12.4047 10.4375 10.8333 10.4375H9.16666C7.59531 10.4375 6.80964 10.4375 6.32148 10.9257C5.83333 11.4138 5.83333 12.1995 5.83333 13.7708V18.7708" stroke="#444041" stroke-width="1.25"/>
<path d="M17.5 18.7688V6.91215C17.5 5.79478 17.5 5.23609 17.2032 4.80782C16.9064 4.37956 16.3833 4.18339 15.3371 3.79105C13.291 3.02379 12.268 2.64015 11.5507 3.13727C10.8333 3.63439 10.8333 4.72698 10.8333 6.91215V10.4355" stroke="#444041" stroke-width="1.25"/>
<path d="M3.33333 7.10417V5.85417C3.33333 5.06849 3.33333 4.67566 3.57741 4.43158C3.82148 4.1875 4.21432 4.1875 4.99999 4.1875H6.66666C7.45234 4.1875 7.84517 4.1875 8.08925 4.43158C8.33333 4.67566 8.33333 5.06849 8.33333 5.85417V7.10417" stroke="#444041" stroke-width="1.25" stroke-linecap="round"/>
<path d="M5.83333 3.77214V2.10547" stroke="#444041" stroke-width="1.25" stroke-linecap="round"/>
<path d="M18.3333 18.7695L1.66667 18.7695" stroke="#444041" stroke-width="1.25" stroke-linecap="round"/>
<path d="M8.33333 12.9375H11.6667" stroke="#444041" stroke-width="1.25" stroke-linecap="round"/>
<path d="M8.33333 15.4375H11.6667" stroke="#444041" stroke-width="1.25" stroke-linecap="round"/>
</svg>
