<svg width="56" height="56" viewBox="0 0 56 56" fill="none" xmlns="http://www.w3.org/2000/svg">
<mask id="mask0_210_23396" style="mask-type:alpha" maskUnits="userSpaceOnUse" x="0" y="0" width="56" height="56">
<rect width="56" height="56" fill="#D9D9D9"/>
</mask>
<g mask="url(#mask0_210_23396)">
<path d="M23.3332 37.3332C23.9943 37.3332 24.5485 37.1096 24.9957 36.6623C25.4429 36.2151 25.6665 35.661 25.6665 34.9998V20.9998C25.6665 20.3387 25.4429 19.7846 24.9957 19.3373C24.5485 18.8901 23.9943 18.6665 23.3332 18.6665C22.6721 18.6665 22.1179 18.8901 21.6707 19.3373C21.2234 19.7846 20.9998 20.3387 20.9998 20.9998V34.9998C20.9998 35.661 21.2234 36.2151 21.6707 36.6623C22.1179 37.1096 22.6721 37.3332 23.3332 37.3332ZM32.6665 37.3332C33.3276 37.3332 33.8818 37.1096 34.329 36.6623C34.7762 36.2151 34.9998 35.661 34.9998 34.9998V20.9998C34.9998 20.3387 34.7762 19.7846 34.329 19.3373C33.8818 18.8901 33.3276 18.6665 32.6665 18.6665C32.0054 18.6665 31.4512 18.8901 31.004 19.3373C30.5568 19.7846 30.3332 20.3387 30.3332 20.9998V34.9998C30.3332 35.661 30.5568 36.2151 31.004 36.6623C31.4512 37.1096 32.0054 37.3332 32.6665 37.3332ZM27.9998 51.3332C24.7721 51.3332 21.7387 50.7207 18.8998 49.4957C16.0609 48.2707 13.5915 46.6082 11.4915 44.5082C9.3915 42.4082 7.729 39.9387 6.504 37.0998C5.279 34.261 4.6665 31.2276 4.6665 27.9998C4.6665 24.7721 5.279 21.7387 6.504 18.8998C7.729 16.0609 9.3915 13.5915 11.4915 11.4915C13.5915 9.3915 16.0609 7.729 18.8998 6.504C21.7387 5.279 24.7721 4.6665 27.9998 4.6665C31.2276 4.6665 34.261 5.279 37.0998 6.504C39.9387 7.729 42.4082 9.3915 44.5082 11.4915C46.6082 13.5915 48.2707 16.0609 49.4957 18.8998C50.7207 21.7387 51.3332 24.7721 51.3332 27.9998C51.3332 31.2276 50.7207 34.261 49.4957 37.0998C48.2707 39.9387 46.6082 42.4082 44.5082 44.5082C42.4082 46.6082 39.9387 48.2707 37.0998 49.4957C34.261 50.7207 31.2276 51.3332 27.9998 51.3332ZM27.9998 46.6665C33.211 46.6665 37.6248 44.8582 41.2415 41.2415C44.8582 37.6248 46.6665 33.211 46.6665 27.9998C46.6665 22.7887 44.8582 18.3748 41.2415 14.7582C37.6248 11.1415 33.211 9.33317 27.9998 9.33317C22.7887 9.33317 18.3748 11.1415 14.7582 14.7582C11.1415 18.3748 9.33317 22.7887 9.33317 27.9998C9.33317 33.211 11.1415 37.6248 14.7582 41.2415C18.3748 44.8582 22.7887 46.6665 27.9998 46.6665Z" fill="white"/>
</g>
</svg>
