<svg width="14" height="16" viewBox="0 0 14 16" fill="none" xmlns="http://www.w3.org/2000/svg">
<path d="M7 16C5.125 15.5417 3.57292 14.4803 2.34375 12.8158C1.11458 11.1513 0.5 9.30297 0.5 7.27083V2.5L7 0L13.5 2.5V7.27083C13.5 9.30297 12.8854 11.1513 11.6562 12.8158C10.4271 14.4803 8.875 15.5417 7 16ZM7 14.4375C8.44444 13.9896 9.63889 13.0938 10.5833 11.75C11.5278 10.4062 12 8.91319 12 7.27083V3.52083L7 1.60417L2 3.52083V7.27083C2 8.91319 2.47222 10.4062 3.41667 11.75C4.36111 13.0938 5.55556 13.9896 7 14.4375Z" fill="#C29B5B"/>
</svg>
