<svg width="12" height="12" viewBox="0 0 12 12" fill="none" xmlns="http://www.w3.org/2000/svg">
<g id="Group">
<g id="Group_2">
<path id="Vector" d="M11.334 0H6.00065C5.63398 0 5.33398 0.3 5.33398 0.666667V1.74C5.33398 1.74 5.33398 1.74 5.34065 1.74667L8.67398 4.74667C9.09398 5.12 9.33398 5.66667 9.33398 6.23333V6.66667H10.6673V8H9.33398V9.33333H10.6673V10.6667H9.33398V12H11.334C11.7007 12 12.0007 11.7 12.0007 11.3333V0.666667C12.0007 0.3 11.7007 0 11.334 0ZM8.00065 2.66667H6.66732V1.33333H8.00065V2.66667ZM10.6673 5.33333H9.33398V4H10.6673V5.33333ZM10.6673 2.66667H9.33398V1.33333H10.6673V2.66667Z" fill="#0A0A0A" fill-opacity="0.45"/>
<path id="Vector_2" d="M8 11.3333V6.23335C8 6.04668 7.92 5.86668 7.78 5.74001L4.44667 2.74001C4.32 2.62001 4.16 2.56668 4 2.56668C3.84 2.56668 3.68 2.62668 3.55333 2.74001L0.22 5.74001C0.08 5.86001 0 6.04001 0 6.23335V11.3333C0 11.7 0.3 12 0.666667 12H2C2.36667 12 2.66667 11.7 2.66667 11.3333V8.66668H5.33333V11.3333C5.33333 11.7 5.63333 12 6 12H7.33333C7.7 12 8 11.7 8 11.3333Z" fill="#0A0A0A" fill-opacity="0.45"/>
</g>
</g>
</svg>
