<svg width="12" height="12" viewBox="0 0 12 12" fill="none" xmlns="http://www.w3.org/2000/svg">
<path d="M9.13399 1.53332L10.094 0.573319C10.3073 0.359986 10.154 0.00665283 9.86065 0.00665283H5.66732C5.48065 0.00665283 5.33398 0.15332 5.33398 0.339986V4.53332C5.33398 4.83332 5.69398 4.97999 5.90065 4.76665L6.86732 3.79999C8.18065 4.77332 9.03398 6.31999 9.03398 8.07999C9.03398 8.51999 8.98065 8.95332 8.87398 9.35999C8.79398 9.69332 9.19398 9.93332 9.43398 9.68665C10.4207 8.66665 11.034 7.27999 11.034 5.74665C11.034 4.07332 10.294 2.57332 9.13399 1.53332Z" fill="#0A0A0A" fill-opacity="0.45"/>
<path d="M6.10013 7.24L5.13346 8.2C3.82013 7.22667 2.9668 5.68 2.9668 3.92C2.9668 3.48 3.02013 3.04667 3.1268 2.64C3.2068 2.30667 2.8068 2.06667 2.5668 2.31333C1.58013 3.33333 0.966797 4.72 0.966797 6.25333C0.966797 7.93333 1.70013 9.43333 2.86013 10.4733L1.90013 11.4333C1.6868 11.6467 1.84013 12 2.13346 12H6.3268C6.51346 12 6.66013 11.8533 6.66013 11.6667V7.47333C6.6668 7.18 6.3068 7.02667 6.10013 7.24Z" fill="#0A0A0A" fill-opacity="0.45"/>
</svg>
