<svg width="20" height="21" viewBox="0 0 20 21" fill="none" xmlns="http://www.w3.org/2000/svg">
<path d="M7.91656 16.8957C8.26174 16.8957 8.54156 16.6158 8.54156 16.2707C8.54156 15.9255 8.26174 15.6457 7.91656 15.6457V16.8957ZM9.16655 4.60415V5.22914C9.41934 5.22914 9.64723 5.07686 9.74397 4.84332C9.8407 4.60978 9.78723 4.34096 9.60849 4.16221L9.16655 4.60415ZM7.94184 2.49556C7.69777 2.25149 7.30204 2.25149 7.05797 2.49556C6.81389 2.73964 6.81389 3.13536 7.05797 3.37944L7.94184 2.49556ZM7.91656 15.6457H7.50013V16.8957H7.91656V15.6457ZM7.4999 5.22914H9.16655V3.97915H7.4999V5.22914ZM9.60849 4.16221L7.94184 2.49556L7.05797 3.37944L8.72461 5.04608L9.60849 4.16221ZM1.04165 10.4374C1.04165 14.0042 3.93337 16.8957 7.50013 16.8957V15.6457C4.62365 15.6457 2.29163 13.3138 2.29163 10.4374H1.04165ZM2.29163 10.4374C2.29163 7.56096 4.62346 5.22914 7.4999 5.22914V3.97915C3.93311 3.97915 1.04165 6.87061 1.04165 10.4374H2.29163Z" fill="#444041"/>
<path d="M10.8332 16.272V15.647C10.5804 15.647 10.3525 15.7993 10.2558 16.0328C10.1591 16.2664 10.2125 16.5352 10.3913 16.7139L10.8332 16.272ZM12.0579 18.3806C12.302 18.6247 12.6977 18.6247 12.9418 18.3806C13.1859 18.1365 13.1859 17.7408 12.9418 17.4967L12.0579 18.3806ZM12.0832 3.98048C11.738 3.98048 11.4582 4.2603 11.4582 4.60547C11.4582 4.95064 11.738 5.23046 12.0832 5.23046V3.98048ZM12.4999 15.647H10.8332V16.897H12.4999V15.647ZM10.3913 16.7139L12.0579 18.3806L12.9418 17.4967L11.2751 15.8301L10.3913 16.7139ZM12.0832 5.23046H12.4999V3.98048H12.0832V5.23046ZM17.7081 10.4387C17.7081 13.3152 15.3763 15.647 12.4999 15.647V16.897C16.0666 16.897 18.9581 14.0055 18.9581 10.4387H17.7081ZM18.9581 10.4387C18.9581 6.87194 16.0666 3.98048 12.4999 3.98048V5.23046C15.3763 5.23046 17.7081 7.56228 17.7081 10.4387H18.9581Z" fill="#444041"/>
</svg>
