<svg width="12" height="12" viewBox="0 0 12 12" fill="none" xmlns="http://www.w3.org/2000/svg">
<g id="Group">
<g id="Group_2">
<g id="Group_3">
<path id="Vector" d="M9.13399 1.53335L10.094 0.57335C10.3073 0.360017 10.154 0.00668335 9.86065 0.00668335H5.66732C5.48065 0.00668335 5.33398 0.15335 5.33398 0.340017V4.53335C5.33398 4.83335 5.69398 4.98002 5.90065 4.76668L6.86732 3.80002C8.18065 4.77335 9.03398 6.32002 9.03398 8.08002C9.03398 8.52002 8.98065 8.95335 8.87398 9.36002C8.79398 9.69335 9.19398 9.93335 9.43398 9.68668C10.4207 8.66668 11.034 7.28002 11.034 5.74668C11.034 4.07335 10.294 2.57335 9.13399 1.53335Z" fill="#0A0A0A" fill-opacity="0.45"/>
</g>
<g id="Group_4">
<path id="Vector_2" d="M6.10013 7.24003L5.13346 8.20003C3.82013 7.2267 2.9668 5.68003 2.9668 3.92003C2.9668 3.48003 3.02013 3.0467 3.1268 2.64003C3.2068 2.3067 2.8068 2.0667 2.5668 2.31336C1.58013 3.33336 0.966797 4.72003 0.966797 6.25336C0.966797 7.93336 1.70013 9.43336 2.86013 10.4734L1.90013 11.4334C1.6868 11.6467 1.84013 12 2.13346 12H6.3268C6.51346 12 6.66013 11.8534 6.66013 11.6667V7.47336C6.6668 7.18003 6.3068 7.0267 6.10013 7.24003Z" fill="#0A0A0A" fill-opacity="0.45"/>
</g>
</g>
</g>
</svg>
