<svg width="192" height="192" viewBox="0 0 192 192" fill="none" xmlns="http://www.w3.org/2000/svg">
<path d="M81.7446 51.3699C91.6141 45.3537 65.2896 42.9822 8 51.8092C8 51.8092 55.1733 73.602 84.3914 94.2229C84.8998 94.5853 85.4856 94.8296 86.1045 94.9374C86.7234 95.0451 87.3592 95.0135 87.9638 94.8449C88.5684 94.6763 89.126 94.3751 89.5943 93.9641C90.0626 93.5531 90.4295 93.0431 90.6671 92.4726L98.0403 74.8599L106.067 76.0181C106.374 76.06 106.687 76.0185 106.972 75.8983C107.257 75.7781 107.503 75.5837 107.683 75.3362C107.864 75.0887 107.972 74.7976 107.995 74.4943C108.019 74.191 107.957 73.8872 107.817 73.6158L102.52 63.4315C102.522 63.4726 77.1442 54.1721 81.7446 51.3699Z" fill="#088542"/>
<path d="M109.581 48.6384C107.224 41.4903 98.1837 41.3506 91.9971 40.4322C67.6743 37.1386 42.9234 39.5438 19.6786 47.4599C17.3808 48.2211 8.0418 51.7498 8.0418 52.2963C7.69443 52.5407 8.6879 52.4063 44.3834 62.2118C107.649 79.5896 93.2893 76.267 104.089 77.9379C106.677 78.3378 110.192 76.7995 108.737 73.5083C107.08 70.2573 105.374 67.0115 103.724 63.7151C103.521 63.31 106.474 59.5247 106.837 59.041C108.742 55.7917 110.934 52.7432 109.581 48.6384ZM72.4715 66.8439C60.3745 63.619 24.1979 54.1785 11.8767 52.5809C24.7905 52.4541 37.6991 53.1598 50.5231 54.6935C67.4762 56.7555 84.2288 60.2351 100.607 65.0961C102.418 68.21 104.051 71.4256 105.498 74.727C103.494 74.7466 101.496 74.5006 99.5558 73.9955C90.4183 72.3839 81.4475 69.2376 72.4715 66.8439ZM106.302 54.6534C104.739 57.3282 103.229 59.7325 101.814 62.0075C75.2401 53.927 37.6827 48.6506 10.9771 51.8091C23.8819 47.8896 37.0938 45.0755 50.471 43.3969C63.8778 41.8458 77.4203 41.9003 90.8143 43.5593C95.8702 44.2193 105.178 43.7706 106.903 50.0195C107.115 50.7931 107.171 51.6017 107.068 52.3975C106.965 53.1934 106.704 53.9604 106.302 54.6534Z" fill="#231F20"/>
<path d="M116.388 70.8553C111.447 68.7961 112.064 68.4623 117.239 69.7977C141.302 75.9997 156.787 92.8627 168.576 114.223C170.116 117.02 171.091 120.574 173.893 122.401C176.083 123.827 181.117 124.76 181.117 120.813C181.117 119.716 180.594 117.746 179.289 117.478C178.48 117.312 176.081 119.114 177.83 117.111C178.167 116.712 178.638 116.451 179.154 116.376C179.669 116.302 180.195 116.419 180.63 116.706C181.335 117.196 181.914 117.845 182.323 118.601C182.732 119.357 182.957 120.199 182.983 121.058C183.354 125.778 177.704 126.8 174.339 125.453C167.338 122.647 167.61 114.764 154.088 97.9494C143.011 84.1751 131.563 77.1778 116.388 70.8553Z" fill="#231F20"/>
<path d="M116.242 80.7132C111.434 77.2827 112.117 77.1955 117.342 79.9419C124.246 83.7607 130.594 88.5018 136.21 94.0336C152.216 109.136 155.825 117.227 161.192 128.394C162.903 131.696 164.084 135.245 164.694 138.912C165.373 142.494 164.917 146.198 163.389 149.51C162.59 151.148 161.253 152.464 159.6 153.24C157.947 154.016 156.077 154.204 154.302 153.775C150.308 152.601 147.405 146.581 149.737 142.932C151.117 140.776 155.606 140.008 156.258 143.217C155.668 142.653 154.935 142.26 154.139 142.079C151.122 141.641 150.063 144.759 150.959 147.115C151.254 148.207 151.836 149.201 152.646 149.994C153.455 150.786 154.463 151.349 155.564 151.624C162.284 152.51 162.393 142.327 161.474 138.221C160.267 132.826 157.355 127.867 154.872 122.952C146.785 106.932 130.991 91.2366 116.242 80.7132Z" fill="#231F20"/>
<path d="M132.142 128.439C132.03 132.226 129.79 121.975 121.368 113.503C120.676 112.807 120.842 112.57 121.874 112.879C123.643 113.637 125.193 114.826 126.384 116.337C129.928 120.403 132.209 126.162 132.142 128.439Z" fill="#231F20"/>
<path d="M133.818 122.033C133.632 124.149 131.457 119.433 128.922 116.44C127.84 115.164 125.953 113.396 127.605 113.658C128.682 113.925 129.666 114.481 130.449 115.266C132.741 117.354 133.953 120.589 133.818 122.033Z" fill="#231F20"/>
</svg>
