<svg width="16" height="17" viewBox="0 0 16 17" fill="none" xmlns="http://www.w3.org/2000/svg">
<path d="M9.33325 13.8337C11.8474 13.8337 13.1045 13.8337 13.8855 13.0526C14.6666 12.2716 14.6666 11.0145 14.6666 8.50033C14.6666 5.98617 14.6666 4.72909 13.8855 3.94804C13.1045 3.16699 11.8474 3.16699 9.33325 3.16699H4.33325C4.02369 3.16699 3.86891 3.16699 3.73854 3.17983C2.47247 3.30453 1.47079 4.30621 1.34609 5.57228C1.33325 5.70265 1.33325 5.85743 1.33325 6.16699" stroke="#E3DEDF" stroke-linecap="round" stroke-linejoin="round"/>
<path d="M7.33325 13.833C7.33325 10.5193 4.64696 7.83301 1.33325 7.83301" stroke="#E3DEDF" stroke-linecap="round"/>
<path d="M5.33325 13.833C5.33325 11.6239 3.54239 9.83301 1.33325 9.83301" stroke="#E3DEDF" stroke-linecap="round"/>
<path d="M3.33325 13.833C3.33325 12.7284 2.43782 11.833 1.33325 11.833" stroke="#E3DEDF" stroke-linecap="round"/>
</svg>
