<svg width="16" height="16" viewBox="0 0 16 16" fill="none" xmlns="http://www.w3.org/2000/svg">
<g clip-path="url(#clip0_102_3146)">
<path d="M11.6284 9.00147C11.8131 9.20673 12.1292 9.22337 12.3345 9.03864C12.5397 8.85391 12.5564 8.53776 12.3716 8.33251L11.6284 9.00147ZM4 8.66699C4.37165 9.00147 4.37146 9.00168 4.37128 9.00188C4.37123 9.00194 4.37105 9.00214 4.37094 9.00226C4.37072 9.0025 4.37052 9.00272 4.37034 9.00292C4.36998 9.00332 4.36968 9.00364 4.36946 9.00389C4.36901 9.00438 4.36884 9.00456 4.36896 9.00443C4.36919 9.00418 4.37055 9.00273 4.37306 9.00015C4.37807 8.99498 4.38764 8.98531 4.40186 8.97177C4.43031 8.94467 4.47731 8.90212 4.5436 8.84909C4.67614 8.74306 4.88566 8.59523 5.17816 8.44523C5.76073 8.14648 6.68284 7.83366 8 7.83366L8 6.83366C6.51716 6.83366 5.43927 7.1875 4.72184 7.55542C4.36434 7.73875 4.09886 7.92426 3.9189 8.06822C3.82894 8.1402 3.76031 8.20181 3.7122 8.24763C3.68814 8.27055 3.6692 8.28952 3.65526 8.30389C3.6483 8.31107 3.64258 8.31711 3.6381 8.3219C3.63586 8.3243 3.63393 8.32639 3.6323 8.32816C3.63149 8.32905 3.63076 8.32985 3.6301 8.33058C3.62977 8.33094 3.62946 8.33128 3.62917 8.33161C3.62902 8.33177 3.62882 8.33199 3.62875 8.33207C3.62855 8.33229 3.62835 8.33251 4 8.66699ZM8 7.83366C9.31716 7.83366 10.2393 8.14648 10.8218 8.44523C11.1143 8.59523 11.3239 8.74306 11.4564 8.84909C11.5227 8.90212 11.5697 8.94467 11.5981 8.97177C11.6124 8.98531 11.6219 8.99498 11.6269 9.00015C11.6294 9.00273 11.6308 9.00418 11.631 9.00443C11.6312 9.00456 11.631 9.00438 11.6305 9.00389C11.6303 9.00364 11.63 9.00332 11.6297 9.00292C11.6295 9.00272 11.6293 9.0025 11.6291 9.00226C11.629 9.00214 11.6288 9.00194 11.6287 9.00188C11.6285 9.00168 11.6284 9.00147 12 8.66699C12.3716 8.33251 12.3715 8.33229 12.3713 8.33207C12.3712 8.33199 12.371 8.33177 12.3708 8.33161C12.3705 8.33128 12.3702 8.33094 12.3699 8.33058C12.3692 8.32985 12.3685 8.32905 12.3677 8.32816C12.3661 8.32639 12.3641 8.3243 12.3619 8.3219C12.3574 8.31711 12.3517 8.31107 12.3447 8.30389C12.3308 8.28952 12.3119 8.27054 12.2878 8.24763C12.2397 8.20181 12.1711 8.1402 12.0811 8.06822C11.9011 7.92426 11.6357 7.73875 11.2782 7.55542C10.5607 7.1875 9.48284 6.83366 8 6.83366L8 7.83366Z" fill="#231F20"/>
<path d="M14.6667 9.33398C14.6667 11.8481 14.6667 13.1052 13.8856 13.8863C13.1046 14.6673 11.8475 14.6673 9.33333 14.6673" stroke="#231F20" stroke-linecap="round"/>
<path d="M6.66667 14.6673C4.15251 14.6673 2.89543 14.6673 2.11438 13.8863C1.33333 13.1052 1.33333 11.8481 1.33333 9.33398" stroke="#231F20" stroke-linecap="round"/>
<path d="M6.66667 1.33398C4.15251 1.33398 2.89543 1.33398 2.11438 2.11503C1.33333 2.89608 1.33333 4.15316 1.33333 6.66732" stroke="#231F20" stroke-linecap="round"/>
<path d="M9.33333 1.33398C11.8475 1.33398 13.1046 1.33398 13.8856 2.11503C14.6667 2.89608 14.6667 4.15316 14.6667 6.66732" stroke="#231F20" stroke-linecap="round"/>
</g>
<defs>
<clipPath id="clip0_102_3146">
<rect width="16" height="16" rx="2.5" fill="white"/>
</clipPath>
</defs>
</svg>
