<svg width="20" height="21" viewBox="0 0 20 21" fill="none" xmlns="http://www.w3.org/2000/svg">
<path d="M17.0835 5.4375H2.91675" stroke="#444041" stroke-width="1.25" stroke-linecap="round"/>
<path d="M15.6943 7.51953L15.311 13.2688C15.1635 15.4812 15.0898 16.5874 14.3689 17.2618C13.6481 17.9362 12.5394 17.9362 10.3221 17.9362H9.67763C7.46029 17.9362 6.35163 17.9362 5.63079 17.2618C4.90995 16.5874 4.8362 15.4812 4.6887 13.2688L4.30542 7.51953" stroke="#444041" stroke-width="1.25" stroke-linecap="round"/>
<path d="M7.91675 9.60547L8.33342 13.7721" stroke="#444041" stroke-width="1.25" stroke-linecap="round"/>
<path d="M12.0834 9.60547L11.6667 13.7721" stroke="#444041" stroke-width="1.25" stroke-linecap="round"/>
<path d="M5.41675 5.4375C5.46331 5.4375 5.4866 5.4375 5.50771 5.43697C6.19391 5.41958 6.79927 4.98326 7.03276 4.33777C7.03994 4.31791 7.04731 4.29582 7.06203 4.25165L7.14294 4.00893C7.212 3.80173 7.24654 3.69813 7.29234 3.61017C7.47509 3.25923 7.8132 3.01553 8.20392 2.95314C8.30186 2.9375 8.41106 2.9375 8.62947 2.9375H11.3707C11.5891 2.9375 11.6983 2.9375 11.7962 2.95314C12.187 3.01553 12.5251 3.25923 12.7078 3.61017C12.7536 3.69813 12.7882 3.80173 12.8572 4.00893L12.9381 4.25165C12.9528 4.29576 12.9602 4.31792 12.9674 4.33777C13.2009 4.98326 13.8063 5.41958 14.4925 5.43697C14.5136 5.4375 14.5368 5.4375 14.5834 5.4375" stroke="#444041" stroke-width="1.25"/>
</svg>
