<svg width="162" height="184" viewBox="0 0 162 184" fill="none" xmlns="http://www.w3.org/2000/svg">
<path d="M104.349 62.6999C99.9466 61.6439 100.053 61.5018 99.7114 62.0634C94.2317 71.0932 76.7213 71.4858 71.3203 65.6682C73.1011 64.9223 84.4176 71.7431 96.0883 63.8596C97.0291 63.1999 97.8375 62.3679 98.4691 61.4077C91.3287 59.2698 89.3491 61.4874 88.7069 56.6788C88.4544 54.8276 88.3479 52.9594 88.3882 51.0916C84.3888 53.1709 80.304 53.7258 76.0291 52.0333C76.4419 60.9191 77.7168 61.185 65.5555 64.4596C64.4035 64.7716 65.0074 64.4778 65.7072 74.6058C67.0791 94.4537 67.825 128.497 66.3696 132.686C65.1831 130.335 65.4096 116.534 63.8669 83.0212C63.0029 64.258 63.9763 64.9213 62.8666 65.288C56.6794 67.3338 52.8634 68.168 52.0858 69.5015C39.9034 90.3633 24.1018 99.1846 26.5699 96.2451C32.0986 89.6596 40.1251 83.8612 47.9971 71.5463C53.1984 63.4084 58.9411 51.6877 60.0087 42.0887C60.0989 41.2813 59.1898 41.5866 57.192 39.8663C54.696 37.7149 55.7242 36.2624 54.6835 36.634C42.8314 40.8637 31.2528 44.073 18.7056 58.0439C-3.29566 82.5412 0.168975 104.985 13.9603 116.768C21.6403 123.324 31.3498 123.392 40.4371 123.519C40.9853 123.526 41.0439 123.304 41.0496 122.851C41.2887 102.952 40.7021 97.6399 41.5402 97.0582C44.497 100.26 44.4547 139.563 41.0602 139.099C40.3939 139.007 40.6061 138.075 40.6195 137.501C40.9498 123.931 41.0698 124.506 40.9987 123.926C31.3027 130.525 6.14498 123.796 0.966735 100.045C-3.8371 77.984 17.8147 43.4922 53.2743 35.3917C58.1367 34.281 54.2343 37.4768 61.6186 39.9997C67.8855 42.1434 74.5786 38.4282 75.0951 39.298C75.3543 39.7367 73.9603 40.7572 72.9879 41.1863C69.8131 42.586 68.9376 42.1271 69.385 43.0938C74.473 54.0916 85.8816 53.6826 91.2279 46.0784C93.7402 42.5063 92.7552 40.6573 95.2195 39.4391C101.191 36.488 100.5 30.7031 97.4429 30.8644C96.9082 30.8922 96.8909 30.7069 96.8563 30.3037C96.6231 27.7563 95.3962 25.4031 93.4416 23.7527C90.1421 22.666 90.0442 19.0132 86.4231 15.5927C84.8871 14.1412 86.1994 15.2356 81.3255 18.6858C78.2064 20.8938 72.1565 18.6224 65.8752 21.3114C61.4275 23.216 60.7594 24.272 60.0941 23.6816C59.0467 22.7543 61.7357 21.6282 59.7341 20.4896C50.5661 15.2759 59.8935 -2.09723 74.6573 1.21381C79.1271 2.21701 82.2672 3.99781 82.513 4.39237C84.2112 7.15525 92.5258 4.63717 99.5751 13.6688C107.384 23.673 105.815 33.1568 108.541 40.4039C110.595 45.8759 115.155 51.6839 116.092 57.3565C117.029 63.0292 114.364 63.5072 116.777 64.3204C173.454 83.4071 171.746 141.888 137.93 159.859C115.762 171.643 98.928 167.314 98.9703 166.415C99.0346 165.036 118.058 168.057 137.617 156.488C163.327 141.281 169.049 99.8479 135.787 76.401C123.403 67.6736 109.722 64.352 106.5 63.2404C105.595 62.9274 105.701 62.4925 103.699 74.6644C97.7799 110.673 98.1783 135.401 96.3226 137.705C94.105 123.79 99.913 74.4685 104.349 62.6999Z" fill="#231F20"/>
<path d="M12.6786 159.691C22.8786 163.516 40.7451 176.222 46.2786 181.121C47.3029 182.029 46.2949 180.467 54.1803 175.038C64.6443 167.832 66.0315 169.831 64.7327 171.087C63.5849 172.111 62.3193 172.995 60.9627 173.72C56.568 176.278 52.3799 179.177 48.4367 182.387C46.1864 184.238 47.6159 183.846 28.6107 171.222C9.12849 158.28 5.27409 161.518 18.0776 153.95C12.884 150.815 8.2069 151.579 9.9397 149.743C13.3823 146.095 23.6792 144.442 28.4043 143.722C41.1407 141.781 46.9861 135.678 54.2178 132.405C56.1915 131.512 56.6427 130.169 61.1999 132.322C67.1519 135.135 79.1519 143.516 78.4299 144.587C77.6879 145.681 67.6232 136.767 58.9727 133.163C56.9451 132.318 49.1807 137.296 47.2376 138.486C35.8223 145.479 29.1224 145.144 22.4216 146.399C21.2168 146.625 11.9663 148.593 12.0421 149.815C12.1016 150.775 12.5864 148.575 23.8664 154.973C29.0447 157.91 33.7199 161.642 38.9279 164.525C52.4255 171.996 41.6591 170.718 59.4315 162.565C60.0968 162.259 60.6507 162.024 60.8927 162.495C61.1547 163.003 60.5087 163.371 60.1016 163.647C56.8952 165.821 53.5813 167.827 50.2136 169.742C48.0325 170.981 47.4776 172.312 45.9032 171.345C30.8783 162.122 35.4258 164.385 20.445 155.093C19.0271 154.214 18.7083 156.007 15.4002 157.77C14.5103 158.246 13.8776 159.104 12.6786 159.691Z" fill="#088542"/>
<path d="M138.32 127.312C134.739 129.078 103.208 134.283 86.6365 146.32C96.7165 151.802 97.9251 163.289 96.4035 164.698C95.2745 162.718 93.8778 152.274 85.6352 147.898C79.7437 144.771 106.203 132.538 120.171 129.613C120.542 129.535 120.843 129.494 120.807 128.905C120.538 124.976 120.362 121.038 120.086 117.109C119.627 110.597 117.236 99.3659 118.183 98.9647C119.314 98.4847 122.7 109.099 123.01 120.496C123.237 128.837 122.36 129.008 123.547 128.776C127.944 127.912 134.969 126.242 138.32 127.312Z" fill="#231F20"/>
<path d="M70.7047 38.292C63.3713 38.1509 61.2852 29.8661 67.5521 26.0587C72.2455 23.2066 75.1879 26.7307 76.2132 25.9551C76.9707 25.3848 77.9518 25.1112 78.2167 23.9391C78.5518 22.4635 81.2407 22.3877 81.5124 24.1109C81.6862 25.2111 82.6222 25.5163 83.3431 26.0463C83.9959 26.5263 86.6407 22.8907 91.8305 25.0133C97.8689 27.4843 95.8558 37.0488 88.7095 37.6383C83.0254 38.1077 79.7623 33.3797 81.6286 28.9023C81.931 28.1746 81.6804 28.0786 81.2014 27.6888C79.7767 26.5253 79.2343 26.5762 77.9374 27.9394C77.8084 28.0512 77.7218 28.2039 77.6917 28.372C77.6617 28.54 77.6901 28.7132 77.7723 28.8629C79.5387 33.5544 75.3732 38.6731 70.7047 38.292ZM66.0449 31.7026C66.0545 35.3832 70.7422 37.2927 74.4602 34.6335C77.7022 32.3151 76.5079 26.8901 71.4497 26.9611C68.4718 27.0082 66.0382 29.1384 66.0449 31.7026ZM88.1393 26.341C84.427 26.3717 81.0353 31.5384 85.0356 34.3819C87.9502 36.4527 93.8379 34.7573 93.4212 29.9199C93.2359 27.7647 91.3418 26.316 88.1393 26.341Z" fill="#088542"/>
<path d="M61.2656 164.132C66.872 163.376 73.2656 162.816 76.5891 158.186C79.2685 154.45 76.4835 149.336 67.9587 149.948C65.6778 150.113 63.9651 150.748 63.7635 150.243C63.3987 149.328 67.1907 148.213 70.6659 148.197C77.5664 148.169 81.5955 153.714 79.0919 158.488C75.0378 166.217 63.0714 166.331 61.2656 164.132Z" fill="#231F20"/>
<path d="M66.3418 170.5C84.1863 173.385 89.1236 163.241 90.5722 164.798C91.1588 165.427 87.9264 169.345 83.6237 171.104C77.112 173.766 67.8 173.128 66.3418 170.5Z" fill="#231F20"/>
<path d="M69.584 175.402C80.4781 174.263 87.9747 173.277 93.3104 167.294C99.0704 160.832 95.3101 177.618 71.9024 175.865C71.1077 175.854 70.3217 175.697 69.584 175.402Z" fill="#231F20"/>
<path d="M64.0898 167.577C67.3135 166.905 79.2194 168.229 83.8658 158.617C84.9218 156.434 86.5538 159.343 82.8962 163.559C77.0124 170.336 64.5382 169.206 64.0898 167.577Z" fill="#231F20"/>
<path d="M52.9422 159.488C45.9246 159.523 46.851 148.797 49.8654 151.544C52.8337 154.248 56.1054 157.024 55.6696 158.086C55.4103 158.568 55.0107 158.961 54.5238 159.212C54.0368 159.461 53.4853 159.558 52.9422 159.488Z" fill="#088542"/>
<path d="M74.891 22.9932C61.5144 22.9932 58.0036 32.6355 56.8833 32.119C55.6171 31.5353 59.8804 22.3471 71.1211 21.7279C72.4689 21.6579 74.2392 21.8038 74.891 22.9932Z" fill="#231F20"/>
<path d="M45.2614 163.546C41.4914 163.486 41.5673 157.48 45.6281 157.586C49.1935 157.679 49.4863 163.616 45.2614 163.546Z" fill="#088542"/>
<path d="M24.502 149.42C26.4556 148.423 37.4044 155.364 36.2034 156.629C35.4978 157.376 26.1272 150.143 24.502 149.42Z" fill="#088542"/>
<path d="M85.7605 19.9474C89.0322 20.1134 90.3685 22.2514 89.8731 22.9234C89.6542 23.22 89.3394 22.9186 89.0859 22.861C84.9406 21.924 84.9051 22.381 83.78 22.0997C81.9819 21.6475 83.1406 19.8139 85.7605 19.9474Z" fill="#231F20"/>
<path d="M64.2969 145.003C63.3187 144.715 57.3849 140.144 57.8832 139.441C58.2672 138.909 64.1424 142.467 65.1686 143.814C65.6409 144.442 65.2252 145.098 64.2969 145.003Z" fill="#088542"/>
<path d="M39.0626 152.709C39.0127 153.457 38.2696 153.509 37.7311 153.074C31.9 148.364 32.1458 148.674 31.8396 148.232C30.7375 146.641 38.0344 149.725 39.0626 152.709Z" fill="#088542"/>
<path d="M85.1604 42.9653C85.1479 44.796 83.1444 45.2741 82.3985 43.2226C81.378 40.3992 85.1835 39.3346 85.1604 42.9653Z" fill="#231F20"/>
<path d="M80.0412 38.8565C75.4553 38.9285 78.269 33.373 78.5503 35.8219C78.7577 37.6277 78.7596 37.6123 80.6796 37.8216C81.0108 37.8571 81.5974 37.596 81.6463 38.0923C81.7087 38.7605 80.7055 38.8066 80.0412 38.8565Z" fill="#231F20"/>
<path d="M72.1691 28.6045C71.005 30.1069 69.5761 31.3839 67.9528 32.3725C67.4219 32.6231 67.037 32.2189 67.4536 31.8205C68.8342 30.492 70.4283 29.4048 72.1691 28.6045Z" fill="#088542"/>
<path d="M72.5669 30.5859C71.5003 32.1632 68.8459 34.4711 68.3122 33.9373C67.6814 33.3066 71.2594 31.0487 72.5669 30.5859Z" fill="#088542"/>
<path d="M89.7369 27.7405C88.5589 29.3975 87.0412 30.7842 85.2844 31.808C85.2402 31.8435 85.1893 31.8697 85.1346 31.8848C85.0799 31.8999 85.0233 31.9037 84.9676 31.8958C84.9109 31.888 84.8572 31.8688 84.8092 31.8393C84.7602 31.8098 84.7189 31.7708 84.6863 31.7245C84.1689 31.0544 88.0002 28.5622 89.7369 27.7405Z" fill="#088542"/>
<path d="M90.1253 29.3025C89.2738 30.6734 86.3055 33.6945 85.7372 32.9649C85.1689 32.2353 89.1269 29.7451 90.1253 29.3025Z" fill="#088542"/>
</svg>
