<svg width="16" height="17" viewBox="0 0 16 17" fill="none" xmlns="http://www.w3.org/2000/svg">
<path d="M8 3.5791C8 2.63629 8 2.16489 8.29289 1.87199C8.58579 1.5791 9.05719 1.5791 10 1.5791H10.6667C11.6095 1.5791 12.0809 1.5791 12.3738 1.87199C12.6667 2.16489 12.6667 2.63629 12.6667 3.5791C12.6667 4.52191 12.6667 4.99332 12.3738 5.28621C12.0809 5.5791 11.6095 5.5791 10.6667 5.5791H10C9.05719 5.5791 8.58579 5.5791 8.29289 5.28621C8 4.99332 8 4.52191 8 3.5791Z" stroke="#E3DEDF"/>
<path d="M12.6667 2.74603L13.7436 2.29731C14.1611 2.12336 14.3698 2.03639 14.5182 2.13535C14.6667 2.2343 14.6667 2.46043 14.6667 2.9127V4.24603C14.6667 4.69829 14.6667 4.92442 14.5182 5.02338C14.3698 5.12234 14.1611 5.03536 13.7436 4.86141L12.6667 4.4127V2.74603Z" stroke="#E3DEDF"/>
<path d="M10.6667 14.9131H5.33333" stroke="#E3DEDF" stroke-linecap="round"/>
<path d="M8 11.5798L8 14.9131" stroke="#E3DEDF" stroke-linecap="round"/>
<path d="M14.6667 8.91309H1.33333" stroke="#E3DEDF" stroke-linecap="round"/>
<path d="M14.6667 6.91244V7.5791C14.6667 9.46472 14.6667 10.4075 14.0809 10.9933C13.4951 11.5791 12.5523 11.5791 10.6667 11.5791H5.33333C3.44771 11.5791 2.5049 11.5791 1.91911 10.9933C1.33333 10.4075 1.33333 9.46472 1.33333 7.5791V6.5791C1.33333 4.38745 1.33333 3.29162 1.93863 2.55405C2.04945 2.41903 2.17326 2.29522 2.30828 2.18441C3.04585 1.5791 4.14167 1.5791 6.33333 1.5791" stroke="#E3DEDF" stroke-linecap="round"/>
</svg>
