<svg width="20" height="21" viewBox="0 0 20 21" fill="none" xmlns="http://www.w3.org/2000/svg">
<g clip-path="url(#clip0_799_47916)">
<path fill-rule="evenodd" clip-rule="evenodd" d="M4.99935 17.1666H14.9993C15.4577 17.1666 15.8327 17.5416 15.8327 18C15.8327 18.4583 15.4577 18.8333 14.9993 18.8333H4.99935C4.54102 18.8333 4.16602 18.4583 4.16602 18C4.16602 17.5416 4.54102 17.1666 4.99935 17.1666ZM9.99935 6.33329C9.08268 6.33329 8.33268 7.08329 8.33268 7.99996C8.33268 8.91663 9.08268 9.66663 9.99935 9.66663C10.4414 9.66663 10.8653 9.49103 11.1779 9.17847C11.4904 8.86591 11.666 8.44199 11.666 7.99996C11.666 7.55793 11.4904 7.13401 11.1779 6.82145C10.8653 6.50889 10.4414 6.33329 9.99935 6.33329ZM9.99935 2.16663C12.7243 2.16663 15.8327 4.21663 15.8327 8.12496C15.8327 10.6083 14.0577 13.225 10.5077 15.95C10.2077 16.1833 9.79102 16.1833 9.49102 15.95C5.94102 13.2166 4.16602 10.6083 4.16602 8.12496C4.16602 4.21663 7.27435 2.16663 9.99935 2.16663Z" fill="#0A0A0A" fill-opacity="0.45"/>
</g>
<defs>
<clipPath id="clip0_799_47916">
<rect width="20" height="20" fill="white" transform="translate(0 0.5)"/>
</clipPath>
</defs>
</svg>
