<svg width="192" height="192" viewBox="0 0 192 192" fill="none" xmlns="http://www.w3.org/2000/svg">
<path fill-rule="evenodd" clip-rule="evenodd" d="M73.1086 30.8397L70.6397 8.10047L95.712 5.37695L97.08 17.9625C96.0278 18.0983 95.0149 18.2403 94.0413 18.3898L92.9961 8.76575L74.0208 10.8211L75.6672 25.9831C74.543 27.3621 73.705 28.9646 73.1086 30.8397ZM71.9018 40.8641L68.5709 41.2473L68.9203 44.2962L71.9774 43.9443C71.9313 42.8728 71.9053 41.8468 71.9018 40.8641ZM75.7341 77.7516L68.0899 78.5817L70.1318 98.1695L73.1817 97.8508L71.4585 81.3023L76.1156 80.7967C75.9873 79.7643 75.8601 78.7493 75.7341 77.7516ZM87.743 19.6013L87.298 15.4998L80.7785 16.2072L81.3781 21.7333C83.1836 20.8928 85.2928 20.1957 87.743 19.6013ZM55.0383 9.74255L48.5189 10.4503L49.2151 16.8637L55.7345 16.1561L55.0383 9.74255ZM4.79999 15.2506L29.8752 12.528L32.5267 36.9379L7.45151 39.6605L4.79999 15.2506ZM8.18207 17.9693L10.1702 36.2784L29.1446 34.2192L27.1565 15.9101L8.18207 17.9693ZM57.2083 92.8401L63.7269 92.1327L64.4227 98.5458L57.9042 99.2524L57.2083 92.8401ZM16.7196 23.1566L23.238 22.4484L23.9346 28.8599L17.4162 29.5682L16.7196 23.1566ZM11.7829 79.561L14.4345 103.975L39.5106 101.25L36.8639 76.8384L11.7829 79.561ZM17.1532 100.592L15.1679 82.2826L34.1423 80.2224L36.1314 98.5314L17.1532 100.592ZM23.7031 87.4752L30.2225 86.7678L30.9183 93.1804L24.3989 93.8878L23.7031 87.4752ZM37.4678 55.5543L26.8771 56.7063L27.2093 59.7563L34.7491 58.9374L35.5363 66.1806L10.3699 68.9147L10.7011 71.9646L38.9184 68.9012L37.4678 55.5543ZM17.1495 60.9802L20.1994 60.65L19.0129 49.7175L28.9998 48.6327L28.6686 45.5828L8.07749 47.8177L8.40773 50.8676L15.962 50.0478L17.1495 60.9802ZM57.5549 53.373L68.2281 52.2162L70.3987 72.2121L67.3478 72.5433L65.5075 55.5954L57.8861 56.4229L58.4457 61.5705L47.5517 62.7551L48.3715 70.2997L58.9776 69.1458L61.0473 88.2095L50.4393 89.3605L51.6144 100.186L48.5645 100.518L47.0592 86.6418L57.6653 85.4889L56.2589 72.5279L48.7008 73.3497L49.2883 78.7487L46.2374 79.0799L44.1696 60.0364L55.0637 58.8517L53.327 42.8562L62.591 41.8501L62.9232 44.901L56.7072 45.5749L57.5549 53.373ZM43.4466 24.9609L51.1871 24.1938L52.3391 34.7874L65.6159 33.3455L65.2837 30.2946L55.0578 31.4044L54.2293 23.7733L65.013 22.6002L64.0809 14.0217L61.03 14.3529L61.6309 19.8815L43.1135 21.8946L42.5125 16.365L39.4626 16.6943L42.4415 44.1157L36.1429 44.8012L36.4751 47.8511L42.7727 47.1666L43.508 53.9375L46.5589 53.6053L43.4466 24.9609Z" fill="#231F20"/>
<path d="M78.72 103.697C70.5043 22.6732 58.8365 20.3749 117.459 16.1039C130.498 15.1535 136.097 13.4956 150.545 13.7317C172.631 14.0937 171.644 14.157 176.081 54.2783C177.969 71.3365 181.457 106.435 183.971 123.71C188.867 157.369 189.054 170.425 178.398 175.691C165.676 181.978 152.958 182.987 138.301 184.502C118.833 186.518 115.277 187.67 103.308 185.298C95.3789 183.727 88.6992 179.492 87.2208 171.464C84.5126 156.753 80.8694 124.916 78.72 103.697ZM177.517 89.5909C174.913 67.0578 171.41 28.5234 168.728 22.2383C166.098 16.0751 161.202 15.8898 123.972 18.813C83.7648 21.9695 74.3174 22.2748 74.5997 39.1074C74.8723 55.3314 86.3856 155.406 89.711 171.291C93.071 187.329 120.294 183.402 136.606 181.871C153.684 180.269 166.916 178.86 178.356 172.811C189.182 167.086 183.785 143.831 177.517 89.5909Z" fill="#231F20"/>
<path d="M152.266 137.992C157.31 137.716 159.739 136.431 160.596 139.858C161.099 141.874 161.987 147.57 161.805 149.38C161.397 153.45 156.76 155.031 112.088 157.615C107.884 157.858 108.326 148.815 108.315 146.155C108.295 141.241 114.03 143.579 152.266 137.992ZM144.697 143.605C144.199 141.641 118.419 145.155 113.676 146.005C113.189 146.092 112.509 146.144 112.558 146.749C112.607 147.354 113.311 147.254 113.785 147.334C116.012 147.705 143.026 144.427 144.697 143.605Z" fill="#088542"/>
<path d="M170.378 81.5229C178.848 159.527 178.722 159.528 177.611 159.644C176.179 159.794 161.344 12.8368 164.677 28.1181C164.91 29.1847 171.062 81.45 170.378 81.5229Z" fill="#231F20"/>
<path d="M126.367 34.4498C96.7987 36.7154 117.189 24.4869 89.6054 31.0178C84.3254 32.2658 84.2563 32.525 84.0509 31.9979C83.6813 31.0533 89.0957 29.7899 90.7709 29.3685C115.595 23.1285 98.7706 34.8962 125.339 32.5749C147.354 30.6549 137.859 25.2962 145.963 24.0866C147.359 23.8783 160.82 22.348 160.812 23.7362C160.806 24.7307 150.7 25.0091 146.394 25.9711C139.258 27.5647 145.824 32.9599 126.367 34.4498Z" fill="#231F20"/>
<path d="M174.393 165.136C137.404 181.816 99.5683 174.275 100.539 171.539C101.039 170.127 103.697 174.419 126.718 173.637C158.742 172.553 173.896 163.311 174.393 165.136Z" fill="#231F20"/>
<path d="M121.696 27.6187C119.661 27.8289 119.368 24.4574 121.376 24.1896C123.581 23.8939 123.795 27.4017 121.696 27.6187Z" fill="#231F20"/>
<path d="M128.58 24.8972C128.592 25.1546 128.505 25.4069 128.334 25.6006C128.164 25.7941 127.925 25.9136 127.668 25.9336C127.411 25.9536 127.156 25.8725 126.958 25.7077C126.759 25.5428 126.634 25.3071 126.607 25.0508C126.592 24.9192 126.606 24.7862 126.644 24.6597C126.683 24.533 126.746 24.4154 126.83 24.3138C126.915 24.2121 127.019 24.1284 127.137 24.0676C127.254 24.0069 127.382 23.9703 127.514 23.96C127.646 23.9497 127.779 23.9661 127.904 24.0079C128.029 24.0497 128.146 24.1163 128.244 24.2037C128.344 24.291 128.425 24.3974 128.483 24.5165C128.54 24.6357 128.573 24.7651 128.58 24.8972Z" fill="#231F20"/>
<path d="M97.7721 167.959C97.8153 168.374 98.0016 168.93 97.3469 168.987C96.6921 169.044 96.8016 168.445 96.7555 168.043C88.1635 93.2813 82.5792 38.5824 82.5792 38.5824C82.3363 35.0659 83.136 34.7289 83.6803 38.3904C85.2864 49.1904 89.831 91.9613 97.7721 167.959Z" fill="#231F20"/>
<path d="M113.892 59.6016L99.6835 61.1424L101.184 74.9664L115.392 73.4246L113.892 59.6016ZM102.731 73.0579L101.605 62.6899L112.352 61.5235L113.478 71.8915L102.731 73.0579Z" fill="#231F20"/>
<path d="M133.063 104.684L129.37 105.084L129.764 108.718L133.457 108.316L133.063 104.684Z" fill="#231F20"/>
<path d="M128.143 58.0215L124.45 58.4226L124.845 62.0559L128.537 61.6549L128.143 58.0215Z" fill="#231F20"/>
<path d="M152.682 69.3767L151.182 55.5527L136.98 57.0926L138.479 70.9166L152.682 69.3767ZM149.64 57.467L150.765 67.835L140.019 69.0014L138.894 58.6334L149.64 57.467Z" fill="#231F20"/>
<path d="M146.413 61.2832L142.72 61.684L143.115 65.3174L146.808 64.9165L146.413 61.2832Z" fill="#231F20"/>
<path d="M110.132 65.2207L106.44 65.6216L106.835 69.255L110.527 68.8541L110.132 65.2207Z" fill="#231F20"/>
<path d="M103.645 97.5671L105.146 111.391L119.348 109.849L117.849 96.0254L103.645 97.5671ZM106.685 109.477L105.56 99.1089L116.312 97.9425L117.437 108.311L106.685 109.477Z" fill="#231F20"/>
<path d="M114.087 101.648L110.394 102.05L110.789 105.682L114.482 105.282L114.087 101.648Z" fill="#231F20"/>
<path d="M118.19 83.9688L112.191 84.6206L112.381 86.3467L116.652 85.8849L117.098 89.987L102.843 91.5355L103.032 93.2625L119.012 91.5288L118.19 83.9688Z" fill="#231F20"/>
<path d="M155.446 94.8484L142.685 96.2365L142.217 91.9214L155.03 90.5303L153.228 73.9492L145.213 74.818L146.197 83.8785L141.688 84.3681L140.703 75.3038L135.806 75.8654L136.005 77.5934L139.164 77.2295L140.147 86.2823L148.112 85.4203L147.128 76.3598L151.69 75.8635L153.116 88.9905L140.3 90.3825L140.956 96.4237L135.535 97.0122L136.691 108.104L138.419 107.924L137.443 98.552L146.616 97.5565L146.961 100.735L150.653 100.334L150.308 97.1562L153.907 96.7654L154.72 104.262L143.975 105.428L143.624 102.196L141.896 102.382L142.434 107.343L156.636 105.802L155.446 94.8484Z" fill="#231F20"/>
<path d="M106.685 87.0507L108.414 86.8626L107.742 80.6715L113.397 80.0581L113.209 78.3301L101.546 79.5954L101.734 81.3243L106.014 80.8597L106.685 87.0507Z" fill="#231F20"/>
<path d="M135.613 82.0794L129.567 82.736L129.087 78.3181L132.609 77.937L132.42 76.209L127.173 76.7792L128.157 85.8397L121.987 86.5088L123.157 97.2953L124.885 97.1062L124.554 94.0496L128.834 93.5831L129.63 100.924L123.621 101.577L124.476 109.436L126.204 109.247L125.538 103.116L131.546 102.466L130.373 91.6688L124.365 92.3216L123.901 88.0487L130.071 87.3786L129.755 84.464L134.072 83.9946L135.114 93.5927L136.842 93.4055L135.613 82.0794Z" fill="#231F20"/>
<path d="M121.577 66.6421L125.961 66.2082L126.613 72.2072L134.132 71.3903L133.946 69.6623L128.153 70.2911L127.685 65.9701L133.792 65.3039L133.262 60.4453L131.535 60.6344L131.875 63.765L121.388 64.9045L121.048 61.772L119.32 61.9612L121.007 77.4911L117.441 77.8789L117.63 79.6069L121.196 79.2191L121.612 83.0543L123.34 82.8652L121.577 66.6421Z" fill="#231F20"/>
<path d="M158.235 63.9571C158.004 63.9915 157.769 63.9333 157.582 63.7951C157.394 63.657 157.268 63.4501 157.233 63.2198C155.899 50.8694 156.223 50.7167 154.967 50.8531C144.821 51.9561 144.323 52.3209 144.199 51.1766C144.183 50.9436 144.262 50.7142 144.416 50.5388C144.57 50.3636 144.787 50.2565 145.02 50.2415C156.941 48.9523 157.486 48.5567 157.612 49.7193C159.097 63.4108 159.524 63.8169 158.235 63.9571Z" fill="#088542"/>
<path d="M99.2141 103.707C99.4445 103.673 99.6797 103.73 99.8669 103.868C100.055 104.007 100.18 104.214 100.215 104.444C101.549 116.794 101.226 116.947 102.481 116.811C112.627 115.708 113.125 115.343 113.249 116.488C113.265 116.721 113.186 116.949 113.032 117.125C112.879 117.301 112.662 117.407 112.428 117.423C100.507 118.712 99.9619 119.106 99.8362 117.945C98.352 104.257 97.92 103.847 99.2141 103.707Z" fill="#088542"/>
<path d="M95.4241 70.8665C95.6567 70.851 95.8736 70.744 96.0278 70.569C96.1814 70.394 96.2601 70.1651 96.2457 69.9324C94.9114 57.583 94.5476 57.5033 95.8033 57.366C105.949 56.264 106.513 56.5145 106.389 55.3721C106.354 55.1417 106.229 54.9346 106.041 54.7965C105.853 54.6583 105.618 54.6001 105.388 54.6348C93.4637 55.927 92.8484 55.6649 92.9741 56.8323C94.4564 70.518 94.1319 71.0057 95.4241 70.8665Z" fill="#088542"/>
<path d="M161.6 97.0237C161.367 97.0391 161.149 97.1457 160.996 97.3213C160.842 97.4961 160.764 97.7255 160.778 97.9578C162.111 110.307 162.475 110.388 161.22 110.524C151.073 111.626 150.51 111.376 150.634 112.518C150.669 112.749 150.794 112.956 150.981 113.094C151.169 113.232 151.404 113.291 151.635 113.255C163.555 111.963 164.171 112.225 164.045 111.062C162.563 97.3722 162.887 96.8836 161.6 97.0237Z" fill="#088542"/>
</svg>
