<svg width="24" height="25" viewBox="0 0 24 25" fill="none" xmlns="http://www.w3.org/2000/svg">
<path d="M2 12.4375C2 7.72345 2 5.36643 3.46447 3.90197C4.92893 2.4375 7.28595 2.4375 12 2.4375C16.714 2.4375 19.0711 2.4375 20.5355 3.90197C22 5.36643 22 7.72345 22 12.4375C22 17.1515 22 19.5086 20.5355 20.973C19.0711 22.4375 16.714 22.4375 12 22.4375C7.28595 22.4375 4.92893 22.4375 3.46447 20.973C2 19.5086 2 17.1515 2 12.4375Z" stroke="#635F60" stroke-width="1.5"/>
<path d="M10.125 9.3125C10.125 8.27697 10.9645 7.4375 12 7.4375C13.0355 7.4375 13.875 8.27697 13.875 9.3125C13.875 9.99995 13.505 10.601 12.9534 10.9274C12.478 11.2086 12 11.6352 12 12.1875V13.4375" stroke="#635F60" stroke-width="1.5" stroke-linecap="round"/>
<circle cx="12" cy="16.4375" r="1" fill="#635F60"/>
</svg>
