<svg width="16" height="16" viewBox="0 0 16 16" fill="none" xmlns="http://www.w3.org/2000/svg">
<circle cx="7.66667" cy="2.99992" r="1.66667" stroke="#635F60"/>
<path d="M6.89421 7.72468L7.39173 7.77443L6.89421 7.72468ZM7.88369 11.9361L7.46038 12.2022L7.88369 11.9361ZM9.17695 14.9328C9.32392 15.1666 9.63258 15.237 9.86636 15.0901C10.1001 14.9431 10.1705 14.6344 10.0236 14.4006L9.17695 14.9328ZM4.20263 8.75493L4.69072 8.8634L4.20263 8.75493ZM3.51191 9.55828C3.452 9.82785 3.62197 10.0949 3.89153 10.1548C4.1611 10.2147 4.42819 10.0448 4.48809 9.77521L3.51191 9.55828ZM11.5134 8.82894L11.3553 8.3546L11.3553 8.3546L11.5134 8.82894ZM12.1581 9.14109C12.4201 9.05377 12.5617 8.77061 12.4743 8.50863C12.387 8.24666 12.1039 8.10508 11.8419 8.19241L12.1581 9.14109ZM8.38765 6.67016L8.35189 7.16888L8.38765 6.67016ZM9.61308 7.78575L9.12801 7.90701L9.12801 7.90702L9.61308 7.78575ZM9.55938 7.58502L9.08423 7.74067L9.08423 7.74067L9.55938 7.58502ZM4.90193 6.96003L5.21479 7.35005V7.35005L4.90193 6.96003ZM9.68463 8.05019L10.157 7.88632L10.157 7.88631L9.68463 8.05019ZM11.2519 8.91055L11.1366 8.42404L11.1366 8.42404L11.2519 8.91055ZM6.50248 6.617L6.39669 7.67493L7.39173 7.77443L7.49752 6.7165L6.50248 6.617ZM7.46038 12.2022L9.17695 14.9328L10.0236 14.4006L8.30699 11.67L7.46038 12.2022ZM7 6.16675H6.80579V7.16675H7V6.16675ZM3.71453 8.64647L3.51191 9.55828L4.48809 9.77521L4.69072 8.8634L3.71453 8.64647ZM7 7.16675H8.17989V6.16675H7V7.16675ZM11.6715 9.30328L12.1581 9.14109L11.8419 8.19241L11.3553 8.3546L11.6715 9.30328ZM8.17989 7.16675C8.29468 7.16675 8.3265 7.16706 8.35189 7.16888L8.42341 6.17144C8.35357 6.16644 8.27863 6.16675 8.17989 6.16675V7.16675ZM10.0982 7.66448C10.0742 7.5687 10.0563 7.49591 10.0345 7.42937L9.08423 7.74067C9.09215 7.76487 9.10017 7.79565 9.12801 7.90701L10.0982 7.66448ZM8.35189 7.16888C8.68947 7.19309 8.97887 7.41905 9.08423 7.74067L10.0345 7.42938C9.80276 6.72181 9.16607 6.22469 8.42341 6.17144L8.35189 7.16888ZM6.80579 6.16675C6.30543 6.16675 5.8853 6.16589 5.54616 6.20705C5.19348 6.24985 4.87159 6.34337 4.58906 6.57L5.21479 7.35005C5.29787 7.2834 5.41516 7.23028 5.66663 7.19977C5.93164 7.16761 6.28064 7.16675 6.80579 7.16675V6.16675ZM4.69072 8.8634C4.80464 8.35075 4.88119 8.01025 4.97007 7.75853C5.05441 7.51966 5.13171 7.41669 5.21479 7.35005L4.58906 6.57C4.30654 6.79664 4.14541 7.09058 4.02713 7.42557C3.91338 7.74772 3.82307 8.15803 3.71453 8.64647L4.69072 8.8634ZM9.12801 7.90702C9.16006 8.0352 9.18365 8.13163 9.21225 8.21407L10.157 7.88631C10.1467 7.85664 10.1356 7.81414 10.0982 7.66448L9.12801 7.90702ZM11.3553 8.3546C11.209 8.40338 11.1671 8.41679 11.1366 8.42404L11.3673 9.39706C11.4522 9.37693 11.5462 9.34506 11.6715 9.30328L11.3553 8.3546ZM9.21225 8.21407C9.52062 9.10296 10.4518 9.61413 11.3673 9.39706L11.1366 8.42404C10.7204 8.52271 10.2972 8.29036 10.157 7.88632L9.21225 8.21407ZM6.39669 7.67493C6.28728 8.76897 6.21492 9.42989 6.36551 10.0708L7.339 9.84211C7.23535 9.40094 7.2757 8.93471 7.39173 7.77443L6.39669 7.67493ZM8.30699 11.67C7.68641 10.6828 7.44266 10.2833 7.339 9.84211L6.36551 10.0708C6.5161 10.7118 6.87522 11.2713 7.46038 12.2022L8.30699 11.67Z" fill="#635F60"/>
<path d="M6 11.6667L4 14.6667" stroke="#635F60" stroke-linecap="round"/>
</svg>
