<svg width="16" height="16" viewBox="0 0 16 16" fill="none" xmlns="http://www.w3.org/2000/svg">
<circle cx="1.66667" cy="1.66667" r="1.66667" transform="matrix(-1 0 0 1 10 1.33325)" stroke="#635F60"/>
<path d="M9.10579 7.72468L8.60827 7.77443L9.10579 7.72468ZM8.11631 11.9361L8.53962 12.2022L8.11631 11.9361ZM6.82305 14.9328C6.67608 15.1666 6.36742 15.237 6.13364 15.0901C5.89985 14.9431 5.82947 14.6344 5.97643 14.4006L6.82305 14.9328ZM11.7974 8.75493L11.3093 8.8634L11.7974 8.75493ZM12.4881 9.55828C12.548 9.82785 12.378 10.0949 12.1085 10.1548C11.8389 10.2147 11.5718 10.0448 11.5119 9.77521L12.4881 9.55828ZM4.48657 8.82894L4.64468 8.3546L4.64468 8.3546L4.48657 8.82894ZM3.84189 9.14109C3.57991 9.05377 3.43833 8.77061 3.52566 8.50863C3.61298 8.24666 3.89614 8.10508 4.15811 8.19241L3.84189 9.14109ZM7.61235 6.67016L7.64811 7.16888L7.61235 6.67016ZM6.38692 7.78575L6.87199 7.90701L6.87199 7.90702L6.38692 7.78575ZM6.44062 7.58502L6.91577 7.74067L6.91577 7.74067L6.44062 7.58502ZM11.0981 6.96003L10.7852 7.35005V7.35005L11.0981 6.96003ZM6.31537 8.05019L5.84299 7.88632L5.84299 7.88631L6.31537 8.05019ZM4.74808 8.91055L4.86343 8.42404L4.86343 8.42404L4.74808 8.91055ZM9.49752 6.617L9.60331 7.67493L8.60827 7.77443L8.50248 6.7165L9.49752 6.617ZM8.53962 12.2022L6.82305 14.9328L5.97643 14.4006L7.69301 11.67L8.53962 12.2022ZM9 6.16675H9.19421V7.16675H9V6.16675ZM12.2855 8.64647L12.4881 9.55828L11.5119 9.77521L11.3093 8.8634L12.2855 8.64647ZM9 7.16675H7.82011V6.16675H9V7.16675ZM4.32845 9.30328L3.84189 9.14109L4.15811 8.19241L4.64468 8.3546L4.32845 9.30328ZM7.82011 7.16675C7.70532 7.16675 7.6735 7.16706 7.64811 7.16888L7.57659 6.17144C7.64643 6.16644 7.72137 6.16675 7.82011 6.16675V7.16675ZM5.90185 7.66448C5.92579 7.5687 5.94367 7.49591 5.96546 7.42937L6.91577 7.74067C6.90785 7.76487 6.89983 7.79565 6.87199 7.90701L5.90185 7.66448ZM7.64811 7.16888C7.31053 7.19309 7.02113 7.41905 6.91577 7.74067L5.96546 7.42938C6.19724 6.72181 6.83393 6.22469 7.57659 6.17144L7.64811 7.16888ZM9.19421 6.16675C9.69457 6.16675 10.1147 6.16589 10.4538 6.20705C10.8065 6.24985 11.1284 6.34337 11.4109 6.57L10.7852 7.35005C10.7021 7.2834 10.5848 7.23028 10.3334 7.19977C10.0684 7.16761 9.71936 7.16675 9.19421 7.16675V6.16675ZM11.3093 8.8634C11.1954 8.35075 11.1188 8.01025 11.0299 7.75853C10.9456 7.51966 10.8683 7.41669 10.7852 7.35005L11.4109 6.57C11.6935 6.79664 11.8546 7.09058 11.9729 7.42557C12.0866 7.74772 12.1769 8.15803 12.2855 8.64647L11.3093 8.8634ZM6.87199 7.90702C6.83994 8.0352 6.81635 8.13163 6.78775 8.21407L5.84299 7.88631C5.85329 7.85664 5.86443 7.81414 5.90185 7.66448L6.87199 7.90702ZM4.64468 8.3546C4.79103 8.40338 4.83286 8.41679 4.86343 8.42404L4.63273 9.39706C4.54782 9.37693 4.4538 9.34506 4.32845 9.30328L4.64468 8.3546ZM6.78775 8.21407C6.47938 9.10296 5.5482 9.61413 4.63272 9.39706L4.86343 8.42404C5.27956 8.52271 5.70282 8.29036 5.84299 7.88632L6.78775 8.21407ZM9.60331 7.67493C9.71272 8.76897 9.78508 9.42989 9.63449 10.0708L8.661 9.84211C8.76465 9.40094 8.7243 8.93471 8.60827 7.77443L9.60331 7.67493ZM7.69301 11.67C8.31359 10.6828 8.55734 10.2833 8.661 9.84211L9.63449 10.0708C9.4839 10.7118 9.12478 11.2713 8.53962 12.2022L7.69301 11.67Z" fill="#635F60"/>
<path d="M10 11.6667L12 14.6667" stroke="#635F60" stroke-linecap="round"/>
</svg>
